<svg width="682" height="560" viewBox="0 0 682 560" fill="none" xmlns="http://www.w3.org/2000/svg">
<g clip-path="url(#clip0_26_12670)">
<path d="M243.434 262.319H127.725V279.258H243.434V262.319Z" fill="black"/>
<path d="M243.434 291.482H127.725V308.42H243.434V291.482Z" fill="black"/>
<path d="M243.434 320.295H127.725V337.233H243.434V320.295Z" fill="black"/>
<path d="M243.434 349.108H127.725V366.047H243.434V349.108Z" fill="black"/>
<path fill-rule="evenodd" clip-rule="evenodd" d="M241.708 0.218011L242.022 44.3723L266.653 19.2823C278.779 6.92929 295.322 -0.0163014 312.578 1.93386e-06L433.006 0.112988L391.111 44.1623L610.2 44.3723L512.514 142.668H681.976L295.056 532.003C277.319 549.849 253.264 559.876 228.182 559.876H106.826V467.099H83.7538C66.8191 467.099 50.5777 460.33 38.6031 448.28C26.6286 436.231 19.9013 419.889 19.9013 402.848V295.528L-0.00183105 275.501H54.3784L67.0987 262.701H85.0948L47.5038 301.554L48.1647 319.652C48.7276 335.06 60.7278 347.57 76.0103 348.681L106.154 350.872L106.2 364.913L73.0336 364.554C64.4736 364.461 56.2884 361.006 50.2239 354.927L47.0652 351.76V437.978H106.826L109.183 422.799C112.231 403.166 126.607 387.246 145.738 382.318L152.901 380.473H243.064V142.253L126.228 142.598L126.533 79.5814C126.746 35.5564 162.335 0.0121346 206.087 0.126637L241.707 0.219907L241.708 0.218011ZM304.051 206.126L356.933 206.079L303.922 259.737L366.398 259.845C366.398 259.845 410.896 251.965 410.896 201.677C410.896 151.39 366.427 143.371 366.427 143.371L304.059 143.572L304.051 206.126Z" fill="black"/>
<path fill-rule="evenodd" clip-rule="evenodd" d="M94.5071 234.415L130.485 198.535C130.485 198.535 146.345 197.821 148.78 198.469C154.598 200.017 160.37 203.448 164.293 207.889C168.216 212.329 172.689 224.162 172.689 224.162H126.069L115.348 234.398L94.5071 234.415Z" fill="black"/>
<path fill-rule="evenodd" clip-rule="evenodd" d="M125.878 142.754L20.9825 248.304V209.373C20.9825 191.67 27.9789 174.693 40.429 162.185C52.8794 149.677 69.7617 142.664 87.3555 142.692C108.198 142.726 125.878 142.754 125.878 142.754Z" fill="black"/>
</g>
<defs>
<clipPath id="clip0_26_12670">
<rect width="682" height="560" fill="black"/>
</clipPath>
</defs>
</svg>
