<?xml version="1.0" encoding="UTF-8"?><svg version="1.1" xmlns="http://www.w3.org/2000/svg" xmlns:xlink="http://www.w3.org/1999/xlink" viewBox="0 0 1200 800" width="1200" height="800" x="0px" y="0px">
              
              <!-- ITEM 0 -->
<g transform="translate(584.0 256.0) scale(2.037760443522273 2.040017309237775) rotate(0.0 121.21149999999999 121.3225)">
<g transform="translate(-0.0 -0.0)">
<title>cauldron</title><g id="Layer_2-i0" data-name="Layer 2"><g id="cauldron-i0"><circle cx="70.235" cy="26.055" r="10.195" fill="#cf4327"/><circle cx="203.907" cy="50.977" r="7.93" fill="#cf4327"/><circle cx="123.477" cy="9.063" r="9.063" fill="#cf4327"/><path d="M184.592,60.129a28.34,28.34,0,0,0-22.667-16.881c.035-.441.068-.883.068-1.334a16.988,16.988,0,0,0-33.127-5.308A35.128,35.128,0,0,0,85.5,50.916a27.19,27.19,0,1,0,7.525,45.125,35.093,35.093,0,0,0,47.828-2.6,28.19,28.19,0,0,0,17.361,6.242,23.788,23.788,0,1,0,26.377-39.549Z" fill="#cf4327"/><path d="M232.323,124.726l-15.183-.142a96.98,96.98,0,0,0-7.063-22.631H217.5a10.195,10.195,0,0,0,0-20.39H24.922a10.195,10.195,0,0,0,0,20.39h7.425A96.921,96.921,0,0,0,25.631,122.8l-15.34-.143h-.1a10.2,10.2,0,0,0-.093,20.39l13.608.127a97.147,97.147,0,0,0,25.105,64.358L31.845,225.438a10.195,10.195,0,1,0,14.8,14.023L64,221.148a97.453,97.453,0,0,0,114.431,0l17.349,18.313a10.195,10.195,0,0,0,14.8-14.023l-16.969-17.911a97.139,97.139,0,0,0,25.06-62.536l13.463.125h.1a10.2,10.2,0,0,0,.093-20.39Z" fill="#3b301b"/><path d="M82.818,211.162a6.965,6.965,0,0,1-3.289-.825c-35.22-18.784-42.613-45.53-42.613-64.66a86.1,86.1,0,0,1,8.593-36.854,7,7,0,0,1,12.385,6.529h0c-1.127,2.158-26.97,53.195,28.223,82.632a7,7,0,0,1-3.3,13.178Z" fill="#574730"/><path d="M155.075,211.162a7,7,0,0,1-3.3-13.178c17.542-9.356,28.661-21.5,33.045-36.1,6.763-22.51-4.654-43.952-4.769-44.166a7,7,0,0,1,12.276-6.729c.589,1.071,14.334,26.564,5.952,54.754-5.464,18.379-18.894,33.384-39.917,44.6A6.959,6.959,0,0,1,155.075,211.162Z" fill="#574730"/><path d="M97.427,63.439a3.436,3.436,0,0,1-.6-.053,3.4,3.4,0,0,1-2.757-3.938,21.46,21.46,0,0,1,9.184-13.336c5.994-3.8,13.859-4.409,23.378-1.813a3.4,3.4,0,1,1-1.788,6.558c-7.593-2.072-13.638-1.734-17.95,1a14.673,14.673,0,0,0-6.129,8.777A3.4,3.4,0,0,1,97.427,63.439Z" fill="#db6653"/><path d="M58.911,74.766a3.4,3.4,0,0,1-3.356-3.957,16.153,16.153,0,0,1,6.781-10.055c4.538-2.975,10.514-3.562,17.787-1.746A3.4,3.4,0,0,1,78.472,65.6c-5.343-1.334-9.523-1.056-12.41.837a9.369,9.369,0,0,0-3.8,5.488A3.4,3.4,0,0,1,58.911,74.766Z" fill="#db6653"/><path d="M142.735,70.235a3.4,3.4,0,0,1-3.4-3.4c0-5.1,3.122-12.328,8.907-15.686,3.7-2.148,9.981-3.65,18.833,1.408a3.4,3.4,0,1,1-3.372,5.9c-4.852-2.771-8.909-3.251-12.049-1.429-3.768,2.186-5.522,7.144-5.522,9.807A3.4,3.4,0,0,1,142.735,70.235Z" fill="#db6653"/></g></g>
</g>
</g>

<!-- ITEM 1 -->
<g transform="translate(372.0 340.0) scale(4.578416038674819 4.661532225374949) rotate(277.33541991819243 35.165 12.335)">
<g transform="translate(-0.0 -0.0)">
<title>beach_6</title><g id="Layer_2-i1" data-name="Layer 2"><g id="beach_6-i1"><path d="M66.17,0H49.58A6.59,6.59,0,0,0,43,6.58V8.83H17.09A7.5,7.5,0,0,0,9.63,2H7.5A7.5,7.5,0,0,0,0,9.5v5.67a7.51,7.51,0,0,0,7.5,7.5H9.63a7.5,7.5,0,0,0,7.46-6.84H43v2.25a6.59,6.59,0,0,0,6.58,6.59H66.17a4.17,4.17,0,0,0,4.16-4.17V4.17A4.17,4.17,0,0,0,66.17,0Zm-55,15.17a1.51,1.51,0,0,1-1.5,1.5H7.5A1.5,1.5,0,0,1,6,15.17V9.5A1.5,1.5,0,0,1,7.5,8H9.63a1.5,1.5,0,0,1,1.5,1.5Z" style="fill:#cf4327"/><path d="M63.6,9.5H50.34a2.5,2.5,0,0,1,0-5H63.6a2.5,2.5,0,0,1,0,5Z" style="fill:#db6653"/></g></g>
</g>
</g>

<!-- ITEM 2 -->
<g transform="translate(79.0 143.0) scale(2.148303059797358 2.152212389380531) rotate(0.0 114.0435 141.25)">
<g transform="translate(-0.0 -0.0)">

<g>
	<path style="fill:#CF4327;" d="M103.681,28.64l-1.98-21.14c-0.38-4-3.18-7.5-7.5-7.5c-3.76,0-7.88,3.44-7.5,7.5l1.26,13.4   l-7.56-14.53c-4.47-8.56-17.42-1-13,7.57l7.32,14l-8.38-7.13c-3.08-2.62-7.58-3-10.61,0c-2.69,2.69-3.1,8,0,10.61l16.19,13.79   c3.08,2.62,7.58,3,10.61,0c2.211-2.346,2.783-5.795,1.45-8.73c2.463-0.346,4.654-1.748,6-3.84c1.29,2.176,3.64,3.502,6.17,3.48   C99.951,36.14,104.071,32.69,103.681,28.64z"/>
	<path style="fill:#3B301B;" d="M162.301,125.93c-5.179-25.702-14.8-50.303-28.43-72.7l17.27-15.42c0.958-0.986,0.958-2.554,0-3.54   c-18.67-20.21-53.2-16.09-73.35-0.68c-26,19.89-32.16,52.32-31.17,83.29c0.54,18.62,2.29,37.16,4.68,55.62   c-3.649-3.34-7.745-6.157-12.17-8.37c-4.8-2.38-12.21-6-17.72-4c-7.74,2.85-4,11.46,1.48,19c-7.67-3.33-15.52-4.44-16.21,4.22   c-0.62,7.89,3.79,15.2,9.35,21.45c-2.93-1.41-6-2.82-9.33-2.6c-6.8,0.45-7.6,7-6,12.33c4.46,15.13,15.31,28,28.47,36.4   c28.54,18.27,71.58,19.79,100.12,0.71c15.79-10.56,26.2-27,31.92-44.89C169.011,180.68,167.521,152.36,162.301,125.93z"/>
	<path style="fill:#CF4327;" d="M157.211,106.36c0.316-0.693,0.248-1.5-0.18-2.13c-5.538-17.845-13.224-34.95-22.89-50.94   l17.16-15.3c1.053-1.083,1.053-2.807,0-3.89c-20.43-22.12-58-15.27-78.23,3.09c-11.61,10.52-19.56,24.75-23.37,39.87   c-1.067,4.314-1.868,8.688-2.4,13.1c-0.54,4.3-1.8,10.1-1,14.42c1.1,6.1,7.56,11,13.18,12.71c13.06,3.89,19.92-5.78,23.1-16.49   c5,10.49,14,19.43,26.72,16.43c9.33-2.2,13-10.11,14.23-18.67c2.69,5.26,6.33,9.9,11.83,12.47c7,3.26,16.32,2.82,21.24-3.66   C156.886,107.09,157.096,106.743,157.211,106.36z"/>
	<path style="fill:#3B301B;" d="M86.991,277.5h-2.19c-0.126-5.952,0.101-11.905,0.68-17.83c0.31-3.2-4.69-3.18-5,0   c-0.656,6.645-0.87,13.327-0.64,20c0.007,0.638,0.27,1.247,0.73,1.69c0.46,0.703,1.24,1.13,2.08,1.14h4.33   c1.381,0,2.5-1.119,2.5-2.5s-1.119-2.5-2.5-2.5l0,0L86.991,277.5z"/>
	<path style="fill:#3B301B;" d="M103.991,276.83h-2.83v-15.84c0-3.22-5-3.22-5,0v18.67c0.021,1.375,1.153,2.473,2.528,2.451   c0.387-0.006,0.768-0.102,1.112-0.281h4.2c1.381,0,2.5-1.119,2.5-2.5s-1.119-2.5-2.5-2.5L103.991,276.83z"/>
	<path style="fill:#EAE2C2;" d="M122.771,32.41c-17.94-2.43-36.13,14.81-41.35,30.77c-0.355,1.346,0.447,2.725,1.793,3.08   c0.422,0.111,0.865,0.111,1.287,0c8.332-1.74,16.309-4.881,23.59-9.29c7.87-5.31,13.86-12.21,16.43-21.48   C124.841,34.31,124.111,32.59,122.771,32.41z"/>
	<path style="fill:#3B301B;" d="M112.301,45.76c-0.562-2.323-2.383-4.133-4.71-4.68c-5.79-1.58-12.29,4.23-10.29,10.28   c0.569,1.896,2,3.413,3.86,4.09c2.47,0.83,5-0.24,7-1.72c0.09-0.06,0.16-0.14,0.24-0.21l0.27-0.18   C110.931,51.5,112.931,48.82,112.301,45.76z"/>
	<path style="fill:#3B301B;" d="M127.121,40.38c1.026,4.575,5.567,7.452,10.142,6.426c1.363-0.306,2.63-0.943,3.688-1.856   c5-4.43,2.8-11.86-2.93-14.27c-3-1.25-4.26,3.59-1.33,4.82c1.744,0.754,2.546,2.78,1.791,4.523   c-0.236,0.544-0.608,1.019-1.081,1.377c-2.22,1.69-4.88,0.13-5.46-2.35C131.201,35.92,126.381,37.25,127.121,40.38z"/>
	<path style="fill:#3B301B;" d="M224.301,121.75l1.28-0.29c4.39-1,2.53-7.77-1.86-6.75c-6,1.4-12.043,2.593-18.13,3.58   c-0.868-0.548-1.837-0.915-2.85-1.08c-1.93-0.222-3.882-0.148-5.79,0.22c-9.68,1.37-19.62,1.58-29.45,2.45   c-11.24,1-22.493,1.81-33.76,2.43c-7.82,0.43-15.38,6.59-15,15c0.35,7.76,6.61,15.46,15,15c11.15-0.61,22-1.62,33-3.17   c3.65-0.51,7.16-0.92,10.81-1.58c5.23-0.94,10.5-1.61,15.77-2.31c9.25-0.516,18.449-1.719,27.52-3.6c3.45-0.71,3-5,0.6-6.39   l1.09-0.23c3.35-0.73,3.06-4.8,0.81-6.29l1.53-0.26C228.921,127.81,227.801,122.31,224.301,121.75z"/>
	<path style="fill:#3B301B;" d="M197.301,123.63c4.23-5.14,10.65-11.13,17.85-8.69c3.05,1,4.36-3.79,1.33-4.82   c-8.94-3-17.31,3.41-22.71,10c-2,2.47,1.49,6,3.54,3.54L197.301,123.63z"/>
	<path style="fill:#EAE2C2;" d="M142.941,158c-0.36,1.516-0.104,3.112,0.71,4.44c0.696,1.193,2.227,1.596,3.42,0.9   c1.193-0.696,1.596-2.227,0.9-3.42c-0.094-0.135-0.174-0.279-0.24-0.43c0.14,0.347,0.167,0.393,0.08,0.14   c-0.024-0.079-0.044-0.159-0.06-0.24c-0.04-0.193-0.04-0.107,0,0.26c-0.004-0.083-0.004-0.167,0-0.25c0-0.65-0.11,0.43,0-0.07   c0.367-1.331-0.414-2.708-1.745-3.075c-1.331-0.367-2.708,0.414-3.075,1.745L142.941,158z"/>
	<path style="fill:#EAE2C2;" d="M152.831,171.16v3.5c0,1.381,1.119,2.5,2.5,2.5s2.5-1.119,2.5-2.5v-3.5c0-1.381-1.119-2.5-2.5-2.5   S152.831,169.779,152.831,171.16z"/>
	<path style="fill:#EAE2C2;" d="M140.011,181.01l-0.5,3c-0.336,1.33,0.436,2.688,1.75,3.08c1.332,0.353,2.701-0.425,3.08-1.75l0.5-3   c0.336-1.33-0.436-2.688-1.75-3.08C141.759,178.907,140.39,179.685,140.011,181.01z"/>
	<path style="fill:#EAE2C2;" d="M150.301,194.5l-1,2c-0.696,1.193-0.293,2.724,0.9,3.42c1.193,0.696,2.724,0.293,3.42-0.9l0,0l1-2   c0.696-1.193,0.293-2.724-0.9-3.42C152.528,192.904,150.997,193.307,150.301,194.5z"/>
	<path style="fill:#EAE2C2;" d="M137.171,210.4l-1.5,2.5c-0.696,1.193-0.293,2.724,0.9,3.42c1.193,0.696,2.724,0.293,3.42-0.9l0,0   l1.5-2.5c0.696-1.193,0.293-2.724-0.9-3.42C139.398,208.804,137.867,209.207,137.171,210.4z"/>
	<path style="fill:#EAE2C2;" d="M145.961,218.01c-0.109,0.53-0.284,1.044-0.52,1.53c-0.14,0.28-0.31,0.54-0.47,0.8   s-0.21,0.29-0.08,0.14l-0.35,0.4c-0.978,0.978-0.978,2.562,0,3.54c0.978,0.978,2.562,0.978,3.54,0c1.31-1.441,2.238-3.188,2.7-5.08   c0.367-1.331-0.414-2.708-1.745-3.075C147.705,215.898,146.328,216.679,145.961,218.01L145.961,218.01L145.961,218.01z"/>
	<path style="fill:#EAE2C2;" d="M131.301,235.5l-2,3c-0.69,1.194-0.289,2.721,0.9,3.42c1.197,0.662,2.704,0.266,3.42-0.9l2-3   c0.69-1.194,0.289-2.721-0.9-3.42C133.523,233.938,132.017,234.334,131.301,235.5z"/>
	<path style="fill:#EAE2C2;" d="M122.061,231.39l-1,1c-0.978,0.978-0.978,2.562,0,3.54c0.978,0.978,2.562,0.978,3.54,0l1-1   c0.978-0.978,0.978-2.562,0-3.54C124.623,230.412,123.038,230.412,122.061,231.39L122.061,231.39z"/>
	<path style="fill:#EAE2C2;" d="M112.141,244.68l-1.5,0.49c-1.331,0.367-2.112,1.744-1.745,3.075   c0.367,1.331,1.744,2.112,3.075,1.745l1.5-0.49c1.331-0.367,2.112-1.744,1.745-3.075   C114.848,245.094,113.472,244.313,112.141,244.68z"/>
	<path style="fill:#EAE2C2;" d="M95.301,253.66h-1c-1.381,0-2.5,1.119-2.5,2.5s1.119,2.5,2.5,2.5h1c1.381,0,2.5-1.119,2.5-2.5   S96.681,253.66,95.301,253.66z"/>
	<path style="fill:#EAE2C2;" d="M101.301,241.66c3.22,0,3.22-5,0-5S98.081,241.66,101.301,241.66z"/>
	<path style="fill:#EAE2C2;" d="M21.671,194.92l1,2c0.703,1.184,2.226,1.585,3.42,0.9c1.166-0.716,1.562-2.223,0.9-3.42l-1-2   c-0.703-1.184-2.226-1.585-3.42-0.9C21.405,192.216,21.009,193.723,21.671,194.92z"/>
	<path style="fill:#EAE2C2;" d="M33.571,178.32l2,1c1.193,0.696,2.724,0.293,3.42-0.9c0.696-1.193,0.293-2.724-0.9-3.42l-2-1   c-1.193-0.696-2.724-0.293-3.42,0.9C31.975,176.093,32.378,177.624,33.571,178.32z"/>
	<path style="fill:#EAE2C2;" d="M36.071,192.82l2,1.5c0.584,0.34,1.279,0.43,1.93,0.25c0.625-0.179,1.158-0.591,1.49-1.15   c0.338-0.584,0.428-1.279,0.25-1.93c-0.208-0.61-0.613-1.134-1.15-1.49l-2-1.5c-0.584-0.339-1.279-0.43-1.93-0.25   c-0.625,0.179-1.158,0.591-1.49,1.15c-0.338,0.584-0.428,1.279-0.25,1.93C35.129,191.94,35.533,192.464,36.071,192.82z"/>
	<path style="fill:#EAE2C2;" d="M28.111,211.95l0.51,1c0.703,1.184,2.226,1.585,3.42,0.9c1.166-0.716,1.562-2.223,0.9-3.42l-0.51-1   c-0.703-1.184-2.226-1.585-3.42-0.9C27.845,209.246,27.448,210.753,28.111,211.95z"/>
	<path style="fill:#EAE2C2;" d="M14.061,220.43l1.5,1.5c0.978,0.978,2.562,0.978,3.54,0s0.978-2.562,0-3.54l0,0l-1.5-1.5   c-0.978-0.978-2.562-0.978-3.54,0S13.083,219.452,14.061,220.43z"/>
	<path style="fill:#EAE2C2;" d="M24.061,236.93l1,1c0.978,0.978,2.562,0.978,3.54,0c0.978-0.978,0.978-2.562,0-3.54l-1-1   c-0.978-0.978-2.562-0.978-3.54,0C23.083,234.368,23.083,235.952,24.061,236.93z"/>
	<path style="fill:#EAE2C2;" d="M30.561,226.43l0.31,0.31c2.28,2.28,5.81-1.26,3.54-3.54l-0.31-0.31   C31.821,220.61,28.291,224.15,30.561,226.43l0.31,0.31c2.28,2.28,5.81-1.26,3.54-3.54l-0.31-0.31   C31.821,220.61,28.291,224.15,30.561,226.43z"/>
	<path style="fill:#EAE2C2;" d="M42.081,246.3l1.51,1c1.194,0.685,2.717,0.284,3.42-0.9c0.662-1.197,0.266-2.704-0.9-3.42l-1.51-1   c-1.194-0.685-2.717-0.284-3.42,0.9C40.519,244.077,40.915,245.584,42.081,246.3z"/>
	<path style="fill:#EAE2C2;" d="M53.571,236.82l1,0.5c1.193,0.696,2.724,0.293,3.42-0.9c0.696-1.193,0.293-2.724-0.9-3.42l-1-0.5   c-1.193-0.696-2.724-0.293-3.42,0.9C51.975,234.593,52.378,236.124,53.571,236.82z"/>
	<path style="fill:#EAE2C2;" d="M65.301,254.66c3.22,0,3.22-5,0-5S62.081,254.66,65.301,254.66z"/>
	<path style="fill:#DB6653;" d="M59.461,98.15c0.164-20.302,8.353-39.715,22.78-54c3-3-1.62-7.55-4.6-4.6   c-15.63,15.513-24.503,36.569-24.69,58.59c0,4.18,6.46,4.19,6.5,0L59.461,98.15z"/>
	<path style="fill:#DB6653;" d="M87.581,89.03c0.875,5.813,3.579,11.197,7.72,15.37c2.93,3,7.53-1.6,4.6-4.6   c-3.325-3.398-5.456-7.785-6.07-12.5c-0.6-4.12-6.87-2.37-6.27,1.73L87.581,89.03z"/>
	<path style="fill:#DB6653;" d="M127.571,90.4c1.462,4.737,4.712,8.718,9.06,11.1c3.68,2,7-3.61,3.28-5.61   c-2.906-1.522-5.092-4.132-6.08-7.26c-1.25-4-7.53-2.28-6.27,1.73L127.571,90.4z"/>
	<path style="fill:#574730;" d="M51.531,125.5c0.594,15.711,2.207,31.368,4.83,46.87c0.69,4.12,7,2.37,6.27-1.73   c-2.509-14.931-4.046-30.01-4.6-45.14C57.871,121.33,51.371,121.31,51.531,125.5z"/>
	<path style="fill:#CF4327;" d="M205.861,139.5c-25.18,3.44-50.35,6.11-75.66,8.38c-11.14,1-22.66,3-33.85,2.67   c-5.13-0.15-11-1.12-14.77-4.95c-3.93-4-4.78-10.47-1.41-15c1.92-2.58-2.41-5.08-4.32-2.52c-5.62,7.54-2.28,18.69,5.32,23.54   c10.2,6.51,24.08,3.48,35.29,2.48c30.33-2.72,60.55-5.66,90.73-9.78C210.371,143.84,209.011,139.02,205.861,139.5z"/>
</g>

</g>
</g>

<!-- ITEM 3 -->
<g transform="translate(101.0 25.0) scale(1.3147208121827412 1.3123969245778262) rotate(335.5993327909089 98.49999999999999 86.102)">
<g transform="translate(-0.0 -0.0)">
<title>witch_hat</title><g id="Layer_2-i3" data-name="Layer 2"><g id="witch_hat-i3"><path d="M150.25,133.6c-6.942-8.631-16.059-23.181-20.823-44.145-5-22.015-12.171-28.386-19.691-33.454-3.759-2.531-5.024-3.383-5.024-9.735,0-14.787,2.735-23.987,7.7-25.9,8.051-3.113,25.027,10.175,34.5,20.608a5.325,5.325,0,0,0,8.591-6.175C139.328,5.845,122.447-4.7,94.063,1.894c-23.2,5.4-43.385,13.264-44.369,31.946-.98,18.6-3.886,32.547.161,39.444,3.569,6.08,6.938,11.823,6.938,28,0,12.041-4.72,21.874-9.033,28.351C22.822,133.493,0,140.785,0,150.218c0,15.6,69.6,20.466,93.581,21.446,25.975,1.06,101.379,1.949,103.328-11.7C198.267,150.46,184.424,140.42,150.25,133.6Z" fill="#3b301b"/><path d="M151.388,134.984c-56.81,25.841-93.548,7.934-106.806-1.029a54.974,54.974,0,0,0,3.3-4.526A51.807,51.807,0,0,0,56.722,103.5a101.041,101.041,0,0,0,79.243,6.087,105.756,105.756,0,0,0,9.283,17.18A94.126,94.126,0,0,0,151.388,134.984Z" fill="#e5a024"/><path d="M94.063,150.926a19.474,19.474,0,1,1,19.473-19.473A19.5,19.5,0,0,1,94.063,150.926Zm0-31.947a12.474,12.474,0,1,0,12.473,12.474A12.488,12.488,0,0,0,94.063,118.979Z" fill="#cf4327"/></g></g>
</g>
</g>

<!-- ITEM 4 -->
<g transform="translate(976.0 318.0) scale(0.17894736842105263 0.17894736842105263) rotate(0.0 190.0 190.0)">
<g transform="translate(-0.0 -0.0)">


<g id="Layer_1_1_-i4">
	<g>
		<circle cx="190" cy="190" r="185" style="fill:#ffffff;"/>
		<path d="M190,380C85.2,380,0,294.8,0,190C0,85.2,85.2,0,190,0c104.8,0,190,85.2,190,190C380,294.8,294.8,380,190,380z     M190,10C90.7,10,10,90.7,10,190c0,99.3,80.7,180,180,180c99.3,0,180-80.7,180-180C370,90.7,289.3,10,190,10z" style="fill:#ffffff;"/>
	</g>
</g>
<g id="Isolation_Mode-i4">
</g>

</g>
</g>

<!-- ITEM 5 -->
<g transform="translate(1157.0 322.0) scale(-1.4213478853087653 1.4207885664819917) rotate(-17.414769142564516 71.05931 48.56458)">
<g transform="translate(-0.0 -0.0)">

  
  <title>Raven</title>
  <g id="Слой_2-i5" data-name="Слой 2">
    <g id="Слой_1-2-i5" data-name="Слой 1">
      <g>
        <path d="M138.20544,25.91865a19.87722,19.87722,0,0,0-7.716-2.46672,19.1997,19.1997,0,0,0-7.29246.74478,26.07367,26.07367,0,0,0-6.53154,3.02322,30.54525,30.54525,0,0,0-2.93089,2.106,22.653,22.653,0,0,0-2.51389,2.35473,13.02764,13.02764,0,1,1-13.015-21.31329l2.3042-.61036a47.3422,47.3422,0,0,1,5.95152-1.16659,50.92467,50.92467,0,0,1,5.879-.434,42.4184,42.4184,0,0,1,11.68084,1.3677,31.46433,31.46433,0,0,1,10.46758,4.93346,27.50045,27.50045,0,0,1,7.26129,7.94724,2.56753,2.56753,0,0,1-3.4428,3.57092Z" style="         fill: #e59f22;       "/>
        <ellipse cx="92.65549" cy="19.55157" rx="25.04268" ry="19.51856" transform="translate(-1.15409 6.62612) rotate(-4.07035)" style="         fill: #3b301b;       "/>
        <path d="M71.98247,65.89071C51.09545,89.791,21.22211,95.60526,4.73047,97.11049A4.33129,4.33129,0,0,1,.23614,91.40181C9.82165,63.32613,22.57256,44.29675,31.44873,33.0121,39.68555,22.5403,47.96539,14.44127,60.02531,9.51741c3.64934-1.49,22.964-9.37573,30.46769-1.95489C99.84842,16.81462,88.24154,47.286,71.98247,65.89071Z" style="         fill: #3b301b;       "/>
        <ellipse cx="97.08357" cy="17.88176" rx="10.96042" ry="10.05956" transform="translate(-1.02439 6.93622) rotate(-4.07035)" style="         fill: #ebe2c3;       "/>
        <circle cx="98.10542" cy="16.68014" r="6.15585" style="         fill: #d04123;       "/>
        <path d="M57.54318,73.82426a7.84834,7.84834,0,0,1-2.83041-.50873,9.20922,9.20922,0,0,1-5.13461-5.581A11.12145,11.12145,0,0,1,39.39473,67.285,10.861,10.861,0,0,1,34.728,59.43156a14.06713,14.06713,0,0,1,.29349-5.324,12.84163,12.84163,0,0,1-3.78275-1.614,9.5341,9.5341,0,0,1-4.53929-6.39512,9.292,9.292,0,0,1,2.00515-6.95231,13.80368,13.80368,0,0,1,9.2863-5.21881,3.86336,3.86336,0,0,1,.98252,7.664c-3.21405.41223-4.62071,2.65924-4.63421,3.33279a2.83674,2.83674,0,0,0,1.27163,1.18307,6.11688,6.11688,0,0,0,4.67274.39A3.86328,3.86328,0,0,1,44.247,52.78981a6.9347,6.9347,0,0,0-1.86456,5.58774,3.50169,3.50169,0,0,0,1.1374,2.3737c.98729.62351,4.08894.26171,6.25375-2.62668a3.86333,3.86333,0,0,1,6.86811,3.12985c-.55758,2.59213.36974,4.48886.855,4.84589.79468.09373,3.46623-1.09531,4.276-4.714a3.86334,3.86334,0,1,1,7.54007,1.68784,14.07138,14.07138,0,0,1-6.90942,9.463A10.37625,10.37625,0,0,1,57.54318,73.82426ZM34.33916,44.9491h0Z" style="         fill: #574730;       "/>
        <path d="M66.42439,54.56065a10.22989,10.22989,0,0,1-10.37485-10.691,12.05368,12.05368,0,0,1-3.85026-1.60086,10.06264,10.06264,0,0,1-4.66678-6.79028c-.63463-4.04287,1.67235-8.37526,5.74064-10.77994a3.86321,3.86321,0,0,1,3.93168,6.65128c-1.41263.83519-2.15845,2.17156-2.03931,2.93049a2.47714,2.47714,0,0,0,1.19817,1.48014,4.82994,4.82994,0,0,0,3.92413.48252,3.8635,3.8635,0,0,1,4.139,6.04445,2.98749,2.98749,0,0,0-.06792,3.662,3.05314,3.05314,0,0,0,4.14415.133,3.86355,3.86355,0,0,1,4.92055,5.95788A10.98142,10.98142,0,0,1,66.42439,54.56065Z" style="         fill: #574730;       "/>
        <path d="M17.28006,77.10463a3.86466,3.86466,0,0,1-3.43366-5.62905l4.38282-8.5353a3.86332,3.86332,0,0,1,6.87368,3.529l-4.38282,8.5361A3.86351,3.86351,0,0,1,17.28006,77.10463Z" style="         fill: #574730;       "/>
        <path d="M25.80226,81.9112a3.86337,3.86337,0,0,1-2.61992-6.70331l5.077-4.68226a3.8633,3.8633,0,0,1,5.23826,5.67988l-5.077,4.68226A3.84862,3.84862,0,0,1,25.80226,81.9112Z" style="         fill: #574730;       "/>
        <path d="M36.502,85.78886a3.8641,3.8641,0,0,1-1.361-7.4805l6.83873-2.57227a3.86332,3.86332,0,1,1,2.7204,7.2319l-6.83873,2.57226A3.85871,3.85871,0,0,1,36.502,85.78886Z" style="         fill: #574730;       "/>
        <path d="M85.138,78.09072a2.23789,2.23789,0,0,1-2.1513-2.85344,10.0937,10.0937,0,0,0-2.59332-10.32243,9.69347,9.69347,0,0,0-6.583-2.27878l-.06156.00079a2.23669,2.23669,0,0,1-.05917-4.47257,14.23035,14.23035,0,0,1,9.68383,3.4146A14.58162,14.58162,0,0,1,87.28689,76.47,2.23748,2.23748,0,0,1,85.138,78.09072Z" style="         fill: #3b301b;       "/>
        <path d="M75.78376,80.12447a2.23871,2.23871,0,0,1-2.12906-2.92453c.12669-.392,1.17712-3.90189-.8471-6.4674a5.8793,5.8793,0,0,0-2.36813-1.76528,2.23672,2.23672,0,0,1,1.74105-4.12072,10.43977,10.43977,0,0,1,4.13859,3.11476c3.39,4.29585,1.92175,9.59408,1.59292,10.61274A2.23829,2.23829,0,0,1,75.78376,80.12447Z" style="         fill: #3b301b;       "/>
      </g>
    </g>
  </g>

</g>
</g>

<!-- ITEM 6 -->
<g transform="translate(779.0 213.0) scale(0.3309960676485035 0.3309960676485035) rotate(0.0 42.296575 42.296575)">
<g transform="translate(-0.0 -0.0)">

  
  <title>circle_red</title>
  <g id="Слой_2-i6" data-name="Слой 2">
    <g id="Слой_2-2-i6" data-name="Слой 2">
      <circle cx="42.29658" cy="42.29658" r="42.29658" style="         fill: #d04123;       "/>
    </g>
  </g>

</g>
</g>

<!-- ITEM 7 -->
<g transform="translate(945.0 230.0) scale(0.271889626996985 0.271889626996985) rotate(0.0 42.296575 42.296575)">
<g transform="translate(-0.0 -0.0)">

  
  <title>circle_red</title>
  <g id="Слой_2-i7" data-name="Слой 2">
    <g id="Слой_2-2-i7" data-name="Слой 2">
      <circle cx="42.29658" cy="42.29658" r="42.29658" style="         fill: #d04123;       "/>
    </g>
  </g>

</g>
</g>

              </svg>