<?xml version="1.0" encoding="UTF-8"?><svg version="1.1" id="Layer_1" xmlns="http://www.w3.org/2000/svg" xmlns:xlink="http://www.w3.org/1999/xlink" x="0px" y="0px" viewBox="0 0 758.737 659.086" style="enable-background:new 0 0 758.737 659.086;" xml:space="preserve" width="759px" height="660px">
<g>
	<path style="fill:#CF4327;" d="M134.235,254.818c48.149-28.575,104.594-38.831,159.438-50.102s111.172-24.845,155.93-58.483
		S524.759,53.65,508.743,0c83.222,16.519,166.444,33.039,249.666,49.558c2.641,71.466-9.981,149.711-62.638,198.102
		c-40.275,37.012-96.71,49.886-150.762,58.273c-54.052,8.387-110.227,14.232-157.806,41.218
		c-47.579,26.985-84.368,82.36-70.391,135.243c-2.709-10.267-114.521-28.124-129.407-31.78
		c-35.179-8.639-80.767-12.525-108.872-37.819C20.825,360.858,84.86,284.12,134.235,254.818z"/>
	<path style="fill:#CF4327;" d="M324.061,378.841c30.172,1.554,66.32,15.924,68.842,46.03c2.401,28.651-26.869,48.271-50.954,63.972
		c-61.667,40.201-112.432,96.906-145.813,162.498c-4.951,9.729-18.513,10.424-24.554,1.331
		c-27.565-41.485-39.625-103.24-26.904-137.077c-49.873,8.132-90.329,45.792-118.84,81.615
		c-15.098,18.971-26.765,14.722-25.781-9.503c0.993-24.455,5.872-48.723,15.913-71.077c16.363-36.428,46.355-69.403,76.529-94.982
		c30.105-25.52,66.972-48.509,105.395-58.926c22.165-6.009,28.095-2.236,48.068,4.893
		C272.375,377.043,296.197,377.406,324.061,378.841z"/>
	<path style="fill:#DB6653;" d="M130.016,419.165c-21.143,0-40.965-15.043-47.78-36.645c-5.497-17.428-2.495-37.566,8.236-55.253
		c9.248-15.241,22.618-26.403,33.233-34.426c40.063-30.275,87.462-50.387,137.071-58.161c10.91-1.712,21.145,5.75,22.854,16.663
		c1.71,10.913-5.75,21.145-16.663,22.855c-43.121,6.757-84.321,24.239-119.146,50.555c-7.771,5.873-17.426,13.825-23.152,23.263
		c-4.686,7.723-6.289,16.124-4.287,22.47c1.5,4.752,6.216,8.878,9.892,8.672c11.01-0.649,20.489,7.772,21.133,18.798
		c0.645,11.027-7.771,20.489-18.799,21.133C131.743,419.14,130.876,419.165,130.016,419.165z"/>
	<path style="fill:#DB6653;" d="M571.297,274.45c-4.011,0-8.025-0.185-12.045-0.557c-10.998-1.02-19.088-10.763-18.068-21.761
		c1.021-10.999,10.778-19.082,21.762-18.068c30.214,2.799,60.915-9.852,84.236-34.717c24.044-25.635,39.672-64.547,41.805-104.091
		c0.596-11.029,10.029-19.475,21.048-18.894c11.029,0.595,19.488,10.019,18.894,21.048c-2.664,49.392-21.825,96.521-52.57,129.3
		C647.533,257.443,609.8,274.45,571.297,274.45z"/>
</g>
</svg>