<?xml version="1.0" encoding="UTF-8"?><svg version="1.1" xmlns="http://www.w3.org/2000/svg" xmlns:xlink="http://www.w3.org/1999/xlink" viewBox="0 0 1600 1200" width="1600" height="1200" x="0px" y="0px">
              
              <!-- ITEM 0 -->
<g>
    <defs>
        
        <clipPath id="clip-path-id-viewbox-item-0">
            <rect x="0.0" y="0.0" width="800.0" height="600.0"/>
        </clipPath>
    </defs>
    <g transform="translate(256.0 204.0) rotate(0.0 546.0 409.5) scale(1.365 1.365)">
        <g clip-path="url(#clip-path-id-viewbox-item-0)" transform="translate(-0.0 -0.0)">

  
  <title>color3</title>
  <g id="Слой_2-i0" data-name="Слой 2">
    <g id="Слой_1-2-i0" data-name="Слой 1">
      <rect width="800" height="600" rx="138.28443" style="         fill: #ebe2c3;       "/>
    </g>
  </g>

        </g>
    </g>
</g>

<!-- ITEM 1 -->
<g>
    <defs>
        
        <clipPath id="clip-path-id-viewbox-item-1">
            <rect x="0.0" y="0.0" width="423.64" height="723.43"/>
        </clipPath>
    </defs>
    <g transform="translate(195.0 111.0) rotate(0.0 266.5 453.0) scale(1.2581437069209707 1.2523671951674662)">
        <g clip-path="url(#clip-path-id-viewbox-item-1)" transform="translate(-0.0 -0.0)">
<title>Palm_tree_1</title><g id="Layer_2-i1" data-name="Layer 2"><g id="Palm_tree_1-i1"><path d="M295.7,723.43H282.22a9.05,9.05,0,0,1-8.89-7.37L258.12,635.6a11.39,11.39,0,0,1,9.77-13l34.24-4.52A11.38,11.38,0,0,1,315,630.25l-10.28,85.21A9.06,9.06,0,0,1,295.7,723.43Z" style="fill:#3b301b;"/><path d="M298.8,636.82l-29.51,2.44-20-83a11.39,11.39,0,0,1,8.66-13.74l33.76-7.33a11.38,11.38,0,0,1,13.8,11.06Z" style="fill:#3b301b;"/><path d="M297.06,548.1l-35.71,7.84L235,474.75a11.39,11.39,0,0,1,7.57-14.38l33.08-9.92a11.38,11.38,0,0,1,14.62,10Z" style="fill:#3b301b;"/><path d="M229.09,215.55l-36.22,5-19.79-83a11.4,11.4,0,0,1,8.69-13.73l33.77-7.24a11.37,11.37,0,0,1,13.77,11.1Z" style="fill:#3b301b;"/><path d="M277.24,459.57l-33.75,9.15-33.82-74.4A11.37,11.37,0,0,1,217.24,380L253,371.51a11.39,11.39,0,0,1,14.62,10Z" style="fill:#3b301b;"/><path d="M254.83,384.71l-34.43,6.12-29-86.66a11.38,11.38,0,0,1,8.82-13.65l36.32-5.23a11.37,11.37,0,0,1,13.67,11.22Z" style="fill:#3b301b;"/><path d="M236.92,301.29l-34.83,3.17-21.52-84.55a11.39,11.39,0,0,1,10-12.85l39.94-6.39A11.38,11.38,0,0,1,243.13,213Z" style="fill:#3b301b;"/><path d="M184.85,72.19c-43.12-21.75-106.22-21-132.08-13.42S44.32,71,69.08,75c27.8,4.48,76.37,31.54,104.14,38.05C183.1,115.36,270.8,115.56,184.85,72.19Z" style="fill:#cf4327;"/><path d="M209.1,66.31C235.71,26,276.22,4.08,311.72.66c39.33-3.78,22,9.42-3.62,20.59C282,32.62,265.91,80.81,244.27,99.66,236.57,106.37,156.06,146.67,209.1,66.31Z" style="fill:#cf4327;"/><path d="M154.81,70.81c-54.34-2.55-118.47,38.92-141.32,66s-2.85,22.39,24.33,12.06c30.52-11.6,92.94-5.19,124.39-14C173.4,131.78,263.12,75.88,154.81,70.81Z" style="fill:#e5a024;"/><path d="M225,85c68.23-11.83,154.73,18.28,187.21,41.2s-9.95,25.46-58.18,10.74c-38.8-11.84-88.88,16.15-129.75,12.85C209.77,148.58,89,108.55,225,85Z" style="fill:#e5a024;"/><path d="M232.4,108.2c64.63,3.86,138.45,37.41,164.06,57.39s2.14,14.89-29.55,5.4c-35.59-10.67-110-12.81-146.87-21.73C206.93,146.09,103.55,100.53,232.4,108.2Z" style="fill:#cf4327;"/><path d="M227.67,101.3c63,15.28,125.06,76.1,143.82,109.59s-2.86,22.47-31.18,3.66c-31.79-21.12-105.06-35.32-138.69-54C189.66,153.87,102.18,70.83,227.67,101.3Z" style="fill:#e5a024;"/><path d="M230.88,50.06c48.24-25.14,123.86-14.44,156,.53s12,19.12-17,21.17c-32.57,2.29-86.52,34.33-118.75,39.58C239.62,113.2,134.72,100.16,230.88,50.06Z" style="fill:#e5a024;"/><path d="M118.23,115.46c-52.46,14.38-100.62,73.65-114,106.47s6.92,27.22,29.58,9c25.44-20.47,84.06-38.72,111.26-56.79C154.77,167.69,222.8,86.78,118.23,115.46Z" style="fill:#e5a024;"/><path d="M185.72,109.33c-34.66-4.42-79.13,32.27-97.84,62.83s-23.82,50.17-30.32,64.17,3,13.41,11.5,3.91,63.44-50.74,86.55-62.78S226.48,114.52,185.72,109.33Z" style="fill:#cf4327;"/><path d="M146.88,119.86c-42.94,33.39-64.7,106.6-64.45,142s18.79-9.36,47.41-33.09C155,208,176,190.86,194.18,163.74,200.65,154.09,232.47,53.29,146.88,119.86Z" style="fill:#e5a024;"/><path d="M19.39,220.41a3.51,3.51,0,0,1-2.74-5.68c.09-.19.2-.44.33-.74,8.79-19.76,29-41.48,60-64.55a3.5,3.5,0,1,1,4.18,5.61C60.49,170.42,33.7,193.6,23.38,216.83c-.73,1.65-1.26,2.84-2.84,3.39A3.55,3.55,0,0,1,19.39,220.41Zm-1.16-6.8Zm0,0Zm0,0h0Z" style="fill:#f3bc63;"/><path d="M336.72,106.66a3.43,3.43,0,0,1-1.08-.17c-26.41-8.57-62.91-17.63-86.77-12.14-1.41.32-2.44.56-3.67,0a3.5,3.5,0,0,1,1.52-6.65l.58-.13c25.43-5.85,63.25,3.46,90.5,12.3a3.5,3.5,0,0,1-1.08,6.83ZM248.24,88h0Zm0,0Zm0,0Z" style="fill:#f3bc63;"/><path d="M27.61,142.56A3.5,3.5,0,0,1,25.93,136c.33-.26,1.06-.89,1.76-1.5A246,246,0,0,1,121.1,83.4,3.5,3.5,0,0,1,123,90.12a239.14,239.14,0,0,0-90.76,49.66c-2.62,2.27-3.09,2.68-4.41,2.77Zm-.25-7Z" style="fill:#f3bc63;"/><path d="M93.26,242.23a3.5,3.5,0,0,1-3.13-5.07c.14-.44.45-1.54.74-2.61,16.93-61,44-96.29,63.77-115.17a3.5,3.5,0,1,1,4.84,5.06c-19.11,18.28-45.36,52.54-61.86,112-1.06,3.81-1.19,4.3-2.24,5.1A3.51,3.51,0,0,1,93.26,242.23Z" style="fill:#f3bc63;"/><path d="M342.06,189.74a3.48,3.48,0,0,1-2.34-.89c-.67-.6-67.06-59.78-104.67-67.17a3.5,3.5,0,0,1,1.35-6.87c39.49,7.76,105.21,66.34,108,68.83a3.5,3.5,0,0,1-2.33,6.1Z" style="fill:#f3bc63;"/><path d="M229.32,68.08a3.5,3.5,0,0,1-1.38-6.72c74.68-31.85,128.4-12.89,130.65-12.07a3.5,3.5,0,0,1-2.4,6.58h0c-.52-.19-53.53-18.76-125.5,11.93A3.53,3.53,0,0,1,229.32,68.08Z" style="fill:#f3bc63;"/><path d="M196.29,226.51c-4.73,0-7-1.29-7.61-1.7l3.92-5.8-.16-.1c.05,0,4.2,2.11,15.5-1.7a3.5,3.5,0,0,1,2.24,6.63A44,44,0,0,1,196.29,226.51Z" style="fill:#574730;"/><path d="M210.09,312.91a42,42,0,0,1-8.23-.71,3.5,3.5,0,0,1,1.5-6.84,47.36,47.36,0,0,0,22.74-2.1,3.5,3.5,0,1,1,2.24,6.63A57.21,57.21,0,0,1,210.09,312.91Z" style="fill:#574730;"/><path d="M227.76,401.91a23,23,0,0,1-6.71-.81,3.5,3.5,0,0,1,2.13-6.67c.2.06,6.84,1.88,18.88-2.18a3.5,3.5,0,0,1,2.24,6.63A52,52,0,0,1,227.76,401.91Z" style="fill:#574730;"/><path d="M249.94,481.12a22.49,22.49,0,0,1-6.72-.82,3.5,3.5,0,0,1,2.14-6.66c.19.05,6.83,1.88,18.87-2.18a3.5,3.5,0,1,1,2.24,6.63A52,52,0,0,1,249.94,481.12Z" style="fill:#574730;"/><path d="M272.51,567.58a38.9,38.9,0,0,1-16.08-3.47,3.5,3.5,0,0,1,3.12-6.27c.2.1,13.51,6.46,26.48-.71a3.5,3.5,0,1,1,3.39,6.12A34.58,34.58,0,0,1,272.51,567.58Z" style="fill:#574730;"/><path d="M282.51,648.58a39,39,0,0,1-16.09-3.47,3.5,3.5,0,0,1,3.13-6.27h0c.13.07,13.47,6.48,26.48-.71a3.5,3.5,0,1,1,3.38,6.12A34.52,34.52,0,0,1,282.51,648.58Z" style="fill:#574730;"/><path d="M113.72,72.08a3.26,3.26,0,0,1-1.14-.2c-22.48-7.8-36.63-4-36.77-3.94a3.5,3.5,0,0,1-1.94-6.72c.65-.19,16.23-4.55,41,4a3.5,3.5,0,0,1-1.15,6.81Z" style="fill:#db6653;"/><path d="M272.39,30.72a3.43,3.43,0,0,1-2.14-.74,3.48,3.48,0,0,1-.65-4.85c.72-.95,7.72-9.45,32.41-17.22a3.5,3.5,0,0,1,2.1,6.67c-22.57,7.11-28.9,14.74-29,14.82A3.52,3.52,0,0,1,272.39,30.72Z" style="fill:#db6653;"/></g></g>
        </g>
    </g>
</g>

<!-- ITEM 2 -->
<g>
    <defs>
        
        <clipPath id="clip-path-id-viewbox-item-2">
            <rect x="0.0" y="0.0" width="184.797" height="278.703"/>
        </clipPath>
    </defs>
    <g transform="translate(852.0 329.0) rotate(47.195786899171914 197.5 298.0) scale(2.137480586806063 2.1384771602745576)">
        <g clip-path="url(#clip-path-id-viewbox-item-2)" transform="translate(-0.0 -0.0)">

<g>
	<path style="fill:#CF4327;" d="M73.056,278.648h10.23c3.22,0,3.22-5,0-5h-10.23C69.836,273.648,69.836,278.648,73.056,278.648z"/>
	<path style="fill:#CF4327;" d="M43.366,278.648h10.21c3.22,0,3.22-5,0-5h-10.21C40.146,273.648,40.146,278.648,43.366,278.648z"/>
	<g>
		<path style="fill:#CF4327;" d="M32.586,168.138c-3.13-5-6.26-10.21-6-16.35c0.14-3.22-4.86-3.21-5,0    c-0.31,7,3.08,13.09,6.67,18.88c1.69,2.73,6,0.22,4.32-2.52L32.586,168.138z"/>
		<path style="fill:#CF4327;" d="M34.106,163.338c-1.517-1.957-2.665-4.173-3.39-6.54c-1-3.06-5.79-1.75-4.82,1.33    c1.008,3.18,2.595,6.146,4.68,8.75c0.979,0.974,2.561,0.974,3.54,0c0.947-0.99,0.947-2.55,0-3.54L34.106,163.338z"/>
		<path style="fill:#3B301B;" d="M172.286,80.898c6.856-5.153,10.07-13.835,8.22-22.21c-2.24-9.43-10.88-15.83-20.16-17    c5.562-8.044,4.065-19.002-3.45-25.26c-8.44-6.94-18.28-4.5-26.28,1c-0.18-9.08-8.44-17.16-18.12-17.42    c-11-0.29-22.06,7.77-25.12,18.19c-2.103-3.072-5.403-5.116-9.09-5.63c-6.17-0.72-12.18,2.86-16.52,6.91    c-7.61,7.1-10.72,18.51-6.16,27.46c-2.126,0.282-4.126,1.171-5.76,2.56c-4.39,3.73-5,9.65-4.18,15    c3.32,14.28,16.2,13.93,28.26,14.51c7.25,0.35,13.73,2.56,18.79,7.93c4.21,4.48,7,10.12,9.9,15.48s5.91,10.59,10.07,15    c5.77,6.09,13.49,9.32,21.53,11.2c16.61,3.88,36.28,1.93,46.51-13.42C188.576,103.388,184.706,86.548,172.286,80.898z"/>
		<path style="fill:#CF4327;" d="M174.496,197.508c-0.47,2.67-1,5.31-1.69,7.9c-0.08,0.32-0.18,0.63-0.26,0.95    c-4.62,21.54-26.52,24.22-45.26,23.85c-9.34-0.18-19.39-1.57-27.54,2.93c-4.25,2.35-6.73,6.23-8.16,10.79    c-2.73,8.7-1.61,19.86-1.6,27.53c0,9.67-15,9.65-15,0c0-10.35-0.5-21.63,2.5-31.69c1.305-4.565,3.501-8.827,6.46-12.54    c4.66-5.77,11.06-9,18-10.62c-0.2-0.31-0.41-0.62-0.6-0.94c-11.27,1.52-22.68,4.12-31.26,11.42    c-2.147,1.817-3.958,3.996-5.35,6.44c-6.29,10.9-4.17,25.79-4.1,37.93c0,9.67-15,9.65-15,0c-0.08-15.44-1.45-32.51,6.34-45.89    c1.981-3.42,4.515-6.489,7.5-9.08c10.44-9.12,23.37-12.84,36.66-15c-0.409-2.202-0.65-4.432-0.72-6.67c0-0.46,0-0.91,0-1.36    c0-8.69,2.1-17.22,3.25-25.84c1.84-13.82,0-26.08-2-39.56c-0.39-2.61,2.84-4,4.24-2.57l29.88-31.15c-1.8-2,0.54-5.72,3-3.92    c5.45,4,11.49,7.21,16.86,11.37c5.399,4.342,9.937,9.657,13.38,15.67c7.54,12.65,11,27.29,12.13,41.86    C177.18,172.067,176.622,184.895,174.496,197.508z"/>
		<path style="fill:#CF4327;" d="M140.856,49.438c-11.82-17.83-36.94-24.81-56-14.59c-17,9.12-25.72,30.17-21,48.68    c1.17,4.57,3.67,9.81-0.19,13.82c-1.69,1.75-3.84,3-5.16,5.12c-2.76,4.42-1.44,10.57,0,15.24c2.94,9.47,10.18,13.47,19.66,14.28    c13,0.72,25.85-2.8,38-7.12c9.31-3.32,18.61-8.06,25.22-15.6C155.406,93.328,151.986,66.228,140.856,49.438z"/>
		<path style="fill:#3B301B;" d="M69.536,100.228c-2.37-4-7.5-3.22-10.66-0.69c-3.85,3.08-4.63,8.22-2.91,12.61    c0.057,0.205,0.137,0.403,0.24,0.59c0.091,0.204,0.209,0.396,0.35,0.57C62.106,121.818,73.886,107.578,69.536,100.228z"/>
		<path style="fill:#CF4327;" d="M76.926,50.828l-9.4,16.3c-1.61,2.79,2.71,5.31,4.32,2.52l9.4-16.3    C82.856,50.558,78.536,48.038,76.926,50.828z"/>
		<path style="fill:#3B301B;" d="M40.896,141.938c-5.66-7-11.52-13.83-17-21c-2.67-3.41-5.41-7.68-8.82-10.38    c-1.4-1.11-2.74-1.62-4.49-0.92c-3.17,1.26-7,5.16-9,7.74c-3.56,4.5-0.42,7.52,2.52,11.69c4.665,6.447,9.721,12.602,15.14,18.43    c2.68,3,5.32,5.89,7.85,9c2.13,2.6,4.41,5.79,7.28,7.66c2.1,1.36,3.64,1.11,5.61-0.19c2.874-1.835,5.391-4.176,7.43-6.91    C50.746,151.828,43.906,145.678,40.896,141.938z"/>
		<path style="fill:#EAE2C2;" d="M42.106,148.348c-8.473-10.753-17.303-21.21-26.49-31.37c-4.33-4.78-11.38,2.31-7.07,7.07    c9.187,10.16,18.017,20.617,26.49,31.37C39.036,160.468,46.036,153.348,42.106,148.348z"/>
		<path style="fill:#CF4327;" d="M105.026,152.388c-11.256,1.804-22.727-1.54-31.25-9.11c0.836-2.228,0.615-4.714-0.6-6.76    c-1.63-2.77-6-0.26-4.32,2.52c0.178,0.312,0.306,0.649,0.38,1c-0.642-1.139-1.482-2.155-2.48-3    c-0.956-0.996-2.539-1.028-3.535-0.071c-0.935,0.898-1.028,2.362-0.215,3.371c-7.39-6.45-18.69-9.56-27.37-4.13    c-2.72,1.7-0.21,6,2.52,4.32c7.5-4.69,17-1,22.83,4.79c-1.044,1.933-1.021,4.267,0.06,6.18c-1.471,0.862-3.281,0.915-4.8,0.14    c-2.85-1.49-5.38,2.82-2.52,4.32c3.488,1.822,7.711,1.479,10.86-0.88c12.318,10.343,28.61,14.648,44.43,11.74    C118.506,165.218,114.486,150.758,105.026,152.388z"/>
		<path style="fill:#3B301B;" d="M145.816,98.708c-7.1,20.42-26.85,32.83-48.3,31c-3.21-0.27-3.19,4.73,0,5    c23.562,2.041,45.48-12.248,53.12-34.63c1.06-3-3.77-4.35-4.82-1.33V98.708z"/>
		<path style="fill:#E5A024;" d="M124.626,146.268c-2.28-12.49-21.65-10.34-21,2.2c0.01,0.179,0.037,0.356,0.08,0.53    c0,0,0,0.09,0,0.13c1,5.62,6.31,10,12.09,9.08C121.376,157.318,125.666,151.948,124.626,146.268z"/>
		<path style="fill:#3B301B;" d="M110.986,131.958v10c0,3.22,5,3.22,5,0v-10C115.986,128.738,110.986,128.738,110.986,131.958z"/>
		<path style="fill:#EAE2C2;" d="M97.456,62.078c-8.33-3.57-16.4,1.19-20.08,8.91c-3.51,7.38-1.86,17.26,5.62,21.58    c8.26,4.78,18.2-1.51,21.83-9.19c0.043-0.104,0.08-0.211,0.11-0.32c0.052-0.09,0.099-0.184,0.14-0.28    C108.146,74.708,105.836,65.698,97.456,62.078z"/>
		<path style="fill:#3B301B;" d="M95.676,76.528c-3.79-3.13-9.76-3.4-13.39,0.12c-3.49,3.37-2.89,8.48,0.55,11.64    c3.296,3.227,8.423,3.647,12.2,1c0.18-0.101,0.347-0.222,0.5-0.36c0.16-0.126,0.304-0.27,0.43-0.43    C99.366,85.078,99.646,79.808,95.676,76.528z"/>
		<path style="fill:#3B301B;" d="M163.126,75.948l-32.73-44.51c1.45-1.17,1.56-3.87-0.75-4.33c-10.92-2.19-20.31-7.88-31.8-5.58    c-8.17,1.63-18.34,7-21.58,15.21c-2.64,6.66,0.86,13.6,7.29,16.34c7,3,14.34,1,20.23-3.22c0.94,12.23,12.09,21.54,24.44,19.37    c-2.1,9.42,2.42,20.13,11.86,23.82c11.13,4.35,24.06-3.12,26.94-14.4C167.666,76.168,164.746,74.828,163.126,75.948z"/>
		<path style="fill:#3B301B;" d="M89.126,118.078c4.505-3.955,9.625-7.147,15.16-9.45c2.93-1.22,1.64-6.06-1.33-4.82    c-6.33,2.604-12.189,6.233-17.34,10.74c-2.43,2.12,1.12,5.65,3.54,3.54L89.126,118.078z"/>
		<path style="fill:#3B301B;" d="M176.106,197.078c-0.078-0.391-0.253-0.755-0.51-1.06c-1.85-3.11-6-3.15-9.32-3.2    c-7.91-0.1-15.84,0.11-23.75,0.17c-15.72,0.12-31.44-1-47.13-0.71c-1.374,0.016-2.484,1.126-2.5,2.5c0.08,1.56,0.23,3.1,0.42,4.64    c-16.89,3.09-34.17,9.51-43.52,24.85c-0.668,1.197-0.27,2.707,0.9,3.42c4.18,2.78,8.41,5.46,12.76,8    c1.197,0.668,2.707,0.27,3.42-0.9c4.55-7.38,12.11-11.36,20.25-13.74c-5.73,4.668-9.914,10.96-12,18.05    c-0.336,1.33,0.436,2.688,1.75,3.08c4.567,1.804,9.285,3.197,14.1,4.16c1.329,0.33,2.684-0.439,3.08-1.75    c4.75-13.86,19.64-12.29,31.63-11.93c8.23,0.25,16.64,0,24.67-2c7.23-1.8,14.22-5.27,18.91-11.2    C173.546,213.998,177.596,204.158,176.106,197.078z"/>
		<path style="fill:#CF4327;" d="M144.286,162.448c-0.474-2.268-1.859-4.242-3.83-5.46c-3.71-2.12-8.2-0.95-10.92,2.83    c-10.695,14.618-26.947,24.177-44.92,26.42c-10.37,1.24-20.52-0.14-28.59-3.89c-4.39-1.948-8.258-4.905-11.29-8.63    c-0.655-0.938-1.209-1.944-1.65-3c-0.395-0.88-0.849-1.732-1.36-2.55c4.974-6.028,5.882-14.439,2.31-21.39    c-1.46-2.87-5.77-0.34-4.32,2.52c2.611,5.19,1.82,11.443-2,15.82c-1.95-0.776-3.956-1.405-6-1.88c-0.69-0.18-1.34-0.34-1.91-0.51    c-1.28-0.37-2.81-0.33-3.26,0.89v0.17c0,12.82,6.62,23.74,18.78,30.76c9.661,5.372,20.557,8.13,31.61,8    c2.173,0,4.357-0.1,6.55-0.3c23.956-2.224,45.771-14.725,59.8-34.27l0,0C144.396,166.363,144.76,164.349,144.286,162.448z"/>
		<path style="fill:#E5A024;" d="M150.756,124.228c2.958-2.485,6.123-4.713,9.46-6.66c2.77-1.63,0.26-6-2.52-4.32    c-3.696,2.181-7.198,4.673-10.47,7.45c-2.46,2.08,1.09,5.6,3.54,3.54L150.756,124.228z"/>
		<path style="fill:#E5A024;" d="M156.286,137.958c3.498-1.562,7.08-2.928,10.73-4.09c3.05-1,1.75-5.81-1.33-4.82    c-4.059,1.306-8.042,2.839-11.93,4.59c-2.93,1.32-0.39,5.63,2.52,4.32H156.286z"/>
		<path style="fill:#E5A024;" d="M160.286,151.078l9.69-1.49c1.328-0.374,2.108-1.747,1.75-3.08c-0.392-1.314-1.75-2.086-3.08-1.75    l-9.69,1.49c-1.328,0.374-2.108,1.747-1.75,3.08C157.598,150.642,158.956,151.413,160.286,151.078z"/>
		<path style="fill:#E5A024;" d="M161.656,167.628h11c3.22,0,3.22-5,0-5h-11C158.436,162.628,158.436,167.628,161.656,167.628z"/>
		<path style="fill:#E5A024;" d="M163.286,184.988c3.113-0.133,6.232-0.09,9.34,0.13c3.21,0.23,3.2-4.77,0-5    c-3.108-0.22-6.227-0.263-9.34-0.13C160.076,180.128,160.066,185.128,163.286,184.988z"/>
		<path style="fill:#E5A024;" d="M61.486,194.078v3.33c0,1.381,1.119,2.5,2.5,2.5c1.381,0,2.5-1.119,2.5-2.5v-3.33    c0-1.381-1.119-2.5-2.5-2.5C62.605,191.578,61.486,192.697,61.486,194.078z"/>
		<path style="fill:#E5A024;" d="M73.146,194.788c-0.01,1.371,0.252,2.731,0.77,4c0.396,1.311,1.751,2.08,3.08,1.75    c1.15-0.37,2.29-1.78,1.75-3.08c-0.209-0.487-0.373-0.993-0.49-1.51c0-0.12-0.023-0.24-0.07-0.36c0,0.22,0,0.24,0,0.06    c0-0.29,0-0.57,0-0.86c0-1.381-1.119-2.5-2.5-2.5s-2.5,1.119-2.5,2.5L73.146,194.788z"/>
		<path style="fill:#E5A024;" d="M86.836,195.388l1.33,2.33c0.696,1.193,2.227,1.596,3.42,0.9c1.193-0.696,1.596-2.227,0.9-3.42    l-1.33-2.33c-0.696-1.193-2.227-1.596-3.42-0.9C86.543,192.663,86.14,194.195,86.836,195.388z"/>
		<path style="fill:#E5A024;" d="M99.836,190.078l1.69,3c0.696,1.193,2.227,1.596,3.42,0.9c1.193-0.696,1.596-2.227,0.9-3.42l0,0    l-1.69-3c-0.696-1.193-2.227-1.596-3.42-0.9C99.543,187.353,99.14,188.885,99.836,190.078z"/>
		<path style="fill:#E5A024;" d="M113.566,184.208l1.67,1.33c0.482,0.45,1.111,0.709,1.77,0.73c0.663-0.003,1.298-0.265,1.77-0.73    c0.83-0.9,1.09-2.67,0-3.54l-1.67-1.33c-0.482-0.45-1.111-0.709-1.77-0.73c-0.663,0.003-1.298,0.265-1.77,0.73    C112.736,181.568,112.476,183.338,113.566,184.208z"/>
		<path style="fill:#E5A024;" d="M122.906,176.538c0.933,0.965,2.112,1.656,3.41,2c1.331,0.367,2.708-0.414,3.075-1.745    c0.367-1.331-0.414-2.708-1.745-3.075l0,0l-0.31-0.09c-0.253-0.093-0.203-0.067,0.15,0.08l-0.5-0.26l-0.2-0.13    c-0.22-0.153-0.18-0.12,0.12,0.1c-0.163-0.14-0.317-0.29-0.46-0.45c-0.981-0.968-2.559-0.968-3.54,0    c-0.952,0.988-0.952,2.552,0,3.54L122.906,176.538z"/>
		<path style="fill:#E5A024;" d="M132.966,167.588l1.67,0.66c0.651,0.18,1.346,0.089,1.93-0.25c1.192-0.696,1.594-2.227,0.898-3.42    c-0.33-0.565-0.868-0.978-1.498-1.15l-1.67-0.66c-0.651-0.18-1.346-0.089-1.93,0.25c-1.192,0.696-1.594,2.227-0.898,3.42    C131.797,167.002,132.335,167.415,132.966,167.588z"/>
		<path style="fill:#E5A024;" d="M139.006,155.848l1.66,0.67c0.651,0.18,1.346,0.089,1.93-0.25c1.193-0.695,1.596-2.226,0.901-3.419    c0,0,0-0.001-0.001-0.001c-0.356-0.537-0.88-0.942-1.49-1.15l-1.66-0.67c-0.651-0.18-1.346-0.089-1.93,0.25    c-1.193,0.695-1.596,2.226-0.901,3.419c0,0,0,0.001,0.001,0.001C137.872,155.235,138.396,155.639,139.006,155.848z"/>
		<path style="fill:#E5A024;" d="M119.916,81.608l4.67-2c1.184-0.703,1.585-2.226,0.9-3.42c-0.72-1.161-2.222-1.557-3.42-0.9    l-4.67,2c-1.184,0.703-1.585,2.226-0.9,3.42C117.215,81.869,118.718,82.264,119.916,81.608z"/>
		<path style="fill:#E5A024;" d="M121.746,94.208c1.887-1.442,3.999-2.563,6.25-3.32c3-1,1.73-5.86-1.33-4.82    c-3.058,1.049-5.917,2.604-8.46,4.6c-0.974,0.979-0.974,2.561,0,3.54C119.195,95.155,120.756,95.155,121.746,94.208    L121.746,94.208z"/>
		<path style="fill:#E5A024;" d="M127.066,105.858l8.72-7.6c2.43-2.12-1.12-5.64-3.54-3.54l-8.72,7.6    C121.096,104.438,124.646,107.958,127.066,105.858z"/>
		<path style="fill:#E5A024;" d="M137.126,109.248l4.67-6c0.937-0.994,0.937-2.546,0-3.54c-0.981-0.968-2.559-0.968-3.54,0l-4.67,6    c-0.937,0.994-0.937,2.546,0,3.54C134.567,110.216,136.144,110.216,137.126,109.248z"/>
		<path style="fill:#E5A024;" d="M50.286,190.458l-0.67,2c-0.358,1.333,0.422,2.706,1.75,3.08c1.33,0.336,2.688-0.436,3.08-1.75    l0.67-2c0.358-1.333-0.422-2.706-1.75-3.08C52.036,188.372,50.678,189.143,50.286,190.458L50.286,190.458z"/>
		<path style="fill:#E5A024;" d="M42.506,185.208l-0.66,1c-0.685,1.194-0.284,2.717,0.9,3.42c1.197,0.662,2.704,0.266,3.42-0.9    l0.66-1c0.685-1.194,0.284-2.717-0.9-3.42C44.728,183.645,43.222,184.042,42.506,185.208z"/>
		<path style="fill:#DB6653;" d="M69.756,58.188c-4.56,8.309-5.639,18.087-3,27.19c1.14,4,7.42,2.31,6.27-1.73    c-2.202-7.412-1.352-15.397,2.36-22.18c2-3.68-3.63-7-5.61-3.28L69.756,58.188z"/>
		<path style="fill:#DB6653;" d="M118.826,172.078c6.306-5.87,11.494-12.836,15.31-20.56c1.85-3.74-3.76-7-5.61-3.28    c-3.551,7.231-8.394,13.751-14.29,19.24c-3.07,2.86,1.54,7.45,4.6,4.6L118.826,172.078z"/>
		<path style="fill:#574730;" d="M66.816,20.078c-3.197,3.602-4.925,8.274-4.84,13.09c0.08,4.18,6.58,4.19,6.5,0    c-0.123-3.097,0.922-6.128,2.93-8.49c2.72-3.15-1.86-7.77-4.6-4.6H66.816z"/>
		<path style="fill:#574730;" d="M109.036,7.308c-6.429,1.702-11.105,7.246-11.7,13.87c-0.19,1.75,1.63,3.25,3.25,3.25    c1.777-0.042,3.208-1.473,3.25-3.25c0.534-3.711,3.275-6.721,6.92-7.6c4-1,2.33-7.31-1.73-6.27L109.036,7.308z"/>
		<path style="fill:#574730;" d="M145.906,19.168c-5.359,0.571-10.112,3.696-12.76,8.39c-2,3.66,3.58,6.94,5.61,3.28    c1.444-2.747,4.089-4.66,7.15-5.17c1.74-0.23,3.25-1.33,3.25-3.25C149.156,20.838,147.656,18.938,145.906,19.168L145.906,19.168z"/>
		<path style="fill:#574730;" d="M168.106,48.078c-3.946-1.215-8.24-0.119-11.12,2.84c-2.91,3,1.68,7.61,4.6,4.6    c1.217-1.324,3.111-1.786,4.8-1.17c4,1.27,5.71-5,1.73-6.27H168.106z"/>
		<path style="fill:#574730;" d="M111.096,40.858c-1.844,3.188-2.209,7.021-1,10.5c0.517,1.7,2.275,2.698,4,2.27    c1.721-0.491,2.731-2.271,2.27-4c-0.746-1.783-0.636-3.809,0.3-5.5c2-3.66-3.58-6.94-5.61-3.28L111.096,40.858z"/>
		<path style="fill:#574730;" d="M83.006,30.928c-2.816,3.196-2.846,7.979-0.07,11.21c1.11,1.36,3.45,1.15,4.6,0    c1.229-1.287,1.229-3.313,0-4.6c-0.292-0.641-0.266-1.381,0.07-2c1.224-1.289,1.224-3.311,0-4.6c-1.276-1.255-3.324-1.255-4.6,0    V30.928z"/>
		<path style="fill:#574730;" d="M137.026,63.478c-2.39,3.653-3.45,8.018-3,12.36c0.058,1.773,1.487,3.193,3.26,3.24    c1.61,0,3.44-1.49,3.25-3.25c-0.419-3.18,0.323-6.404,2.09-9.08c2.28-3.52-3.35-6.79-5.61-3.28L137.026,63.478z"/>
		<path style="fill:#574730;" d="M94.226,230.818c9.84-10.754,23.774-16.836,38.35-16.74c4.18,0,4.19-6.48,0-6.5    c-16.306-0.088-31.896,6.693-42.95,18.68c-2.83,3.07,1.75,7.68,4.6,4.6V230.818z"/>
		<path style="fill:#574730;" d="M63.466,224.528c7.851-5.781,16.649-10.15,26-12.91c4-1.18,2.3-7.46-1.73-6.27    c-9.89,2.896-19.201,7.488-27.52,13.57c-3.34,2.45-0.1,8.09,3.28,5.61H63.466z"/>
	</g>
</g>

        </g>
    </g>
</g>

<!-- ITEM 3 -->
<g>
    <defs>
        
        <clipPath id="clip-path-id-viewbox-item-3">
            <rect x="0.0" y="0.0" width="290.34" height="225.67"/>
        </clipPath>
    </defs>
    <g transform="translate(733.0 499.0) rotate(0.0 342.5 267.5) scale(2.3593028862712684 2.370718305490318)">
        <g clip-path="url(#clip-path-id-viewbox-item-3)" transform="translate(-0.0 -0.0)">
<title>beach_2</title><g id="Layer_2-i3" data-name="Layer 2"><g id="beach_2-i3"><path d="M284.33,10.33c-43,209.34-258.1,135-258.1,135s192.44-39,258.1-135Z" style="fill:#cf4327"/><path d="M26.23,145.32s183.6,6.35,258.1-135C279.33,83.5,165.12,168.13,26.23,145.32Z" style="fill:#eae2c2"/><path d="M286.09,213.93l-49.58-15.18c0-.12,0-.24,0-.36l-21-131.95L288,10.76a6,6,0,0,0-7.31-9.52L205.33,59.09l0,0-121.15,93L28,134.91a6,6,0,0,0-3.52,11.48l48,14.69L2.35,214.91a6,6,0,1,0,7.3,9.52l76.9-59,196,60a5.92,5.92,0,0,0,1.76.27,6,6,0,0,0,1.75-11.74ZM204.63,74.75l19.12,120.09L98.24,156.42Z" style="fill:#e5a024"/></g></g>
        </g>
    </g>
</g>

<!-- ITEM 4 -->
<g>
    <defs>
        
        <clipPath id="clip-path-id-viewbox-item-4">
            <rect x="0.0" y="0.0" width="436.4" height="650.95"/>
        </clipPath>
    </defs>
    <g transform="translate(180.0 514.0) rotate(344.45463160395656 176.0 263.0) scale(0.8065994500458296 0.8080497734080958)">
        <g clip-path="url(#clip-path-id-viewbox-item-4)" transform="translate(-0.0 -0.0)">
<title>Palm_tree_2</title><g id="Layer_2-i4" data-name="Layer 2"><g id="Palm_tree_2-i4"><path d="M220.94,83.81C250.1,37.91,316.51,6,349,.71S341.08,20,320.29,50.81c-18.25,27.07-33.21,49.65-57.47,71.1C254.19,129.54,162.81,175.31,220.94,83.81Z" style="fill:#cf4327;"/><path d="M230.52,651H217a9,9,0,0,1-8.89-7.37l-15.21-66.7a11.39,11.39,0,0,1,9.76-13l36.42.88A11.38,11.38,0,0,1,252,576.94L239.5,643A9,9,0,0,1,230.52,651Z" style="fill:#3b301b;"/><path d="M233.86,596.51l-29.28-4.43-.32-85.37a11.38,11.38,0,0,1,11.6-11.38l34.53.65a11.38,11.38,0,0,1,10.87,14Z" style="fill:#3b301b;"/><path d="M244.3,532.62,210,529.12l1.33-85.25c.12-6.36,5.16-11.47,11.18-11.33l32.64.72c6.84.15,11.7,6.92,10,13.95Z" style="fill:#3b301b;"/><path d="M253.22,272.39l-36.22,5-19.79-83a11.39,11.39,0,0,1,8.69-13.73l33.77-7.25a11.39,11.39,0,0,1,13.77,11.11Z" style="fill:#3b301b;"/><path d="M252.14,461,221,459.74l-6.49-80.86c.16-6.36,4.94-11.52,10.62-11.46l32.54,2.52c6.44.07,11,6.77,9.35,13.81Z" style="fill:#3b301b;"/><path d="M258.85,392.31l-32.75,1.28-14.83-89.81c-.44-6.35,4.1-11.89,10.06-12.29l34.38-.15c6.77-.46,12.16,5.85,11.11,13Z" style="fill:#3b301b;"/><path d="M257.7,325.92l-34.83,3.17-21.52-84.55a11.39,11.39,0,0,1,10-12.85l39.94-6.39a11.38,11.38,0,0,1,12.67,12.35Z" style="fill:#3b301b;"/><path d="M234.15,113.28C197.64,73,123,56.73,87.7,59.63s10.74,18,36.54,44.8c22.66,23.51,41.28,43.19,69.68,59.3C204,169.46,306.93,193.66,234.15,113.28Z" style="fill:#e5a024;"/><path d="M161,171.11c-5.07-29,56.6-96.87,119.4-100.82S388,110.11,399.62,121c13.15,12.38,42.32,46.32,35.86,54.81-3.3,4.32-63.26-28.22-107-31.27-52.71-3.67-57.81,13.34-91.77,19.38C203.08,170,164.67,192.26,161,171.11Z" style="fill:#e5a024;"/><path d="M177.89,156.23c-7.53-31.76,39.44-56.63,95.26-41.75s93.4,61.11,100.33,71.3c6.63,9.76,3.49,15.36-6.31,9.64-6-3.48-62-20.76-110.17-14.17C210.73,187.57,184.75,185.16,177.89,156.23Z" style="fill:#cf4327;"/><path d="M172.39,138.89c17-27.75,68-37.32,115.83.11s90.39,117.47,88.72,129.73-4.17,8.85-10.61,6-76-74.39-128-79.22S143.84,185.4,172.39,138.89Z" style="fill:#e5a024;"/><path d="M217.07,251.14c-4.73,0-7-1.29-7.61-1.7l3.92-5.79a.42.42,0,0,0-.16-.1s4.2,2.1,15.5-1.71a3.5,3.5,0,0,1,2.24,6.63A44,44,0,0,1,217.07,251.14Z" style="fill:#574730;"/><path d="M236.59,315.68a49.37,49.37,0,0,1-16.12-2.46,3.5,3.5,0,0,1,2.46-6.55,47.46,47.46,0,0,0,22.81,1.18,3.5,3.5,0,1,1,1.26,6.88A57.41,57.41,0,0,1,236.59,315.68Z" style="fill:#574730;"/><path d="M245.52,394c-14.79,0-21.54-4.63-22.27-5.17a3.5,3.5,0,0,1,4.12-5.66c.17.11,5.77,3.83,18.16,3.83H246a3.5,3.5,0,0,1,0,7Z" style="fill:#574730;"/><path d="M232.88,460.2a26.53,26.53,0,0,1-14.8-4.13,3.5,3.5,0,0,1,4.09-5.68c.35.25,7.74,5.24,19.34,1.33a3.5,3.5,0,1,1,2.24,6.63A33.93,33.93,0,0,1,232.88,460.2Z" style="fill:#574730;"/><path d="M227.89,525c-10.8,0-14.88-3.47-15.7-4.3l5-4.91-.1-.11s4.4,3.61,18.14,1.8a3.5,3.5,0,1,1,.91,6.94A62.86,62.86,0,0,1,227.89,525Z" style="fill:#574730;"/><path d="M219.78,591.24c-11.44,0-18.59-4.84-19-5.11a3.5,3.5,0,0,1,4-5.76c.42.28,9.86,6.5,24.43,2.59a3.5,3.5,0,0,1,1.82,6.76A43.19,43.19,0,0,1,219.78,591.24Z" style="fill:#574730;"/><path d="M214.6,166.7C212.39,134,171,100.93,110.13,110.78S6.11,166.66,1.8,178.27s-.43,9.81,6.73,10.4,70.66-24.89,119.83-4S218.29,221.46,214.6,166.7Z" style="fill:#e5a024;"/><path d="M214.15,183c3.07-32.61-52-53.29-110.2-33.2s-91.62,70-97.51,80.88c-5.64,10.41-1.33,15.76,8.4,9.11,5.92-4.06,64-26.57,117.4-24.38C183.52,217.51,211.34,212.7,214.15,183Z" style="fill:#cf4327;"/><path d="M210.53,155c-24.72-21.65-78.1-15.9-115.09,34S63.66,307.16,68.76,318.44s6.63,7.27,12.22,2.64,29.59-72.59,79.93-92.46S252,191.27,210.53,155Z" style="fill:#e5a024;"/><path d="M79.92,271.69a3.46,3.46,0,0,1-2.71-1.28,3.51,3.51,0,0,1-.63-3.28c0-.32.1-.91.15-1.44,3.78-40,24.51-76.26,58.35-102.07a3.5,3.5,0,1,1,4.25,5.56c-32.75,25-52,58.58-55.63,97.17-.24,2.51-.34,3.55-1.57,4.55A3.48,3.48,0,0,1,79.92,271.69Zm-2.23-6.19h0Zm0,0h0Z" style="fill:#f3bc63;"/><path d="M28.6,171.88a3.44,3.44,0,0,1-2.34-.9A3.5,3.5,0,0,1,26,166c1.16-1.28,2.33-2.62,3.53-4C45.37,143.93,67,119.17,134.84,119.17h1.26a3.5,3.5,0,0,1,0,7h-1.23c-64.65,0-85.11,23.38-100.07,40.49-1.22,1.39-2.41,2.75-3.59,4.06A3.49,3.49,0,0,1,28.6,171.88Z" style="fill:#f3bc63;"/><path d="M162.43,88.81a3.46,3.46,0,0,1-1.82-.51c-25.53-15.58-49.05-13-49.29-13a3.5,3.5,0,1,1-.81-7c1-.13,26.18-2.85,53.75,14a3.5,3.5,0,0,1-1.83,6.48Z" style="fill:#f3bc63;"/><path d="M238.29,129.37s35,6.5,78.34,62.92" style="fill:none;stroke:#f3bc63;stroke-linecap:round;stroke-miterlimit:10;stroke-width:7px;"/><path d="M348.79,104.3a3.4,3.4,0,0,1-1.57-.38C316.72,88.57,292,87.73,276.59,89.74c-16.67,2.17-26.28,8-26.38,8.1a3.5,3.5,0,0,1-3.71-5.94c1.68-1.05,41.85-25.45,103.87,5.77a3.5,3.5,0,0,1-1.58,6.63Z" style="fill:#f3bc63;"/><path d="M43.29,213.82a3.49,3.49,0,0,1-3.11-5.09c.61-1.21,15.41-29.67,44.33-36.27a3.5,3.5,0,1,1,1.56,6.82c-25.77,5.89-39.52,32.36-39.66,32.63A3.5,3.5,0,0,1,43.29,213.82Z" style="fill:#db6653;"/><path d="M272,62.8a3.4,3.4,0,0,1-1.65-.42,3.49,3.49,0,0,1-1.44-4.73c14.22-26.58,47.07-36,48.46-36.4A3.5,3.5,0,0,1,319.22,28c-.36.1-31.39,9.07-44.16,33A3.5,3.5,0,0,1,272,62.8Z" style="fill:#db6653;"/></g></g>
        </g>
    </g>
</g>

<!-- ITEM 5 -->
<g>
    <defs>
        
        <clipPath id="clip-path-id-viewbox-item-5">
            <rect x="0.0" y="0.0" width="65.487" height="62.876"/>
        </clipPath>
    </defs>
    <g transform="translate(1104.0 169.0) rotate(317.0267561175337 -124.0 120.0) scale(-3.787011162520806 3.8170367071696676)">
        <g clip-path="url(#clip-path-id-viewbox-item-5)" transform="translate(-0.0 -0.0)">

<g>
	<path style="fill:#309AC0;" d="M65.255,27.565c-2.551-8.581-5.791-16.942-9.69-25c-2.79-5.8-11.42-0.73-8.63,5   c3.499,7.287,6.402,14.845,8.68,22.6c1.82,6.16,11.48,3.54,9.64-2.66V27.565z"/>
	<path style="fill:#309AC0;" d="M47.515,37.805c-11.053-7.527-21.72-15.563-32-24.11c-4.91-4.09-12,2.95-7.07,7.07   c10.927,9.093,22.26,17.65,34,25.67c5.33,3.63,10.34-5,5-8.63H47.515z"/>
	<path style="fill:#309AC0;" d="M32.145,53.045l-25.94-6.9c-6.23-1.66-8.88,8-2.66,9.64l25.94,6.9   C35.715,64.345,38.365,54.685,32.145,53.045L32.145,53.045z"/>
</g>

        </g>
    </g>
</g>

              </svg>