<svg height="85.462" viewBox="0 0 84.941 85.462" width="84.941" xmlns="http://www.w3.org/2000/svg"><path d="m76.078 33.978c-.123.01.553-1.131-.726 0-.65-.376.458.048-.274-1.128.023-.527.476-.3-.258-.7-.306-.8-.312-.934-.3-.482.367-1.368.349-1.464-.331-1.306-.163-.846-.082-1.078-.084-1.013.374-.328-.647-1.158-.643-.729-.188.547-.491-1.5-.683-.925-.456-.273-.594-.31-.137-.766.038.489-.6-1.061-.614-.842-.177-.24-.8-.384-.294-.8.274.022.731-.192.456-.7-.1-.107.891-.848.07.171.465.2.332-.157.534-.828.24.587 1.021-.307.858-1-.016.28.955-.534.465-1.318.154-.351.514-.647.371-.737a3.117 3.117 0 0 1 .208-1.078c.014-.682-.219-.909.07-1.092-.454-.833.507.075-.157-1.634.518.157-.431-.911-.469-1.586.056.422-.184-1.177-.783-1.488-.045.409-.451-.8-1.1-1.342a16.3 16.3 0 0 0 -1.824-1.392c-.671-.879-1.029-.572-2.055-.835-.918.4-1.291-.165-2.17-.278-1.172-.254-1.051-.257-2.17.278a2.215 2.215 0 0 0 -2.055.835 3.028 3.028 0 0 1 -1.824 1.392c-.472-.283-.483.608-.526.527-1.013-.133-1.326-1.031-1.639-.908-.567.608-.936-.444-1.691-.82a1.537 1.537 0 0 1 -.833-.368c-.068-.383-.564-1.148-.909-.359-.85-.547-.574-.651-.888-.328-.286-.619-.959-.184-.9-.3-.7.113-.655-.664-.912-.279.172-.34-.982.127-.921-.254.51-.73-.3-.322 0-.725.35-.827-.75-1.791-.306-2.275-.389-.826-.484-2.077-.862-2.043-.683-.1-1.141-1.334-1.338-1.732-.88-1.1-1.507-.437-1.731-1.337-1.145-.671-.936-1.124-2.042-.862-.879.744-1.591-1.32-2.274-.3-.676-.211-1.387.737-2.274.3-.895 1.192-1.04.216-2.044.863-.188-.106-.488.093-.807.386s-1.355.248-.924.951c-.609.913-1.045 1.558-.917.969.7.963-.269-.123-.421.763-.948.245-.364.267-.565.664.438-.777-.172.341-.3 1.379.409.961.139.432-.441 1.272.336 1.508.837 1.309.135 1 .642-.214.082 1.393 0 .726-.313 1.61.165 0-.924.376-.9.887-.948 1.152-.909.156-.651 1.2-1.036.683-.875.275.4-1.659-.39.662-.913.357-.044-.358-1.173-.775-1.1.688.057 1.407-.462-.58-.638.039.687 1.3.4-.038-.852.4.629-.246.278 1.776-.839.421-.4-1.065.654.355-.826.443-.367 1.3-1.4-1.273-.813.465.167.173-1.368.235-.526-.527.444-1.33-1.222-1.193-1.025-1.127-1.407-.777-1.368-.786-.8-.265 0 .855-.887 1.4-.77-.206.192 1.065-.592-.248-1.284-.629-.943-.593.839.548-.986-.242-.894-.6-1.216.074-1.185-.036-.268 1.218-1.641-.352-1.081.376-.6.331-.845-.143-1.089-.1-.686-1.308-.474 2.067-.956.874-.172 1.5-1.132.011-1.1-.039-.93.874-.811.136-.9.49.269.129-.022.773-.924.9-.376-.346.047.761-.559.943.578-1.2.253 1.186-.833.882-.173-.948-.423-.369-.569.882-.15-.926 1.227.835-.266 1.172-.821.893.367 1.3-.391 1.467.933.586.088.161-.025-.029-.558-.881.736.487.138.733-.736.09-.289.355.1 1-.046.589-.472.071.174 1.169 1.449-.661.27-.169.379.881-1.579 1.174-1.067.247.456 1.174.848.892 1.235-.4 1.046-.116-.708 1.32.245.456.063.953.423-.061.075 1.764.283.987-.431.783.366.1.527.526-.409 1.208-.73.474-.56.967-.745.865-.017.88-.047 1.1.4 1.04-1.195-.341-.3-.428-1.448-.824-.193 1.835-.492.506.124-.11.288 2.031-.327 1.185-.693.15.421.226-.008 1.221-.186-.12.1-.815-.72.521-.173-.037-.283.224-.374.587s-.162.829-.258 1.2c-.163.808-.552.895-.532 1.833-.329-.318-.425-1.186-.727 0-.212.033-.711.886-1.16.078-.108.576-1.232-.03-1.114.228.22-.087-.626 1.025-1.055.366-.781-.52-.613.324-.988.5-.576-.276-.392.614-1.012.377.326 1.51-.47 1.4-.72.961-.626.006-.624.185-.606.792-.574.225-.538 1.136-.731.939-.052-.6.467.956-.2.939.157.628-.412.384-.658 1.1.587.288-.26.12-.208 1.191-.272.516-.32.99-.1 1.083.915.254.615 1.3.4.968a2.425 2.425 0 0 0 -.092 1.306c.127.643.65.463.863 2.044a2.258 2.258 0 0 1 .727.892c.174.323 1.211.715.61.839.549-.08.594 1.153.989.538.263.624.229.334.743.8.126-.856.55.165 1.055.455-.329-.658.97.476.988.407.482.278 1.234.743 1.3.325.183-.181 1.18.125.975-.019-.338 1.11.07-.071.727 0 .17 1.3-.129.509.44.758.61-.419.559.13.092 1.075.454.2.129-.137.62.48.7-.177.614.749.012 1.308-.5.016.116 1.858.2.888.812-.547.586-1.233.533.853-.068.645.755.425.462.8.279.75-.1-.433.357.888.1.468.264.177.608.795-.272-.494.674.4.3.843.071-.376-1.126.837-.527.527-.451-.268-.428-.113-.716 1.268.364.272-.441.425-.676.556.1-.327.312.825-.436.994-.233.77-.085 1.554-.4 1.061-.5.3-.47 1.738-.209 1.078-.216-.1.054.522-.069 1.092.532-.486-.172.955.156 1.634a2.415 2.415 0 0 0 .065 1.048c.093.325.242.168.4.538.38-.044.4-.226.24.21-.452.016-.082.338.543 1.278-.345 1.258 1 .4.707.744 1.381.929.8.027.389.6.786-.058.185 1.249.876.765.05.2.914.974.948.627.689.277 1.175-.308 2.055.835.2.153 1.446-.232 2.17.278 1.559.2.884-.539 2.171-.278a9.411 9.411 0 0 0 2.054-.835c.485-.905 1.53-.791 1.825-1.392-.442.075-.171-.046.526-.527.9 0 1.615 1.364 1.639.908.556-.669 1.206 0 1.692.819-.3-.273-.325-.112.338.363.381-.114.269.32 1.4.365-.08 1.025 0 0 .7.578.631-.318.671-.732 1.09.053.027.216-.08-.06.536-.186-.074.385.658.368 1.3.719.66.963-.359 1.042 0 .726.329 2.125-.282 1.052.445.931.081.86-.892 1.312-.139 1.344-.91.8.644.428.263 1.044-.005-.487.865-.238.6 1 .553.072.325-.284.4.575.371.354.917.747.943 1.156-.121-.681.309 1.81.821.724-.006.222 1.157.477.91.614.617.787.257.553 1.333.633-.243-.124 1.632.869 1.447.4.183 1.415.664.687 1.538.138.427.806 1.026-.334 1.161-.078.3.5.29-.419 1.113-.227-.617.213-.037.642 1.056-.367.483-.225.858-.7.988-.5.506.008.072 1.051 1.069-.432.343-.007 1.383-.029.662-.906.488-.23.878-1.316.8-.806.095-.482.865-.314.537-.925.077.916.234-.2.526-1.151.378-1.173.354-1.176.336-.892.078-.875-.2-.9-.206-1.118.269-.372.04-.453.512-1.157.434.681-.542-.121 0-.726-.035-.386.565-.029 1.074-.208.484-.022.434-.47.758-.324 1.041.549.872.1 1.028.167.415-.146.432-.553.761-.8a3.807 3.807 0 0 1 1.741-.728c.7-.233 1.027-.691 1.692-.819.572.084.769-.766 1.638-.908.388-.006.783.1.527.527.655.129 1.076.709 1.824 1.392.069.158 1.833.5 2.055.835.5.253.951-.389 2.17.278.342.514 1.538-.483 2.17-.278a3.932 3.932 0 0 1 .792-.269 5.391 5.391 0 0 0 1.263-.566c.1 0 .447-1.053.917-.767.04.563.985-.882.907-.625.245-1.158.257-1.761.714-.871.391-1.409.563-1.106.678-.954.561-.845.694-.985.488-1.005.082-.348.329-.9.348-1.05-.195-.441.438-1.292.267-1.732a3.93 3.93 0 0 0 -.089-1.747c-.346-.746.024-1.738-.446-1.7-.322-.86-.091-1.5-.8-1.6-.171-.618-1.206-1.392-1.159-1.437.6.372-.5-.07-.526-.526.831-1.227.814-1.708.908-1.639a2.062 2.062 0 0 1 .819-1.691c.608-1.109.566-.779.728-1.742-.207-.356-.047-.59.163-.842a1.434 1.434 0 0 0 .469-.946c-.541.058.131-.263.03-1.2.419.058-.047-.931.5-.638.691.194.934-.088.726 0 .094.5.864.44.609-.049-.288 1.144-.021.611.552-.029.219.38.212-.106.679.308.334.135.86.08.434-.536 1.15-.233 1.133-.4 1.056-.367.075.652-.56.9.443.242.146.263 1.538-.676.545-.737a.729.729 0 0 1 .582-.763c.277.819-.081 1.085.257.018.319 1.092-.173 1.092.173.155-.077.435.635-1.373.719-.748-1 .393-.4-.059.059-.41.137-.073.474-.574.576-.5-.529.279-.21-.051.485-.173.659.66.66.766.218-.648.4.048.055-.64.484-1.048-.17-1.238.16-.43.378-1 .859-.5.314-.582.333-1.385.021-.445.491-1.185-.027-.889.559.378.2-1.605.147-.888-.082.308.03-.494-.453-1.386-.308-.4-.611.645-.592-.556-.487-.926-1.091-1.086-.27-1.488-.053-.921-.491-.5-.652-1.047-.556-1.064-.689.761-.686-.684.075-.7-.184-.527-.716-.729-.677-.584-.89-.026-1.015-.609-.149-.327-.082.005-.96-.23-.824.145-.84-.408-1.084-.632-.7-.523-.942-.616-1.118-.083-.213-.052.134-.075-1.164-.205zm-49.746 8.555a1.827 1.827 0 0 1 -.169-1.387c.085-.521.256-.975.344-.983 1.122-.736.09-.618.337-1.685 1.022.5.026-2.229.169-.577a2 2 0 0 1 .145-1.446c-.111-1 .581-.617.669-.684.81-.894-.216-1.562.515-1.187-.467-.378.149.2.581-.787.167-.633.21-.348.928-1.307.455-.4.548-.693.424-.485.526.735.677.027.983-.631.82-.872 0 .376.6-.953.719.178.9-.485.584-.4-.7.547 1.665-1.884 1.207-.953-.892 1.1-.069-.129.582-.634.467.058-.451-2.016 1.392-.462 1.289 1.14-.042 1.134 1.1-.084-.2-.618.485.1 1.027-.729.468.793.237-.193.931-.2.881.939.41-.065 1.332-.307-.285.6.667.117 1.07-.365.939-.322 1.032.117 1.3.191 1.065.874 1.228-.512 1.289.14.416 1.31.706-.8 1.08.034.333 1.115.926.409 1.146.214.038.877.714 1.108.885 1.017s.233-.472.232-.724c.778-.332 1.384.963 2.13.813.094.091 1.642.856 1.974 1.1.349-.186 1.447 1.27 1.791 1.353.935.084 1.712.332 1.585 1.584a10.47 10.47 0 0 0 1.357 1.791c.037 1.374.224 1.135 1.1 1.974.5 1.6.545 1.1.814 2.13a8.019 8.019 0 0 0 .506 2.262c-.33 1.178.867 1.294.175 2.37-.474.657-.4 1.707-.078 1.59.149.289-.459.916-.23 1.546-.555 1.065-1.227.383-.373 1.5-.057.485.219.49-.37 1.084.183.3.076.523-.444 1.047-.274.262-.021.44-.484 1.3.531-.32.179-.155-.611.677-.829.363-.892.873-.856.842.347.031-.464-.58-.5.95.028.228-.268.5-.621.772a6.329 6.329 0 0 0 -.964.813c-.473.287-.824-.114-1.791 1.352.053.21-1.674.357-1.974 1.1-.808.339-.906.981-2.13.813a1.586 1.586 0 0 1 -2.263.507c-.8-.081-1.372.278-2.369.174a1.461 1.461 0 0 1 -2.369-.174 11.487 11.487 0 0 0 -2.263-.507c-.343-1.2-1.205-.207-2.13-.813-.223-.388-1.474-.573-1.974-1.1-.351-.588-.94-.549-1.791-1.352a2.084 2.084 0 0 0 -.826-.719 1.537 1.537 0 0 1 -.759-.866 1.116 1.116 0 0 0 -.783-.871c-.3-.737-1.015-.589-.569-.921-.135.429-.555-.634-.582-.965-.02-.639.08-.452-.514-1.008-.088-.047-.386-1.08-.638-1.585.072-.9-.724-.957-.469-1.662.172-.844-.186-.811-.289-1.729-.542-.131-.407-1.687-.101-1.798z" fill="#889598"/><g fill="#d7d7d7"><path d="m11.955 13.6a.436.436 0 0 0 .281-.259c-.006-.136-.098-.116-.281.259z"/><path d="m10.553 15.367c.01-.09.023-.169.034-.253-.04.024-.059.098-.034.253z"/><path d="m83.7 46.49a.183.183 0 0 1 -.006-.025l.009-.006a.944.944 0 0 1 .248-.656c-.017-.127-.026-.219-.034-.307-.018 0-.04-.006-.056 0a1.164 1.164 0 0 0 -.584.55 1.166 1.166 0 0 0 .25 1.335.627.627 0 0 0 .139.109c-.05-.167-.114-.368-.2-.641.203.026.215-.138.234-.359z"/><path d="m51.868 26.44v-.006l-.019-.01z"/><path d="m9.871 17.977a.226.226 0 0 0 .026.029.636.636 0 0 0 .089-.032c-.186-.295-.411-.464-.115.003z"/><path d="m9.896 18.006.001.001v-.001z"/><path d="m26.762 12.234c.063-.322-.208-.582 0 0z"/><path d="m22.018 11.062a3.023 3.023 0 0 0 0 .357.58.58 0 0 0 0-.357z"/><path d="m38.773 27.044a2.419 2.419 0 0 0 .227.206.992.992 0 0 0 -.227-.206z"/><path d="m12.218 30.762c-.083.418-.15.835-.217 1.219-.45-.284-.917-.6-1.4-.851-.134-.071-.267-.139-.38-.214l-.008.028c-.055.219-.1.471-.154.721a1.794 1.794 0 0 1 .775.816l-.016-.016 1 1.2a2.918 2.918 0 0 0 .768-2.837c-.117-.016-.234-.049-.368-.066z"/><path d="m11.642 27.43c.043-.039.091.2.109.5.157-.056.234-.221.17-.594-.07-.125-.091-.249 0-.328a1.209 1.209 0 0 1 .035-.167c-1.15-.492-.03 1.859-.314.589z"/><path d="m82.691 42.627a2.808 2.808 0 0 1 -.134-.5c-.017-.184.017-.367.017-.6.383.05.7.1 1.1.15-.167.6-.8 1.2.167 1.635-.2.167-.351.284-.5.4 0 .067.017.15.017.217l1.42.173a1.945 1.945 0 0 1 -.118-.68c.015-.312.244-.762.2-.9a.526.526 0 0 0 .066-.223l-.605.634c-.155-.931-.147-1.1.592-1.117-.039-.285-.117-.472-.138-.166-.082.308.03-.494-.453-1.386-.308-.4-.611.645-.592-.556-.487-.926-1.091-1.086-.27-1.488-.029-.5-.171-.6-.32-.68-.007.118-.013.23-.021.37-.108-.248-.219-.509-.325-.76-.543-1.005-.675.771-.672-.661.075-.7-.184-.527-.716-.729-.677-.584-.89-.026-1.015-.609-.149-.327-.082.005-.96-.23a.722.722 0 0 1 -.881-.345c.043.133.086.266.13.4-.083.033-.166.05-.25.083-.069-.439-.493-.745-.662-1.145-.278-.13-.424-.052-.539.3-.113-.039-.066-.064-.213-.1.068.485.138.969.213 1.467-.384.084-.735.1-.518-.6.051-.151.034-.434-.066-.5a1.015 1.015 0 0 1 -.361-.481l-.206-.022c-.124.01.553-1.131-.726 0-.65-.376.458.048-.274-1.128.023-.527.476-.3-.258-.7-.079-.207-.137-.368-.181-.487l-.492-.111c-.1-.334-.217-.718-.334-1.085.067-.05.117-.1.183-.15l.681.725c.174-.756.064-.808-.489-.68-.163-.846-.082-1.078-.084-1.013.374-.328-.647-1.158-.643-.729-.188.547-.491-1.5-.684-.925-.429-.257-.557-.317-.19-.7-.146-.146-.548-1.08-.56-.9-.177-.24-.8-.384-.294-.8.273.022.731-.192.456-.7-.1-.107.891-.848.07.171.465.2.332-.157.534-.828.212.519.844-.119.877-.749-.069.029-.142.059-.208.088-.066-.317-.15-.651-.217-.985.084-.033.151-.067.234-.1.168.144.355.307.573.5a.947.947 0 0 0 .064-1.069c.154-.351.514-.647.371-.737a3.117 3.117 0 0 1 .208-1.078c.014-.682-.219-.909.07-1.092-.454-.833.507.075-.157-1.634.518.157-.431-.911-.469-1.586.056.422-.184-1.177-.783-1.488-.045.409-.451-.8-1.1-1.342a16.3 16.3 0 0 0 -1.824-1.392c-.671-.879-1.029-.572-2.055-.835-.918.4-1.291-.165-2.17-.278-1.172-.254-1.051-.257-2.17.278a2.215 2.215 0 0 0 -2.055.835 3.028 3.028 0 0 1 -1.824 1.392c-.472-.283-.483.608-.526.527-1.013-.133-1.326-1.031-1.639-.908-.567.608-.936-.444-1.691-.82a1.531 1.531 0 0 1 -.832-.368c-.07-.383-.565-1.148-.91-.359-.85-.547-.574-.651-.888-.328-.286-.619-.959-.184-.9-.3-.7.113-.655-.664-.912-.279.172-.34-.982.127-.921-.254.51-.73-.3-.322 0-.725.35-.827-.75-1.791-.306-2.275-.389-.826-.484-2.077-.862-2.043-.683-.1-1.141-1.334-1.338-1.732-.88-1.1-1.507-.437-1.731-1.337-1.144-.682-.935-1.135-2.041-.873-.879.744-1.591-1.32-2.274-.3-.676-.211-1.387.737-2.274.3-.895 1.192-1.04.216-2.044.863-.188-.106-.488.093-.807.386s-1.355.248-.924.951a10 10 0 0 1 -.808 1.125c.441.641-.389-.216-.53.607-.948.245-.364.267-.565.664.438-.777-.172.341-.3 1.379.409.961.139.432-.442 1.272a3.383 3.383 0 0 0 .4 1.1c0 .009.012.014.016.024.075.11.093.105 0 .039.075.348-.228 1.047-.287.566-.313 1.61.165 0-.924.376-.9.887-.948 1.152-.909.156-.651 1.2-1.036.683-.875.275.4-1.659-.39.662-.913.357-.044-.358-1.173-.775-1.1.688.057 1.407-.462-.58-.638.039a3.743 3.743 0 0 0 .341.562 1.116 1.116 0 0 0 -1.193-.163c.629-.246.278 1.776-.839.421-.007-.018-.01-.029-.016-.045-.041.214-.23.453-.81.488-.367 1.3-1.4-1.273-.813.465.167.173-1.368.235-.526-.527.444-1.33-1.222-1.193-1.025-1.127-1.407-.777-1.368-.786-.8-.265 0 .779-.729 1.281-.77.151-.121.209-.728-.68-1.284-.986-.943-.593.839.548-.986-.242-.894-.6-1.216.074-1.185-.036-.268 1.218-1.641-.352-1.081.376-.6.331-.845-.143-1.089-.1-.686-1.308-.474 2.067-.956.874-.172 1.5-1.132.011-1.1-.039-.931.874-.812.136-.9.49.269.129-.022.773-.924.9-.286-.263-.112.313-.278.684.015.3-.371 1.349-1.114 1.141-.16-.879-.386-.437-.535.629.2-.118.943 1.145-.3 1.425-.775.844.221 1.255-.3 1.435.029.046.058.093.083.143.419.273.229.192.023.053.1.22.131.452-.083.54-.736.09-.289.355.1 1-.046.589-.472.071.174 1.169 1.449-.661.27-.169.379.881-1.579 1.174-1.067.247.456 1.174.42.442.726.347.906.173-.391.867.369.212.2.664.313-.045.2.939.211 1.142-.218.507.452-.02.6.371-.409 1.208-.73.474-.56.967a1.832 1.832 0 0 0 -.24.342c.008.139.016.312.025.541l.036.032c.328-.407.522-.65.651-.827a4.151 4.151 0 0 1 1.059.389 1.275 1.275 0 0 1 .4.734c.134.8.217 1.619.334 2.52.451-.584.868-1.035 1.185-1.535.25-.384.1-.718-.367-.8-.434-.084-.551-.3-.567-.751-.017-.3-.368-.584-.6-.918.334-.551.968-.751 1.886-.35-.117-.434-.2-.768-.334-1.285.417.317.717.534 1.251.934-.617.434-1.168.818-1.885 1.3.934.734 1.585 1.268 2.336 1.852-.184 1.2-.4 2.587.634 3.738a7.547 7.547 0 0 0 .851.718c.15-.8.284-1.452.417-2.17.334.217.518.351.718.484.217-.667.217-.667-.951-.968-.267.518-.518 1.035-.785 1.536-.1-.034-.2-.05-.3-.084l.3-1.8a1.5 1.5 0 0 0 .267-.017c-.15-.183-.3-.367-.4-.5.1-.217.2-.4.3-.6-.15-.034-.3-.067-.35-.084.1-.984.217-1.985.317-2.987.05-.517.417-.7.868-.417.233.15.417.334.784.618-.117-.818 1.418-.7.534-1.819 1.268.15.768-1.736 2.1-1.636a18.059 18.059 0 0 0 -1.085 2.236c-.117.351.1.818.167 1.235a2.1 2.1 0 0 0 .317-.016c.033-.4.067-.8.117-1.2.066-.634.5-.534 1.051-.5-.184.251-.317.418-.451.584.034.034.067.1.117.1 1.168.133 1.235.217 1.5 1.568a1.67 1.67 0 0 0 .284.5c.15-.15.35-.267.417-.434.3-.868.567-1.752.9-2.77.234.384.434.7.784 1.251.268-.734.484-1.335.735-2.035.05.233.033.4.1.467.667.767.517 1.318-.334 1.852-.267.167-.3.734-.45 1.168.3.017.7.05 1.151.084.05-.351.1-.685.15-1.168.542.262 1 .476 1.478.69a5.231 5.231 0 0 0 -.644.561.763.763 0 0 0 -.083.517.486.486 0 0 0 .4.067c.6-.334 1.184-.7 1.769-1.051-.084-.1-.184-.184-.267-.284.25-.233.517-.467.767-.684-.217-.234-.434-.467-.634-.684-.083.016-.167.05-.25.067a9.6 9.6 0 0 1 .55-1.419 1.015 1.015 0 0 1 .735-.4c.584-.034.817-.267.7-.835-.183-.918-.4-1.819-.533-2.737a2.769 2.769 0 0 1 .233-.9c.818.584 1.085 1.152.4 1.9a.8.8 0 0 0 .016.751 1.6 1.6 0 0 1 -.317 2.236h1.919a20.633 20.633 0 0 1 .034-2.286 1.228 1.228 0 0 1 .55-.751.764.764 0 0 1 .7.217c.134.183.067.517.084.784q.05.951.1 1.9c-.467.217-.951.434-1.435.634-.017.067-.017.134-.034.2.818.083 1.335.333.8 1.185-.033.066.2.417.3.417a1.737 1.737 0 0 0 .634-.284c.384.217.734.484.067 1.051.283.034.4.05.534.067a1.593 1.593 0 0 0 .352 1.238.958.958 0 0 0 .4-.369c.454.772.255-.133.882-.19a1.266 1.266 0 0 0 -.937 0c1.1-.8 1.2-1.068.584-1.869-.134.234-.251.451-.368.668a1.281 1.281 0 0 0 -.233-.084c.067-.584.133-1.168.217-1.752h.25c-.133-.2-.267-.384-.45-.684h1.368c-.167.25-.3.451-.4.584.151.567.267 1.068.418 1.619.15-.084.25-.151.35-.2a4.229 4.229 0 0 1 .484-.166 1.46 1.46 0 0 1 .1.45c-.04.389-.1.783-.161 1.181a.9.9 0 0 1 .159-.068c-.285.6.667.117 1.07-.365a1.968 1.968 0 0 1 .507-.11 2.161 2.161 0 0 0 .027-.271c.6.2 1.318.785 1.535-.517.167.234.267.35.351.467.322.489.664.686 1.034.6h.013a1.517 1.517 0 0 0 .688-.461.675.675 0 0 1 .418-.217c.817-.1.817-.1.851-.851l-1.152.383c-.1-.367-.2-.717-.317-1.151.784-.067 1.335-.133 2.019-.184.2-.333.5-.8.8-1.284.084.016.151.05.234.066-.033.434-.083.885-.134 1.435.151.017.518.051.918.1.1.333.184.684.284 1.051-.2.05-.384.1-.467.117.066.384.116.717.183 1.051.05.184.134.367.2.551.2-.117.518-.2.568-.351a2.772 2.772 0 0 0 -.084-2.536c-.15-.217-.5-.317-.751-.467.017-.084.051-.151.067-.234.284.117.651.167.8.384.367.484.584 1.1.968 1.568a1.216 1.216 0 0 0 .885.3c.233 0 .467-.234.817-.434-.2.464-.332.813-.481 1.145.21.112.419.209.565.273.467-.5.851-.951 1.285-1.385.033-.033.283.117.45.2-1.218.9-1.418 1.92-.667 2.6a2.759 2.759 0 0 1 -3.037.1l-.585.151c.482.254 1.054.556 1.241.691.125-.067.349.082.6.3a.534.534 0 0 1 .514-.14c.217.034.384.384.618.618-.2.055-.354.092-.5.129a3.762 3.762 0 0 0 .413.367c.162-.042.31-.079.482-.129-.35-.9.034-1.319.735-1.7.283-.151.383-.651.651-1.135.3.584.617 1.168 1 1.886.183-.334.283-.518.5-.9.418.584.785 1.085 1.2 1.686.184-.15.451-.367.667-.551-.4-.584-.784-1.118-1.151-1.669.1-.35.534-.584 1.168-.033.234-.617.434-1.151.7-1.819.217.25.434.517.667.784.334-.167.651-.217.5.4-.15.634-.334 1.268-.534 1.952.134.034.3.034.4.134.7.634 1.084.684.934-.451a.556.556 0 0 1 .384-.183c.117.016.217.2.267.333.2.518.35 1.052.534 1.586.2.55.4 1.1.634 1.8.217-.935.718-.9 1.452-.417a4.165 4.165 0 0 0 -.234-1.235 6.1 6.1 0 0 0 -.851-1.018 1.131 1.131 0 0 1 -.15.134c.017.283.05.584.067.867a1.618 1.618 0 0 1 -.15-2.136c.317.835 1.234 1.452 1.8 1.152-.067.267-.217.5-.167.7a.972.972 0 0 0 .451.517c.083.033.367-.184.45-.334.25-.434.451-.884.684-1.368.651.417.418-.4.7-.8.167.15.451.3.434.384-.067.383-.217 1.051-.384 1.068-.734.05-.851.467-.934 1.034a2.083 2.083 0 0 1 -.317.634c.567.584 1.068 1.319 2.069.8.05-.016.284.151.284.234 0 .2-.034.5-.167.584-.467.3-.985.534-1.486.8.084-.334.251-.634.184-.868-.05-.183-.4-.267-.617-.417a2.328 2.328 0 0 1 -.234-.2c-.2-.167-.384-.334-.584-.484-.1.183-.334.384-.284.534a1.921 1.921 0 0 0 .451.8c.1.1.35.067.551.1-.151.684-.818 1.268-1.369 1.135-.183-.05-.267-.4-.417-.6a4.972 4.972 0 0 0 -.417-.417c-.067.217-.234.484-.167.634a8.669 8.669 0 0 0 .651.951 7.443 7.443 0 0 1 .584 1.068c.267.751.567.134 1.018-.033-.117.3-.167.6-.267.617-1.319.251-.718 1.352-.935 2.07a.89.89 0 0 0 .067.4c.033.234.067.484.1.734a4.292 4.292 0 0 0 .951-.751 4.217 4.217 0 0 0 .251-1.251c-.05-.084-.184-.351-.317-.618.133-.1.25-.217.383-.317.134.417.251.835.384 1.252.134-.1.284-.2.417-.317.067-.367.134-.718.234-1.168.267.233.467.417.651.584.5-.5.3-.9-.067-1.319-.35-.417-.617-.116-.984-.066-.468.066-.985-.284-1.469-.434a2.372 2.372 0 0 1 .317-.568 5.842 5.842 0 0 1 .896-.527c.367.217.934.534 1.635.952.1-.251.267-.618.384-.935.067.117.184.284.35.551.635-1.586-.183-3.221 1.335-4.523-.65-.05-.984-.083-1.385-.116-.233-.685.267-.584.651-.568a4.838 4.838 0 0 1 .835.134c.2.05.383.116.584.183a1.606 1.606 0 0 0 -.234.484 1.9 1.9 0 0 0 .083.751c.051.134.267.217.418.317-.468.05-1.152-.016-1.219.15a2.379 2.379 0 0 0 .117 1.5c.084-.2.167-.4.367-.934a2.808 2.808 0 0 0 .134.484c.1.267.2.517.3.767.367-.317.9.468 1.3-.25.167-.3.818-.334 1.252-.484-.418-.818-.8-1.569-1.185-2.32.083-.05.183-.083.267-.133.5.417 1.418.517 1.1 1.3.434.467.951.751 1.068 1.168.317 1.2.1 1.719-.718 2.169.134-.417.218-.734.318-1.051-.718-.067-.751-.05-1.135.9-.134-.25-.217-.434-.417-.834-.367.717-.668 1.3-.952 1.885a1.136 1.136 0 0 0 .151.134c.217-.084.434-.167.667-.267.2 1.285.334 1.518.968 1.769.4-.251.718-.417 1.085-.651-.134-.351-.284-.784-.467-1.285 1.134.017 1.218.284.867 1.719.4.2.768.4 1.2.634.016-.084.133-.4.083-.434-.717-.451-.267-1.135-.4-1.7-.084-.334-.217-.668-.351-1.085.284.117.568.217.718.267.2.8.367 1.5.584 2.353-.334.334-.334.534.234 1.2a2.738 2.738 0 0 1 .083-.317c.067-.151.15-.284.217-.434.117.133.367.317.35.367-.55 1.268 1 1.886.7 3.2.568-.351.918-.551 1.268-.768-.016-.05-.033-.1-.05-.167h-.784c.067-.4.117-.767.167-1.134l.3-.151c-.333-.383-.65-.767-.984-1.151-.084.05-.167.117-.251.167.217-.334.434-.668.668-1 .25.15.484.267.7.4-.117-.467.283-1.268-.684-1.085l.967-.968c.451.2.718 1.369 1.469.4a8.389 8.389 0 0 0 .184 1.886c.2.6.484 1.3 1.418 1.051.2.584.517 1.051-.3 1.469-.3.15-.484.867-.418 1.268s.535.734.818 1.1c.094-.04.177-.107.261-.157zm-69.471-23.027c.083-.016.15-.033.233-.05.735 1.335.735 1.335.334 1.6-.2-.534-.387-1.034-.567-1.55zm.734 5.457c.134-.6.234-1.034.35-1.485.084-.017.167-.017.234-.033a7.437 7.437 0 0 1 .083 1.218c-.016.098-.383.181-.667.298zm1.9-1.068c-.183-1.085-.35-2.153-.517-3.221.851.918.5 2.12.834 3.154-.098.015-.215.048-.315.065zm2.5-.117a7.326 7.326 0 0 1 -1.352-.033c-.134-.017-.251-.367-.284-.584-.017-.067.317-.3.4-.267.433.217.834.5 1.268.751-.01.048-.01.081-.026.131zm-.418-3c-.233-.468-1.3-.051-1.068-1.119.451.134.868.251 1.3.368q.225-.4.451-.8c.1 0 .183.016.283.016.017.234.167.584.05.7a6.1 6.1 0 0 1 -1.01.83zm1.1 3.32c-.067-.016-.134-.033-.217-.05.233-.584.467-1.184.717-1.819h.935c-.526.713-.977 1.297-1.427 1.864zm.784-3.237c-.067-.033-.133-.067-.217-.1.334-1.068.167-2.336 1.385-3.087-.15.567-.317 1.118-.484 1.7h.651c.05.083.1.15.15.233-.476.415-.976.832-1.477 1.249zm1.5 2.219c-.117-.05-.217-.083-.334-.133a3.894 3.894 0 0 1 .25-.884c.017-.051.368.05.568.083-.157.312-.324.612-.474.929zm.284-1.284c-.167-.568-.267-.918-.384-1.3 1.028-.024 1.045.01.394 1.295zm2.586-.618c-.667-1.085-.7-1.218-.167-1.786a1.621 1.621 0 0 1 .5-.267c.134.084.267.167.4.234-1.774.295.162 1.313-.723 1.814zm.434-3.237c-.067-.351-.15-.668-.2-.918.4-.034.718-.067 1.051-.1-.223.312.025 1.063-.841 1.013zm3.888 3.988c-.734-.15-.751-1.485-1.852-.968.234-.334.467-.667.784-1.135.261.863 1.913.746 1.078 2.098zm1.39 4.016a8.589 8.589 0 0 1 -.5-1.046 4.521 4.521 0 0 1 -.284-1.234c0-.084.4-.2.668-.318.016-.15.033-.4.05-.634.538 1.078 1.119 2.161.076 3.227zm-1.94-6.369a1.358 1.358 0 0 1 -.067-.5c.167-.817-.017-1.351-.968-1.435-.15-.016-.267-.283-.417-.417a1.248 1.248 0 0 0 .133-.184c.484.217.985.451 1.569.718-.1-.734.2-1.051.668-1.035.083.5.083 1.2.233 1.235a4.908 4.908 0 0 0 1.569-.133c0 .334.033.751.066 1.235a9.2 9.2 0 0 0 -2.776.511zm6.217-1.37c.167-.651-.851-1.2 0-2.086.117.817.2 1.435.284 2.069-.1-.003-.183.017-.284.017zm2.337-2.737c.133-.067.734.284.734.45-.017.818-.851.1-1.085.6-.083-.083-.167-.15-.25-.233.2-.286.334-.67.601-.82zm.217 9.412c-.084-.2-.3-.451-.284-.684.033-.4.451-.551.884-.451-.166.297-.333.614-.6 1.132zm-.133-2.275c.217-.5.384-.868.634-1.385a.872.872 0 0 1 -.218-.315 1.229 1.229 0 0 1 .017-.6.511.511 0 0 1 .35-.066 1.339 1.339 0 0 1 .167.5 4.473 4.473 0 0 0 .017.818c.133.633-.167.9-.967 1.048zm1.135-3.521c-.033.05-.3.033-.351-.033a.622.622 0 0 1 -.066-.434c.016-.384.083-.768.133-1.318-.667.233-1.151.4-1.635.584a.875.875 0 0 1 -.084-.217c.535-.3 1.068-.635 1.619-.885.067-.033.384.284.417.467a7.591 7.591 0 0 1 .067 1.386.852.852 0 0 1 -.101.452zm1.685 3.571c-.317-.117-.567-.217-.767-.3a3.582 3.582 0 0 0 .3-1.235c-.083-.718.384-1.018.868-1.635a4.486 4.486 0 0 1 -.402 3.172zm6.342-4.2c.467 1.1-.384 1.068-1 1.185.315-.37.632-.754.999-1.188zm-3.638-1.218c-.084.667-.184 1.268-.284 2.069-.3-.534-.551-.968-.8-1.418.299-.183.649-.383 1.083-.654zm-.518 8.227c-1.752-1.3-1.919-1.936-.75-2.453-.368 1.335-.234 1.6 1.017 1.819-.084.214-.167.414-.268.631zm.8-1.252c-.067.1-.267.117-.418.167-.05-.183-.183-.4-.15-.567.167-.668.7-1.435.517-1.953-.35-.968.418-1.218.7-1.952a5.06 5.06 0 0 1 -.648 4.298zm2 1.3c-.567-.417-1.068-.768-1.752-1.235h.918a2.744 2.744 0 0 0 .517-.05c.267-.067.534-.167.784-.25-.117.25-.233.5-.4.834.05.05.2.167.417.35-.231.166-.414.3-.481.35zm1.252-2.2c-.434-.167-.768-.284-1.085-.384-.184.217-.351.434-.517.651a1.733 1.733 0 0 0 -.167-.083v-2.32c.1 0 .183-.017.283-.017a8.4 8.4 0 0 0 .084 1.118 2.556 2.556 0 0 0 .317.651c.534-.167 1.068-.35 1.6-.517.033.083.067.183.1.267-.212.227-.429.446-.612.627zm1.342-2.724c-.985.6-.434 1.168-.05 1.752.016.017-.034.084-.117.284-.451-.584-.868-1.1-1.219-1.552.368-.517.668-.951 1.1-1.619.131.518.365 1.085.286 1.135zm1.218.985c-.3.1-.568.2-.9.333-.251-.917.55-1.051.968-1.451-.022.333-.039.684-.072 1.118zm1.682-1.836c-.133.033-.25.067-.383.1-.084-.5-.167-1-.284-1.669 1 .451.349 1.137.667 1.569zm-.6 1.418c.218.484.418.952.618 1.4-.937-.365-1.103-.799-.618-1.4zm2.4-2.086c.1.8.166 1.436.25 2.07-.1.05-.217.1-.317.15-.284-.5-.568-.985-.9-1.569.318-.215.618-.415.967-.651zm.35 5.474c-1.2.217-1.485-.184-1.035-1.485.2.3.334.534.551.884.117-.6.217-1.084.3-1.568a.617.617 0 0 0 .184-.017zm9.328-6.225c.117-.116.367-.083.551-.133a3.727 3.727 0 0 0 .217.317c-1.5.083-.717 1.569-1.485 2.136-.632-.968-.582-1.168.719-2.32zm-6.491 8.661c-.234-.35-.417-.617-.7-1.034.417-.234.818-.468 1.235-.7q.225.626.45 1.3c-.416.184-.699.301-.983.434zm4.656-3.454c.05.367.117.768.15 1.035a8.038 8.038 0 0 1 -1.035.784 6.026 6.026 0 0 1 -1.018.284c.935-.718.968-1 .117-1.9-.45.484-.884.985-1.235 1.352-.367-.15-.751-.451-1.051-.4-.718.151-.935-.267-1.335-.934.667.117 1.1.184 1.368.234.6-.451 1.1-.818 1.6-1.219.084-.066.167-.2.151-.267a.453.453 0 0 0 -.267-.233 3.834 3.834 0 0 0 -.668-.017c.234-.267.367-.434.5-.584a12.478 12.478 0 0 0 1.418.8c.467.2 1 .25 1.485.434.184.067.317.284.468.434-.212.077-.413.13-.646.197zm2.72 4.422c-1.185-.717-1.535-1.986-2.069-3.12-.1-.217.05-.568.116-.835.017-.05.334-.066.351-.033.083.234.25.517.183.734-.166.551.134.668.7.835v-1.452h1.056a15.443 15.443 0 0 1 -.835 1.735.767.767 0 0 0 .417 1.235c.3.084.6.167.985.284-.401.284-.667.467-.902.617zm1.619.634c.116-.534.183-.834.25-1.151.25.167.517.35.918.617-.432.217-.666.317-1.166.534zm.65-6.625c.317-.584.551-1.018.818-1.485.133.15.284.3.5.534-.598.1-.515 1.135-1.316.951zm1.868 6.058c-.25.033-.534.05-.8.083-.083-.133-.183-.267-.267-.4.234-.1.484-.184.751-.284-.6-.584-1.2-1.118-.917-2.036a2.4 2.4 0 0 1 1.233 2.637zm2.77.367c-.216 0-.433.017-.634 0a2.156 2.156 0 0 1 -.45-.183c.1-.1.183-.217.284-.317.15-.184.3-.351.5-.585.587.301.604.334.303 1.085zm2.053-1.952a.838.838 0 0 1 -.634-.017c-.334-.1-.651-.25-1.035-.4.1-.835.935-.635 1.636-.735a2.226 2.226 0 0 1 .25.584.766.766 0 0 1 -.214.568z"/><path d="m72.641 26.924c-.026.026-.032.039-.054.063.037.037.062.036.054-.063z"/><path d="m35.53 3.917c-.034-.049-.058-.087-.109-.156-.053.245-.005.268.109.156z"/><path d="m9.9 18.007a1.071 1.071 0 0 0 .2.163c-.008-.018-.014-.035-.023-.053-.06-.034-.106-.064-.177-.11z"/><path d="m34.1 8.939c-.041-.093-.12-.146-.267-.1a1.389 1.389 0 0 1 .287.16c0-.012 0-.028 0-.039z"/><path d="m25.335 30.3a1.542 1.542 0 0 1 -.05.15c-.184.334-.367.651-.567.985.367.2.717.384 1.184.651.2-.317.351-.618.551-.9a1.679 1.679 0 0 1 .534-.551c.6-.267.718-.668.284-1.185-.2-.25-.384-.5-.718-.951.668.233 1.1.4 1.7.617-.016.367-.05.9-.083 1.435a1.263 1.263 0 0 0 .25.034c.267-.5.618-.985.351-1.652-.217-.551-.434-1.085-.668-1.686-.868.284-1.151-.434-1.485-1.134-.751.734-1.469 1.368-1.1 2.736-.534-.233-.918-.4-1.436-.634-.066.267-.3.668-.183.868.334.551.567 1.3 1.452 1.235-.184-.251-.367-.518-.6-.835a5.914 5.914 0 0 1 .8-.467.583.583 0 0 1 .5 0 .7.7 0 0 1 .166.517c-.066.384-.2.751-.3 1.135-.181-.123-.382-.256-.582-.368z"/><path d="m79.587 44.179c-.134-.016-.351-.016-.367-.066-.267-.918-.935-.651-1.769-.568.116.534.217 1.018.333 1.5.084-.017.184-.017.267-.033.084-.151.151-.3.234-.451.067 0 .134.017.2.017v3.122a.7.7 0 0 0 -.367.167.5.5 0 0 0 .034.484.918.918 0 0 0 .634.084c.167-.034.25-.284.417-.351.834-.384.851-.384.117-1.1.767.05 1.368-.067 1.351-.985a5.269 5.269 0 0 1 1.035-.25c-.417-.6-.434-1.6-1.619-1.085-.083.034-.35-.334-.534-.517z"/><path d="m59.728 30.946c-.467-.684-.467-.684.034-1.218-.3-.084-.584-.167-.918-.284-.3.634-.584 1.218-.885 1.852-.016-.016-.216-.083-.383-.166-.067.066-.134.1-.151.15-.217 1.168-1.018 1.568-1.952.851-.534-.4-.968-.351-1.135.117a1.662 1.662 0 0 0 .234 1.4 5.022 5.022 0 0 0 1.552.818c.067-.25.133-.467.217-.8.283.1.534.184.751.267a9.628 9.628 0 0 1 .35-1.368c.184-.434.451-.968 1.152-.451.217-.4.4-.768.634-1.218h.517z"/><path d="m13.387 31.864c.684-.3 1.151-.518 1.668-.734.167.133.368.283.618.467.2-.684.384-1.285.567-1.886l-.25-.1a7.724 7.724 0 0 1 -.851.8 1.58 1.58 0 0 1 -.9.267c-.117 0-.234-.384-.351-.584-.167-.234-.333-.467-.534-.734-.233.133-.417.25-.617.367-.067-.034-.15-.084-.217-.117.367-.834.734-1.669 1.118-2.5a1.175 1.175 0 0 1 -.184-.117c-.433.417-1.251.467-1.151 1.4.017.117-.417.417-.567.384-1.068-.284-.818.7-1.035 1.118-.234.467.1.867.7 1.051v-1.285c.751.317 1.435.6 2.069.868-.033.471-.05.817-.083 1.335z"/><path d="m69.658 39.857c.567.234 1.034.284 1.251.551.7.818.15 1.635-.2 2.42.267.133.284.133 1.135-.585-.134-.517-.234-.951-.368-1.518.518.083.785.117 1.018.15.084.5.151.951.251 1.619.684-1 1.134-1.786.617-2.937-.233.267-.417.45-.584.634-.884-.517.434-1.068-.033-1.836-.334.384-.584.7-.851 1a1.744 1.744 0 0 1 -.6.467c-.117.033-.3-.284-.467-.417a1.022 1.022 0 0 0 -.568-.251c-.501.069-.702.403-.601.703z"/><path d="m34.847 25.456a3.624 3.624 0 0 0 -.25-.885 2.905 2.905 0 0 0 -2.7-.7c.351.334.684.618 1 .918h-.251c-.067.367-.117.751-.183 1.168-.367.151-.8.334-1.285.551.283.634.567 1.252.884 1.986.167-.234.267-.3.25-.351-.45-1.3.668-1.935 1.235-2.77.1-.15.634-.016.985-.016.098.032.198.065.315.099z"/><path d="m75.949 43.312a6.961 6.961 0 0 0 -.684 1.184 1.158 1.158 0 0 0 .133.8c.134.317.467.551.534.868a4.132 4.132 0 0 1 -.083 1.185 8.271 8.271 0 0 1 -1.135-.4c-.2-.1-.317-.333-.618-.7.067 1.051-.834 1.952.484 2.62v-1.269c.084 0 .167-.016.267-.016.067.433.134.884.217 1.318.067 0 .117.017.184.017.083-.267.167-.534.234-.7.417-.234.8-.434 1.134-.618-.133-1.5-.25-2.9-.367-4.288z"/><path d="m23.3 35.9c-.017.017.134-.25.25-.233.835.1.668-.4.6-.885-.083-.6-.517-1.285.451-1.669.133-.05.083-.6.133-.951-.717.05-1.135.2-1.168.935-.017.283-.35.534-.567.851.083.15.183.333.317.55-.2.1-.367.184-.417.217-.351 1.469.016 2.47 1.885 2.7-.567-.562-.968-.979-1.484-1.515z"/><path d="m12.669 38.973a7.744 7.744 0 0 1 -.985-1.252 7.668 7.668 0 0 1 -.467-1.485c.2-.3.568-.8.518-.851a6.249 6.249 0 0 0 -1.285-.918c-.067-.033-.451.267-.434.384a3.559 3.559 0 0 0 .4 1.468 12.273 12.273 0 0 1 1.268 2.52c.1.217.451.317.685.467.1-.116.2-.233.3-.333z"/><path d="m24.017 25.906c-.167.317-.334.651-.534 1.018-.284-.183-.484-.3-.735-.45-.317.534-.617 1.051-1.034 1.769-.217-.835-.384-1.386-.568-2.086-.8.834-.267 1.485.1 1.935a1.317 1.317 0 0 0 1.368.284c1.135-.267 1-1.4 1.752-1.836.067-.033-.083-.433-.117-.667-.082.017-.166.017-.232.033z"/><path d="m77.067 42.611c-.451-.785-.935-1.569-1.352-2.37-.117-.217-.017-.534-.017-.951-.55-.334-1.118-.017-1.668.334a3.927 3.927 0 0 0 .283.817c.117.217.334.484.534.5.584.067.952.167 1.068.868.067.383.534.684.818 1.034a2.34 2.34 0 0 0 .334-.232z"/><path d="m47.48 26.557a10.149 10.149 0 0 0 .65 1.218c.1.15.4.167.618.234.033-.25.183-.551.1-.734-.234-.468-.668-.835-.851-1.319a4.7 4.7 0 0 1 -.033-1.485c-.635.684-1.219 1.335-1.836 2 .4.587.5.603 1.352.086z"/><path d="m60.246 39.323c.183-.434.367-1.118 1.184-.45 0-.968.017-1.769-.016-2.57 0-.2-.184-.4-.284-.6a3.336 3.336 0 0 0 -.434.4.567.567 0 0 0 -.117.3 1.7 1.7 0 0 1 -1.118 1.969c.284.35.518.634.785.951z"/><path d="m19.044 28.026c.517.183 1.268.333.367 1.034-.05.034-.033.267 0 .284.133.083.334.167.434.117a5.57 5.57 0 0 0 1.034-.735c.067-.05-.033-.433-.133-.483-.634-.251-.6-.751-.618-1.3 0-.217-.283-.434-.433-.651a3.085 3.085 0 0 0 -.5.651c-.084.315-.084.649-.151 1.083z"/><path d="m62.015 40.124c-.017-.25-.051-.484-.067-.767-.885-.3-.935-.234-.668 1.134h-.68c.2.334.334.584.451.785a8.414 8.414 0 0 1 .851-.084c.45.017 1.468-1.118 1.3-1.518a.524.524 0 0 0 -.484-.134 2.686 2.686 0 0 0 -.433.584z"/><path d="m62.982 38.672c1.219-.2.835-1.268.067-2.67-.133.3-.233.518-.334.751-.066-.033-.116-.066-.183-.1-.084-.3-.184-.6-.3-1.018-.267.451-.467.8-.684 1.168a7.193 7.193 0 0 0 .968 1.052c.134.1.518-.1 1.035-.217-.218.434-.368.684-.569 1.034z"/><path d="m53.771 32.848c-.534-.968.284-1.518.567-2.219a4.727 4.727 0 0 0 .251-1.185c.016-.117-.134-.3-.251-.384-.067-.05-.267.017-.35.1-.788.618-.988 3.004-.217 3.688z"/><path d="m79.57 44.146c.2-.167.584-.384.551-.5-.151-.684.1-.884.767-.7.1-.684-.183-.884-.734-.767a5.1 5.1 0 0 0 -.718.183c-.467.167-.834.167-.834-.484-.284.3-.5.534-.818.885 1.2-.184 1.536.584 1.819 1.418-.016-.002-.033-.035-.033-.035z"/><path d="m59.762 30.913c-.234.567-.067.767.55.65a2.6 2.6 0 0 1 .618.067c-.05.217-.1.451-.134.668-.066.484-.667.934-.15 1.435.05-.618.084-1.168.134-1.719.25.267.5.551.767.818a9.857 9.857 0 0 0 .353-1.132.588.588 0 0 0 -.284-.517c-.617-.134-1.252-.184-1.886-.267-.002.03.032-.003.032-.003z"/><path d="m81.923 44.3c.033-.3.067-.567.1-.818.451.434.167 1.352 1.3 1.185-.2-.517-.267-1.185-.634-1.452a1.159 1.159 0 0 0 -1.569.167 3.519 3.519 0 0 0 -.334.6c.2.083.384.167.584.234.186.03.369.047.553.084z"/><path d="m65.736 44.813c.067.234.167.568.284.985a14.943 14.943 0 0 0 1.418-.918c.5-.384.1-.734-.184-.918a1.017 1.017 0 0 0 -.817.05 3.524 3.524 0 0 0 -.701.801z"/><path d="m31.276 29.544v1.2c.667.116.684.283.467-1.669-.834.267-1.168-.267-1.368-.985l-.251.1c.067.668.134 1.335.217 2 .1 0 .2.017.3.017.167-.234.317-.468.484-.7a.477.477 0 0 1 .151.037z"/><path d="m68.873 40.959a15.666 15.666 0 0 0 -.083 1.6 2.834 2.834 0 0 0 .55.066 8.075 8.075 0 0 0 -.016-1.435 5.59 5.59 0 0 0 -.434-1.151h-1.419c-.15.434-.15.417.534.634a8.633 8.633 0 0 1 .868.286z"/><path d="m32.995 29.044c-.034-.084-.117-.284-.2-.484-.05.016-.116.016-.166.033v1.151c.634-.033 1.218-.066 1.935-.1-.033-.35-.066-.767-.1-1.2-.464.199-.919.383-1.469.6z"/><path d="m72.444 44.029a2.808 2.808 0 0 0 -.083 2.169 4.888 4.888 0 0 1 .2.852 1.392 1.392 0 0 0 .284.35c.1-.1.3-.217.3-.317-.117-.968-.267-1.919-.434-2.887.017-.017-.066-.033-.267-.167z"/><path d="m13.2 32.481c.134.417.234.768.367 1.168.668-.333 1.335-.784 1.586.584a3.752 3.752 0 0 0 .433-.7 4.134 4.134 0 0 0 -1.1-.935 3.758 3.758 0 0 0 -1.286-.117z"/><path d="m59.378 37.888a7.685 7.685 0 0 0 -.067-.868 14.36 14.36 0 0 0 -.284-1.485c-.05-.2-.283-.334-.433-.5a5.532 5.532 0 0 0 -.251.551c-.333 1 .7 1.519.735 2.386a1.174 1.174 0 0 1 .3-.084z"/><path d="m11 32.465h-1.134c-.534.951-.534.951.534 1.718.2-.617.383-1.168.567-1.735z"/><path d="m15.74 42.611c.15-.3.267-.551.484-1 .133.5.2.751.283 1.085.434-.617.317-1.018-.5-1.869-.351.184-.718.35-.952.484.234.415.434.816.685 1.3z"/><path d="m11.434 42.894c.084-.217.217-.517.384-.951-.384-.067-.718-.133-1.118-.2.033.033-.017 0-.033-.05-.117-.217-.251-.434-.368-.651-.116.1-.35.217-.333.3a1.276 1.276 0 0 0 .25.768 9.745 9.745 0 0 0 1.218.784z"/><path d="m21.146 29.177c-.1.317-.8.617-.333 1.418.283-.383.467-.65.617-.851.417.151.734.267 1.051.368-.066-.368-.116-.751-.166-1.035-.451.033-.751.067-1.169.1z"/><path d="m19.01 35.285c-.2 1.6.167 2.486.985 2.3-.234-.8-.467-1.6-.718-2.4-.083.033-.166.066-.267.1z"/><path d="m28.739 33.215c-1.368-.951-1.168.768-2.019.384 0 .134.017.267.017.384a3.911 3.911 0 0 0 1.1.317c1.019.034-.283-1.118.902-1.085z"/><path d="m55.273 31.1c.484.167.984.317 1.552.5.467-.668-.3-.968-.451-1.452-.384.217-.768.417-1.168.634a1.739 1.739 0 0 0 .067.318z"/><path d="m75.1 51.472c.2-.534 1.251-.017.934-.835a1 1 0 0 0 -1.452-.6c.149.4.299.834.518 1.435z"/><path d="m27.554 31.7c.051.434.151.751.7.367.217-.15.518-.184.751-.317.134-.083.3-.3.267-.417a.911.911 0 0 0 -.384-.484c-.083-.05-.3.133-.433.233-.234.2-.468.418-.685.618a.466.466 0 0 1 -.216 0z"/><path d="m70.308 48.385a6.268 6.268 0 0 0 .034 1.485c.066.283.45.517.717.734.05.033.251-.117.384-.184-.167-.233-.334-.45-.484-.684a3.585 3.585 0 0 1 -.334-.717 2.841 2.841 0 0 1 -.066-.668c-.084.017-.167.017-.251.034z"/><path d="m23.1 38.873c-.084.433-.384 1.068.7 1.3a9.156 9.156 0 0 0 -.484-1.6c-.134-.267-.484-.417-.751-.617-.017 0-.2.2-.184.217.184.199.401.399.719.7z"/><path d="m16.39 34.484c-.1.784-1.568-.284-1.335.9.434.133.835.25 1.252.367.033-.416.05-.851.083-1.267z"/><path d="m61.681 33.6-.15 1.1c-.4-.084-.7-.134-1-.2l-.05.251c.367.384.918.767 1.3.35.284-.3.15-1 .2-1.518a2 2 0 0 0 -.3.017z"/><path d="m17.308 32.147v-.083c-.117-.367.417-1.035-.3-1.085-.684-.05-.734.651-.985 1.385.568-.1.935-.166 1.319-.25z"/><path d="m65.018 41.609a1.249 1.249 0 0 0 .534-.3.636.636 0 0 0 0-.434 3.417 3.417 0 0 0 -.817-.067c-.317.017-.835-.167-.7.434.015.15.483.217.983.367z"/><path d="m17.458 34.317c.034-.017.151-.1.284-.167v-.234c-.317-.033-.651-.083-.968-.116.084.45.15.917.267 1.368a1.9 1.9 0 0 0 .518-.017c-.051-.267-.067-.534-.101-.834z"/><path d="m24.267 44.546c-1.285.918-1.185-.467-1.836-1.018.034.334-.016.518.05.635a6.96 6.96 0 0 0 .551.8c.184.233.384.433.567.65.234-.267.484-.534.718-.8a1.833 1.833 0 0 0 -.05-.267z"/><path d="m54.021 54.793c-.05.367-.083.617-.133 1.068a8.7 8.7 0 0 0 1.151-.367c.1-.051.084-.318.117-.5-.367-.068-.734-.135-1.135-.201z"/><path d="m13.971 38.956c.918.434.934-.684 1.719-.768-1.152-.534-1.586-.267-1.7.8z"/><path d="m19.878 32.832a3.678 3.678 0 0 0 .484 1.068c.134.15.551.066.851.1-.083-.217-.1-.484-.25-.634a8.793 8.793 0 0 0 -.9-.651.7.7 0 0 1 -.185.117z"/><path d="m26.1 48.034c.267-.5.517-.9.717-1.335.05-.1-.083-.267-.117-.4a1.592 1.592 0 0 0 -.35.233 4.428 4.428 0 0 0 -.434.534c-.297.367-.397.701.184.968z"/><path d="m71.627 36.82a1.5 1.5 0 0 1 -.935 1.685c.651.267 1.018.034 1.152-.483.116-.384.5-.885-.217-1.202z"/><path d="m23.583 31.814c.067-.434.133-.885.267-1.619-.434.267-.868.417-.885.6a3.171 3.171 0 0 0 .251 1.118 1.464 1.464 0 0 1 .367-.099z"/><path d="m74.831 43.712c.2-1.085-.384-1.736-1.235-1.5.404.482.784.949 1.235 1.5z"/><path d="m51.985 26.424c-.35.05-.7.083-1.135.15.468.434.635 1.251 1.569.784-.167-.367-.317-.667-.45-.951z"/><path d="m22.248 33.8c.25-.468.5-.918.751-1.386a2.613 2.613 0 0 1 -.284-.166c-.484.317-.918.667-.868 1.318.134.083.267.15.401.234z"/><path d="m76.683 49.92c.067-.284.25-.768.167-.835a3.283 3.283 0 0 0 -1.018-.283l.5 1.151a2.451 2.451 0 0 0 .351-.033z"/><path d="m21.614 35.719c-.034-.451-.067-.9-.084-1.235-.4.317-.751.567-1.084.851a.364.364 0 0 0 -.034.3.327.327 0 0 0 .25.117c.267.017.538-.017.952-.033z"/><path d="m20.829 47.166c.484-.534.818-.917 1.168-1.318-.897-.234-1.351.152-1.168 1.318z"/><path d="m11.7 34.968h1.8c-.35-.384-.65-.851-.767-.818a4.275 4.275 0 0 0 -1.033.818z"/><path d="m69.224 38.405c.317-.217.751-.35.934-.65.1-.167-.233-.585-.45-1.068-.251.684-.4 1.1-.551 1.5.017.085.05.152.067.218z"/><path d="m21.463 37c-.25.267-.517.534-.767.817.2.15.4.3.717.551.167-.5.267-.868.384-1.218a1.992 1.992 0 0 0 -.334-.15z"/><path d="m58.71 43.8c-.033.551-1.068.8-.2 1.7.217-.584.4-1.085.568-1.586a2.9 2.9 0 0 1 -.368-.114z"/><path d="m10.9 46.866c-.6.834-.5 1.585.15 1.919-.05-.651-.1-1.285-.15-1.919z"/><path d="m10.633 44.113c-.05-.3-.017-.668-.183-.852-.117-.133-.518-.033-.785-.033a1.509 1.509 0 0 1 -.065.272l.767.718c.083-.039.183-.072.266-.105z"/><path d="m8.3 47.417a5.287 5.287 0 0 0 -1.035.283c-.183.1-.267.351-.4.534.2.067.5.251.584.184a9.516 9.516 0 0 0 .851-1.001z"/><path d="m6.044 36.954c.134-.451.3-.9.4-1.352.033-.134-.1-.3-.167-.451-.134.1-.384.2-.4.317-.05.5-.017 1-.017 1.5a.716.716 0 0 1 .184-.014z"/><path d="m60.029 41.659c-.217.952-.05 1.052 1.235.935-.451-.35-.801-.618-1.235-.935z"/><path d="m19.194 50.788c.3.116.584.217.884.333-.016-.267-.033-.55-.05-.817l-.8.05a3.478 3.478 0 0 1 -.034.434z"/><path d="m10.633 37.538a8.645 8.645 0 0 0 -.35-.918c-.067-.134-.284-.184-.434-.267-.034.2-.184.467-.1.567a4.38 4.38 0 0 0 .751.718.837.837 0 0 1 .133-.1z"/><path d="m28.956 27.809c.2.317.4.634.6.934.15-.1.3-.183.451-.284-.234-.3-.484-.584-.718-.884-.116.083-.216.167-.333.234z"/><path d="m36.165 58.314a2.582 2.582 0 0 0 .217.534 3.312 3.312 0 0 0 .417.534c.017.016.3-.15.284-.2a2.176 2.176 0 0 0 -.267-.718 1.749 1.749 0 0 0 -.45-.3z"/><path d="m81.089 46.816c-.034.484-.084.951-.117 1.435.133.017.267.033.384.05.05-.467.116-.934.166-1.418a3.477 3.477 0 0 1 -.433-.067z"/><path d="m6.778 41.426c.267.133.518.267.785.4.083-.05.15-.083.233-.133-.066-.284-.066-.751-.233-.835-.484-.233-.668.184-.785.584.022 0 0-.016 0-.016z"/><path d="m13.987 38.973-.7.5c.233.2.483.4.717.618l.2-.15c-.083-.334-.167-.651-.25-.985a.055.055 0 0 1 .033.017z"/><path d="m77.434 49.336c-.134.417-.2.667-.35 1.151.467-.1.784-.183 1.118-.25-.251-.267-.468-.537-.768-.901z"/><path d="m9 36.82c-.117-.434-.184-.7-.317-1.185-.351.367-.551.584-.851.9.398.101.699.185 1.168.285z"/><path d="m65.97 53.074c-.251-.267-.518-.534-.768-.818a2.993 2.993 0 0 0 -.317.367c.25.267.517.518.767.768.101-.1.201-.217.318-.317z"/><path d="m16.574 28.359c-.05.334-.083.668-.134 1 .2-.034.568-.034.585-.1a3.921 3.921 0 0 0 -.017-.884 3.852 3.852 0 0 0 -.434-.016z"/><path d="m17.342 32.114c-.034.417-.067.834-.1 1.235.151.017.284.017.434.033a6.263 6.263 0 0 0 .034-.968c-.017-.116-.251-.183-.384-.283-.018.016.016-.017.016-.017z"/><path d="m21.914 50.22c-.033-.217.017-.484-.117-.617a3.832 3.832 0 0 0 -.751-.484l-.15.25c.234.284.484.584.718.868a1.873 1.873 0 0 1 .3-.017z"/><path d="m61.564 49.369c-.083-.45-.184-.9-.267-1.352-.117.017-.234.034-.367.05l.2 1.352c.15-.019.3-.033.434-.05z"/><path d="m57.692 40.441a3.206 3.206 0 0 0 .768.334c.117.017.384-.267.367-.3-.1-.2-.267-.484-.434-.5-.15-.034-.35.216-.701.466z"/><path d="m66.07 41.476c.4-.184.65-.317.968-.451-.284-.25-.534-.484-.885-.8-.017.416-.053.734-.083 1.251z"/><path d="m73.946 37.938a6.38 6.38 0 0 0 -.384.834c-.016.051.267.2.418.3.116-.317.233-.651.35-.968a3.658 3.658 0 0 0 -.384-.166z"/><path d="m58.31 32.8a3.708 3.708 0 0 0 -.067.851c0 .067.3.1.451.151.016-.318.05-.635.066-.952z"/><path d="m63.5 43.061v1.152c.434-.384.717-.768 0-1.152z"/><path d="m68.389 35.635c.167.351.351.684.518 1.035.116-.05.233-.117.35-.167l-.5-1.051c-.117.066-.234.116-.368.183z"/></g></svg>