<svg height="494.608" viewBox="0 0 323.026 494.608" width="323.026" xmlns="http://www.w3.org/2000/svg"><path d="m131.479 327.203 21.364 166.905 19.282-.002 25.211-167.497z" fill="#e9e5ea"/><path d="m152.843 494.608a.5.5 0 0 1 -.5-.437l-21.364-166.9a.5.5 0 0 1 .492-.564l65.857-.594a.464.464 0 0 1 .382.172.5.5 0 0 1 .117.4l-25.211 167.5a.5.5 0 0 1 -.5.425zm-20.8-166.91 21.236 165.91h18.412l25.06-166.492z" fill="#00257d"/><path d="m89.173 87.701-38.556 105.575 119.088 83.501 98.623-102.124-23.634-85.493z" fill="#fff"/><path d="m57.856 152.019-38.3 65.664s4.838 164.65 70.814 237.226c10.88 11.969 64.7.643 64.7.643v-121.352z" fill="#fff"/><path d="m21.686 248.093-21.186 33.057s2.1 88.426 39.763 161.35c19.065 36.911 59.51 5.574 59.51 5.574z" fill="#fff"/><path d="m33.523 494.093-12.105-51.595 83.667.465v51.13z" fill="#fff"/><path d="m105.085 494.593h-71.562a.5.5 0 0 1 -.487-.386l-12.1-51.595a.5.5 0 0 1 .1-.426.546.546 0 0 1 .394-.188l83.667.465a.5.5 0 0 1 .5.5v51.13a.5.5 0 0 1 -.512.5zm-71.166-1h70.666v-50.133l-82.536-.46z" fill="#00257d"/><path d="m116.107 460.705c-9.44 0-22.085-1.031-26.111-5.46-34.16-37.577-51.629-100.175-60.269-146.072a661.717 661.717 0 0 1 -10.675-91.473.5.5 0 0 1 .068-.266l38.3-65.664.863.5-38.227 65.54a663.082 663.082 0 0 0 10.656 91.19c8.617 45.765 26.024 108.17 60.023 145.57 2.507 2.758 13.967 6.5 34.042 4.817 6.936-.583 26.656-3.755 29.786-4.262v-120.925h1v121.352a.5.5 0 0 1 -.419.494c-.227.037-22.74 3.7-30.284 4.339-2.01.169-5.148.32-8.753.32z" fill="#00257d"/><path d="m67.749 494.093-14.779-62.994 102.152.567v62.427z" fill="#fff"/><path d="m155.122 494.593h-87.373a.5.5 0 0 1 -.487-.386l-14.779-62.994a.5.5 0 0 1 .1-.426.449.449 0 0 1 .393-.188l102.153.567a.5.5 0 0 1 .5.5v62.427a.5.5 0 0 1 -.507.5zm-86.977-1h86.477v-61.429l-101.022-.564z" fill="#00257d"/><path d="m39.816 442.722c-38.398-76.862-39.806-160.722-39.816-161.566a.5.5 0 0 1 .079-.275l21.186-33.058.841.539-21.106 32.931c.078 4.024 2.18 85.862 39.709 160.982z" fill="#00257d"/><path d="m265.171 152.019 38.3 65.664s-4.838 164.65-70.813 237.226c-10.881 11.969-64.7.643-64.7.643v-121.352z" fill="#fff"/><path d="m301.341 248.093 21.185 33.057s-2.1 88.426-39.763 161.348c-19.064 36.911-59.51 5.574-59.51 5.574z" fill="#fff"/><path d="m289.504 494.093 12.104-51.595-83.667.465v51.13z" fill="#fff"/><path d="m289.5 494.593h-71.559a.5.5 0 0 1 -.5-.5v-51.13a.5.5 0 0 1 .5-.5l83.665-.463a.52.52 0 0 1 .393.188.5.5 0 0 1 .1.426l-12.1 51.595a.5.5 0 0 1 -.499.384zm-71.063-1h70.667l11.873-50.593-82.536.458z" fill="#00257d"/><path d="m206.92 460.705c-3.607 0-6.743-.151-8.755-.32-7.543-.634-30.056-4.3-30.283-4.339a.5.5 0 0 1 -.419-.494v-121.352h1v120.927c3.131.507 22.851 3.679 29.786 4.262 10.654.895 29.319.379 34.042-4.817 34-37.4 51.407-99.8 60.023-145.57a662.9 662.9 0 0 0 10.656-91.192l-38.231-65.539.863-.5 38.3 65.664a.489.489 0 0 1 .068.266 661.8 661.8 0 0 1 -10.67 91.472c-8.64 45.9-26.11 108.5-60.269 146.072-4.026 4.428-16.672 5.46-26.111 5.46z" fill="#00257d"/><path d="m255.278 494.093 14.779-62.994-102.153.567v62.427z" fill="#fff"/><path d="m255.277 494.593h-87.377a.5.5 0 0 1 -.5-.5v-62.427a.5.5 0 0 1 .5-.5l102.153-.567a.535.535 0 0 1 .394.188.5.5 0 0 1 .1.426l-14.78 62.994a.5.5 0 0 1 -.49.386zm-86.873-1h86.477l14.544-61.993-101.021.562z" fill="#00257d"/><path d="m283.21 442.722-.894-.447c37.528-75.12 39.63-156.958 39.708-160.982l-21.1-32.931.842-.539 21.185 33.058a.5.5 0 0 1 .079.275c-.014.844-1.421 84.704-39.82 161.566z" fill="#00257d"/><path d="m97.429 183.829c-26.129 38.741-16.862 94.138-16.862 94.138l14.976-17.867c-.917 29.145 7.546 46.087 7.546 46.087l8.085-11.05s7.9 41.515 50.454 52.5a.19.19 0 0 0 .192 0c42.551-10.982 50.454-52.5 50.454-52.5l8.085 11.05s8.464-16.942 7.547-46.087l14.975 17.866s9.266-55.4-16.862-94.138" fill="#fff"/><path d="m161.709 348.163a.634.634 0 0 1 -.258-.058c-38.46-9.956-48.88-45.139-50.52-51.788l-7.439 10.166a.5.5 0 0 1 -.851-.072c-.083-.168-8.23-16.821-7.636-44.891l-14.055 16.768a.5.5 0 0 1 -.876-.239c-.093-.556-9-56.038 16.941-94.5l.829.559c-23.706 35.15-18.044 84.725-16.944 92.684l14.26-17.013a.5.5 0 0 1 .883.337c-.8 25.289 5.57 41.489 7.147 45.088l7.582-10.362a.5.5 0 0 1 .894.2c.079.412 8.344 41.314 50.059 52.1 41.716-10.785 49.98-51.687 50.059-52.1a.5.5 0 0 1 .9-.2l7.581 10.362c1.577-3.6 7.942-19.819 7.147-45.088a.5.5 0 0 1 .883-.337l14.26 17.013c1.1-7.959 6.761-57.534-16.944-92.684l.829-.559c25.939 38.462 17.034 93.944 16.941 94.5a.5.5 0 0 1 -.877.239l-14.061-16.768c.594 28.07-7.553 44.723-7.636 44.891a.5.5 0 0 1 -.851.072l-7.439-10.166c-1.641 6.653-12.067 41.864-50.572 51.8a.98.98 0 0 1 -.1.023.57.57 0 0 1 -.136.023z" fill="#00257d"/><path d="m90.414 122.454c40.942 27.956 105.813 26.336 143.626-.1 3.989-2.788.58-16.46.58-16.46l-144.206-1.303s-3.688 15.345 0 17.863z" fill="#0084cc"/><path d="m162.146 143.306c-27.151 0-52.681-7.238-72.014-20.439-3.862-2.637-.59-16.787-.2-18.392a.487.487 0 0 1 .49-.384l144.203 1.309a.5.5 0 0 1 .481.38c.142.571 3.442 14.039-.78 16.99-18.353 12.829-44.2 20.313-70.921 20.533q-.63.004-1.259.003zm-71.337-38.206c-1.025 4.443-2.822 15.1-.113 16.946 19.465 13.29 45.279 20.478 72.7 20.26 26.521-.218 52.165-7.636 70.357-20.353 2.942-2.056 1.413-11.58.473-15.553z" fill="#00257d"/><path d="m90.482.5-56.689 121.812s30.59 43 30.146 41.821 26.543-20.533 26.543-20.533l3.16-51.291 11.527-39.456z" fill="#cc7000"/><path d="m232.884.5 56.593 121.812s-30.59 43-30.147 41.821-26.543-20.533-26.543-20.533l-3.16-51.291-11.527-39.452z" fill="#cc7000"/><path d="m98.327 73-7.845-72.5h142.402l-7.863 72.5z" fill="#cc7000"/><path d="m224.79 69.461-52.368-22.961 5.277-46h-32.032l5.391 46-52.645 22.961-13.795 41 77.065 20 77.25-20z" fill="#fff"/><path d="m161.683 90.48-37.593-10.435 7.077-20.84h60.338l7.787 20.836zm-36.306-11.115 36.306 10.077 36.29-10.073-7.162-19.164h-58.928z" fill="#00257d"/><path d="m224.79 69.461-52.368-22.961 5.277-46h-32.032l5.391 46-52.645 22.961-13.795 41 77.065 20 77.25-20z" fill="#fff"/><g fill="#00257d"><path d="m161.683 130.977-.125-.032-77.585-20.135 14.037-41.719 52.508-22.9-5.418-46.191h33.16l-5.3 46.19 52.23 22.9 14.391 41.718zm-76.42-20.865 76.42 19.832 76.6-19.832-13.894-40.281-52.506-23.021 5.256-45.81h-30.91l5.371 45.81-52.784 23.021z"/><path d="m131.525 59.705h59.633l7.475 20-36.95 10.256-36.949-10.256z"/><path d="m161.183 73h1v57.25h-1z"/><path d="m259.27 164.657a.376.376 0 0 1 -.177-.059.521.521 0 0 1 -.263-.434c-.943-1.6-16.588-13.167-26.334-20.154a.5.5 0 0 1 -.208-.375l-1.876-30.452-68.6 17.762a.5.5 0 0 1 -.25 0l-68.7-17.828-1.88 30.518a.5.5 0 0 1 -.207.375c-9.748 6.99-25.393 18.55-26.336 20.154a.518.518 0 0 1 -.262.434c-.159.084-.272.144-.7-.292h-.009l-.007-.019c-1.094-1.135-4.209-5.486-15.107-20.708-7.5-10.479-14.968-20.979-14.968-20.979a.5.5 0 0 1 -.046-.5l56.689-121.811a.5.5 0 0 1 .453-.289h142.4a.5.5 0 0 1 .453.289l56.595 121.811a.5.5 0 0 1 -.046.5s-7.468 10.5-14.971 20.979c-10.9 15.222-14.013 19.573-15.108 20.708l-.007.019h-.008c-.266.273-.41.351-.52.351zm-224.9-42.4c7.693 10.814 26.624 37.345 29.541 41.1 1.389-1.614 6.712-6.127 26.089-20.021l1.9-30.886a.5.5 0 0 1 .624-.453l69.158 17.947 69.066-17.881a.5.5 0 0 1 .624.454l1.9 30.819c19.374 13.894 24.693 18.407 26.088 20.017 2.917-3.749 21.848-30.28 29.541-41.094l-56.336-121.259h-141.765z"/><path d="m205.612 39.482 5.417-.718v-2.014h-29.5v3.013l2.617.511-2.617.33v.65l4.871 1.037-4.871.893v1.066h29.5v-3.872z"/><path d="m137.811 41.823 4.005-.588v-1.393l-5.24-.634 5.24-.757v-1.701h-29.5v3.146l4.996 1.453-4.996 1.104v1.797h29.5v-1.548z"/><circle cx="195.581" cy="102.656" r="2.052"/><circle cx="210.185" cy="106.156" r="2.052"/><circle cx="129.118" cy="102.656" r="2.052"/><circle cx="114.368" cy="105.406" r="2.052"/><circle cx="102.278" cy="92.906" r="2.052"/><circle cx="221.185" cy="92.906" r="2.052"/><path d="m97.638 39.086h1v30.68h-1z" transform="matrix(.9999585 -.00911049 .00911049 .9999585 -.492 .896)"/><path d="m224.18 39.086h1v30.68h-1z" transform="matrix(.9999585 -.00911049 .00911049 .9999585 -.487 2.049)"/><path d="m190.64 431.742h1v36.574h-1z"/><path d="m197.875 449.154h37.407v1h-37.407z" transform="matrix(.06690082 -.99775963 .99775963 .06690082 -246.558 635.662)"/><path d="m222.812 449.529h36.985v1h-36.985z" transform="matrix(.149 -.989 .989 .149 -239.644 621.616)"/><path d="m130.678 431.742h1v36.574h-1z"/><path d="m105.24 430.95h1v37.407h-1z" transform="matrix(.9977643 -.06683117 .06683117 .9977643 -29.815 8.072)"/><path d="m80.514 431.536h1v36.985h-1z" transform="matrix(.98888131 -.14870695 .14870695 .98888131 -66.023 17.051)"/></g></svg>