<svg xmlns="http://www.w3.org/2000/svg" fill="none" viewBox="0 0 3000 3000" width="3000" height="3000">
    <defs>
        <clipPath id="assetClipPath_OPBCtBwF">
            <path d="m0 0 h 2468.723 a 0,0 0 0 1 0,0 v 2704.28 a 0,0 0 0 1 -0,0 h -2468.723 a 0,0 0 0 1 -0,-0 v -2704.28 a 0,0 0 0 1 0,-0 z"
                  id="path_1S_edkY2" fill="#ffffff"/>
        </clipPath>
        <clipPath id="assetClipPath_s7Y1tHXw">
            <path d="m0 0 h 423.385 a 0,0 0 0 1 0,0 v 2162.116 a 0,0 0 0 1 -0,0 h -423.385 a 0,0 0 0 1 -0,-0 v -2162.116 a 0,0 0 0 1 0,-0 z"
                  id="path_z9Bt5oGk" fill="#ffffff"/>
        </clipPath>
        <clipPath id="assetClipPath_0xSqcAjg">
            <path d="m0 0 h 635.195 a 0,0 0 0 1 0,0 v 1294.061 a 0,0 0 0 1 -0,0 h -635.195 a 0,0 0 0 1 -0,-0 v -1294.061 a 0,0 0 0 1 0,-0 z"
                  id="path_20mHTpHJ" fill="#ffffff"/>
        </clipPath>
    </defs>
    <g transform="translate(241 152) rotate(0 1233.5 1350.5) scale(1 1)" opacity="1">
        <g clip-path="url(#assetClipPath_OPBCtBwF)" transform="scale(0.9993020683162914 0.9993020683162914)"
        >
            <defs/>
            <ellipse cx="1642.239" cy="1507.925" rx="275.492" ry="222.145" fill="rgba(0,0,0,1)"
                     id="XyIpXku6bcS2KK-xh0jJT"/>
            <path d="m1642.239 1742.07c-76.318 0-148.175-24.052-202.334-67.724-54.915-44.28-85.157-103.384-85.157-166.422s30.243-122.14 85.157-166.421c54.16-43.672 126.017-67.723 202.334-67.723s148.175 24.051 202.334 67.723c54.915 44.281 85.157 103.383 85.157 166.421s-30.243 122.142-85.157 166.422c-54.16 43.672-126.017 67.724-202.334 67.724zm0-444.289c-145.29 0-263.492 94.27-263.492 210.144s118.202 210.146 263.492 210.146 263.492-94.271 263.492-210.146-118.202-210.144-263.492-210.144z"
                  fill="rgba(0,0,0,1)" id="H77n_O8B7WqKKVrsC230e"/>
            <path d="m1823.621 2072.314v-413.707c0-61.109-49.033-110.647-109.519-110.647-60.486 0-109.519 49.538-109.519 110.647v423.199l-.314.014.314 150.641 91.117 1.013 2.015-64.139 238.736 67.337-112.829-164.357z"
                  fill="rgba(0,0,0,1)" id="dAsDofc3GalBgMvKQS"/>
            <path d="m1936.45 2248.672c-1.083 0-2.178-.147-3.257-.451l-223.967-63.172-1.533 48.802c-.205 6.529-5.618 11.717-12.127 11.622l-91.117-1.013c-6.565-.073-11.853-5.408-11.867-11.974l-.314-150.642c-.002-.951.107-1.877.314-2.765v-420.473c0-67.628 54.513-122.647 121.519-122.647s121.519 55.02 121.519 122.647v409.984l110.723 161.287c2.86 4.166 2.804 9.678-.141 13.784-2.292 3.196-5.951 5.008-9.753 5.009zm-319.892-28.078 67.517.75 1.646-52.387c.116-3.69 1.924-7.122 4.903-9.304s6.795-2.87 10.349-1.869l206.813 58.333-94.057-137.011c-1.373-1.999-2.107-4.367-2.107-6.792v-413.707c0-54.395-43.747-98.647-97.519-98.647s-97.519 44.253-97.519 98.647v423.198c0 .933-.107 1.842-.309 2.715l.284 136.073z"
                  fill="rgba(0,0,0,1)" id="mMfJ8f47gfNTN5L5_ZeyX"/>
            <path d="m2135.605 1819.801-173.49-375.572c-25.626-55.476-90.914-79.885-145.824-54.52-54.91 25.365-78.65 90.899-53.023 146.375l177.471 384.189-.28.144 63.458 136.624 83.142-37.291-25.068-59.072 244.968-38.986-171.353-101.892z"
                  fill="rgba(0,0,0,1)" id="ohOj7PxIxLXcIs632QKJn"/>
            <path d="m2003.922 2069.044c-4.529 0-8.86-2.577-10.89-6.948l-63.458-136.624c-.4-.861-.689-1.747-.874-2.64l-176.329-381.717c-13.728-29.72-15.176-62.96-4.078-93.598 11.114-30.683 33.475-55.082 62.963-68.703 29.488-13.622 62.562-14.829 93.128-3.401 30.523 11.412 54.894 34.064 68.622 63.784l171.929 372.192 168.153 99.989c4.343 2.583 6.604 7.609 5.652 12.573-.951 4.963-4.909 8.798-9.899 9.592l-229.812 36.574 19.073 44.945c2.552 6.014-.175 12.963-6.136 15.637l-83.142 37.291c-1.594.715-3.262 1.054-4.904 1.054zm-51.433-151.211 57.321 123.412 61.607-27.632-20.474-48.248c-1.442-3.398-1.24-7.272.549-10.502 1.789-3.229 4.965-5.456 8.611-6.036l212.211-33.772-142.844-84.939c-2.084-1.239-3.744-3.081-4.761-5.282l-173.49-375.572c-11.059-23.942-30.677-42.185-55.239-51.368-24.519-9.166-51.033-8.204-74.659 2.709s-41.547 30.478-50.462 55.089c-8.931 24.655-7.759 51.418 3.301 75.36l177.471 384.189c.391.847.675 1.716.858 2.593z"
                  fill="rgba(0,0,0,1)" id="OwwzViiLmSGQUMSQ6p_eu"/>
            <path d="m1839.883 1786.421c-5.887 0-11.025-4.335-11.868-10.332l-16.236-115.524c-15.915-83.49-50.56-100.604-97.676-100.604-10.552 0-20.926 1.691-30.833 5.028-6.28 2.114-13.087-1.261-15.203-7.542-2.115-6.281 1.262-13.087 7.542-15.202 12.381-4.17 25.332-6.284 38.494-6.284 34.364 0 60.567 9.323 80.105 28.503 19.649 19.288 33.126 49.352 41.203 91.907.036.188.067.377.094.567l16.277 115.812c.922 6.562-3.65 12.631-10.213 13.553-.566.08-1.129.119-1.685.119z"
                  fill="rgba(255,255,255,1)" id="T7Ejiyqm0_-3M3WyM6D_"/>
            <path d="m1759.668 958.624c-12.331-68.879-37.585-151.368-179.86-151.368-58.637 0-96.143 3.888-132.554 11.916-63.325 13.963-117.694 78.872-146.249 160.25-26.183 74.617-40.89 352.399-40.89 352.399s-33.495 119.597-34.468 227.151c-.588 64.99-.048 199.877-.048 199.877s22.696 59.851 157.774 47.976c150.547-13.235 232.171-219.841 296.066-298.899 52.568-65.042 138.484-163.677 238.292-116.345-18.774-77.803-152.201-132.349-152.201-132.349s7.414-226.454-5.861-300.608z"
                  fill="rgba(255,255,255,1)" id="j_OAaLq9pIpTFy51rjJMA"/>
            <path d="m1349.726 1820.37c-112.221 0-134.382-54.721-135.348-57.268-.51-1.344-.774-2.77-.78-4.207-.005-1.35-.533-135.708.049-200.032.933-103.165 30.727-215.03 34.555-228.985 1.256-23.251 15.683-280.915 41.479-354.43 14.893-42.441 36.488-80.277 62.45-109.415 27.693-31.081 59.692-51.338 92.539-58.58 39.295-8.664 78.447-12.198 135.138-12.198 67.538 0 115.845 17.645 147.681 53.942 27.364 31.198 37.314 70.013 43.992 107.311 12.063 67.385 7.503 253.05 6.291 294.948 29.721 13.342 134.146 64.877 151.624 137.309 1.084 4.495-.509 9.212-4.097 12.128s-8.532 3.512-12.71 1.529c-40.086-19.01-81.003-14.041-125.087 15.191-37.197 24.665-69.434 61.607-98.729 97.854-15.178 18.78-31.33 44.888-50.031 75.118-29.087 47.02-62.056 100.312-102.804 144.023-48.41 51.93-97.97 79.462-151.513 84.169-12.428 1.093-23.974 1.592-34.697 1.592zm-112.138-64.313c2.13 3.763 8.697 13.254 24.507 22.154 19.085 10.743 55.435 22.353 120.227 16.659 47.37-4.164 91.875-29.229 136.059-76.626 39.137-41.983 71.445-94.208 99.949-140.284 19.128-30.92 35.648-57.623 51.775-77.578 30.502-37.74 64.229-76.311 104.132-102.771 41.624-27.6 82.612-36.446 122.198-26.453-34.452-58.87-134.317-100.357-135.451-100.821-4.64-1.9-7.613-6.487-7.449-11.499.074-2.252 7.222-226.035-5.68-298.101-12.254-68.452-36.357-141.482-168.048-141.482-54.834 0-92.489 3.371-129.971 11.635-56.155 12.382-108.846 70.818-137.509 152.504-25.318 72.15-40.083 346.299-40.229 349.06-.047.88-.19 1.753-.428 2.601-.331 1.181-33.078 119.371-34.024 224.024-.534 59.062-.13 177.454-.058 196.977z"
                  fill="rgba(0,0,0,1)" id="K6CNYMkqc2G5aGV_6Yxl5"/>
            <path d="m1447.254 819.172c-139.804 28.872-325.154 226.118-281.818 432.308 40.92 194.694 326.801 127.668 372.021 103.948 7.735 8.513 45.32 49.18 84.946 41.633 43.218-8.232 31.064-47.337 31.064-47.337s16.492 24.163 29.99 28.787c13.497 4.624 29.481 2.26 40.268-7.078s9.863-38.824 9.863-38.824 20.35 22.905 34.786 23.822c14.626.929 39.843-5.781 39.934-30.713.09-24.696-42.779-66.486-42.779-66.486-97.164-98.153-373.12-19.346-405.318-67.829-28.387-42.745-17.082-82.822 6.536-106.389"
                  fill="rgba(255,255,255,1)" id="HbSUDPFQpRmG6sCLDWTp"/>
            <path d="m1612.289 1410.01c-31.725.002-60.11-22.358-77.641-40.103-22.821 9.397-66.089 20.475-112.53 25.357-48.21 5.067-117.658 5.468-174.712-21.412-50.457-23.771-81.986-64.112-93.712-119.904-9.76-46.437-8.815-94.501 2.807-142.857 10.499-43.678 29.368-86.5 56.083-127.278 59.113-90.228 150.274-159.466 232.243-176.394 6.492-1.342 12.838 2.835 14.179 9.325s-2.834 12.838-9.325 14.179c-74.87 15.462-162.084 82.189-217.021 166.042-52.951 80.821-72.653 170.333-55.479 252.046 10.096 48.038 37.165 82.735 80.454 103.13 52.04 24.517 116.806 24.003 161.975 19.254 53.116-5.583 97.63-18.913 112.274-26.595 4.839-2.539 10.781-1.486 14.455 2.557 12.105 13.322 43.528 43.688 73.82 37.915 9.779-1.863 16.461-5.679 19.86-11.342 5.3-8.83 2.025-20.531 1.989-20.645-1.763-5.673.89-11.782 6.238-14.366 5.349-2.585 11.784-.867 15.133 4.04 5.765 8.42 17.375 21.941 23.967 24.199 9.85 3.375 21.312 1.446 28.524-4.798 3.669-3.176 6.048-18.136 5.723-29.391-.146-5.043 2.88-9.647 7.57-11.508 4.691-1.86 10.043-.596 13.395 3.177 8.102 9.085 21.014 19.463 26.575 19.816 6.819.44 16.729-1.502 22.369-6.777 3.259-3.048 4.786-6.862 4.805-12.004.049-13.525-22.867-41.971-39.155-57.849-.051-.05-.102-.1-.152-.15-53.503-54.047-169.25-50.633-262.253-47.888-74.074 2.186-127.592 3.765-144.533-21.744-14.644-22.051-20.92-45.729-18.149-68.476 2.405-19.745 11.711-38.584 26.206-53.046 4.691-4.681 12.289-4.672 16.971.019 4.681 4.691 4.673 12.29-.019 16.971-19.079 19.038-30.416 53.008-5.015 91.255 2.12 3.192 9.89 8.877 38.108 11.087 22.946 1.797 53.439.897 85.723-.055 97.606-2.88 219.079-6.459 279.945 54.919 1.098 1.076 11.682 11.53 22.379 25.054 16.16 20.429 23.992 36.782 23.944 49.992-.043 11.711-4.335 21.893-12.413 29.446-11.634 10.879-28.438 13.951-40.282 13.2-8.235-.523-16.905-5.246-24.331-10.708-1.938 8.632-5.438 17.381-11.704 22.807-13.662 11.828-34.077 15.5-52.011 9.358-5.427-1.859-10.855-5.63-15.805-10.01-.848 2.15-1.892 4.304-3.167 6.43-7.07 11.777-19.164 19.37-35.948 22.566-4.163.793-8.291 1.161-12.36 1.161z"
                  fill="rgba(0,0,0,1)" id="LdB8Ae53tAdHbwKN4rS5g"/>
            <path d="m1654.477 1366.45c-5.049 0-9.748-3.212-11.403-8.272-3.985-12.183-17.288-32.099-31.897-37.805-6.173-2.412-9.223-9.371-6.812-15.544 2.412-6.173 9.373-9.22 15.544-6.812 24.001 9.375 40.938 37.299 45.976 52.698 2.061 6.299-1.375 13.076-7.674 15.136-1.239.405-2.497.598-3.733.598z"
                  fill="rgba(0,0,0,1)" id="dLo3pYjc18TX2iSziqWmv"/>
            <path d="m1733.597 1344.612c-4.503 0-8.818-2.546-10.864-6.889-10.159-21.565-25.562-34.275-35.754-42.686-5.112-4.218-5.836-11.782-1.618-16.894s11.782-5.836 16.894-1.618c11.124 9.179 29.741 24.542 42.191 50.97 2.824 5.995.253 13.145-5.742 15.97-1.652.778-3.393 1.147-5.105 1.147z"
                  fill="rgba(0,0,0,1)" id="pG4-rXJova2nAzqDy_hv"/>
            <path d="m1679.44 826.983c69.292 23.307 219.642 178.455 311.176 178.455 66.288 0 117.635-52.238 143.958-83.547 26.323-31.308 47.879-66.442 74.865-97.181 10.567-12.036 38.005-49.237 67.292-33.036 20.194 11.171 11.175 48.045 11.175 48.045s41.186-73.481 74.02-57.152c37.932 18.864.594 60.453.594 60.453s40.186-31.23 60.279-11.482c21.726 21.353-23.681 53.821-23.681 53.821s16.036-13.623 26.943-14.462c10.907-.838 22.95 3.436 28.118 13.077 6.029 11.247.626 25.784-8.697 34.499-9.323 8.714-57.598 44.458-125.437 114.082-72.012 73.908-135.493 139.743-235.687 164.43-85.273 21.011-241.252-9.74-316.804-54.256"
                  fill="rgba(255,255,255,1)" id="nZov256lWVw9jCD14P4nq"/>
            <path d="m2018.911 1215.791c-29.89 0-63.355-3.191-98.723-9.55-62.634-11.262-120.487-30.642-158.725-53.172-5.71-3.364-7.611-10.721-4.247-16.431 3.365-5.71 10.721-7.61 16.431-4.247 69.812 41.134 222.697 73.921 307.841 52.943 96-23.653 157.219-86.488 228.104-159.245l1.859-1.908c53.622-55.033 95.137-89.091 115.088-105.458 5.036-4.132 9.015-7.395 10.749-9.017 5.59-5.225 9.48-14.158 6.315-20.062-2.725-5.083-10.426-7.257-16.621-6.782-3.154.242-9.67 3.893-15.34 7.958-2.75 2.269-4.798 3.766-5.544 4.3-5.232 3.742-12.485 2.691-16.441-2.38s-3.21-12.361 1.692-16.526c.939-.798 3.051-2.543 5.923-4.634 8.922-7.513 18.804-18.521 19.39-26.153.133-1.728-.203-3.295-2.274-5.33-9.458-9.295-34.077 4.347-44.519 12.41-4.913 3.792-11.913 3.219-16.135-1.327-4.223-4.547-4.289-11.558-.144-16.176 4.048-4.556 15.19-20.053 13.099-30.848-.309-1.592-1.248-6.438-10.107-10.844-11.013-5.478-27.985 11.748-34.77 19.408-13.437 15.171-23.344 32.697-23.442 32.873-2.938 5.229-9.29 7.488-14.869 5.286-5.58-2.202-8.677-8.183-7.252-14.01 2.186-9.128 3.771-29.661-5.327-34.693-15.96-8.827-33.092 7.604-49.232 26.674-1.201 1.42-2.283 2.696-3.233 3.779-14.032 15.983-26.932 33.699-39.408 50.832-11.178 15.351-22.736 31.224-35.29 46.154-48.997 58.276-100.521 87.825-153.144 87.825-59.67 0-138.522-58.473-208.091-110.062-41.957-31.113-81.587-60.501-106.91-69.019-6.282-2.113-9.661-8.918-7.548-15.2 2.114-6.281 8.919-9.661 15.2-7.548 28.92 9.728 68.141 38.812 113.554 72.489 66.584 49.376 142.053 105.34 193.796 105.34 45.206 0 90.55-26.67 134.773-79.27 12.015-14.29 23.323-29.819 34.258-44.837 12.792-17.568 26.02-35.733 40.774-52.538.867-.988 1.853-2.154 2.949-3.449 6.598-7.796 16.569-19.578 29.174-27.926 21.691-14.366 39.16-10.238 49.995-4.244 8.923 4.937 13.964 12.662 16.664 21.002 17.488-21.196 43.018-42.811 68.066-30.354 16.143 8.027 21.417 19.581 23 27.858 1.013 5.301.808 10.602-.157 15.676 21.015-6.065 33.817.466 41.1 7.623 6.852 6.735 10.095 15.147 9.377 24.328-.326 4.175-1.495 8.282-3.217 12.229 11.971 2.165 22.101 8.912 27.385 18.77 9.465 17.658.892 37.744-11.079 48.934-2.301 2.151-6.126 5.289-11.916 10.039-19.615 16.092-60.432 49.577-113.121 103.652l-1.858 1.907c-35.925 36.874-69.858 71.702-107.685 100.662-42.899 32.843-84.801 53.541-131.868 65.138-19.375 4.774-42.515 7.153-68.318 7.154z"
                  fill="rgba(0,0,0,1)" id="rx4sw5JeawhypnXYVp4Ju"/>
            <path d="m2134.574 921.891c26.323-31.308 47.879-66.442 74.865-97.181 10.567-12.036 39.118-51.103 67.292-33.036 9.706 6.225 12.411 20.116 12.411 20.116 7.358 32.665-13.53 68.224-40.207 82.061 13.46 11.232 20.28 29.896 17.233 47.161-3.048 17.264-15.846 32.465-32.338 38.41"
                  fill="rgba(255,255,255,1)" id="oLPd6-jG2tIRrRpn73vtN"/>
            <path d="m2233.83 991.425c-4.916 0-9.526-3.043-11.29-7.934-2.247-6.235.985-13.111 7.22-15.358 12.415-4.475 22.297-16.212 24.59-29.207 2.294-12.996-2.972-27.407-13.103-35.861-3.084-2.574-4.676-6.52-4.242-10.513.435-3.993 2.839-7.504 6.405-9.354 21.411-11.105 40.193-41.39 34.025-68.772-.026-.114-.05-.229-.072-.343-.475-2.264-2.836-9.567-7.11-12.308-14.71-9.435-31.917 7.292-48.319 26.772-1.305 1.55-2.469 2.932-3.477 4.079-14.032 15.983-26.932 33.699-39.408 50.832-11.178 15.351-22.736 31.224-35.29 46.154-4.265 5.072-11.834 5.729-16.907 1.463-5.073-4.265-5.728-11.834-1.463-16.907 12.015-14.291 23.323-29.82 34.258-44.837 12.792-17.568 26.02-35.733 40.774-52.538.914-1.041 1.969-2.296 3.152-3.702 6.735-8 16.913-20.089 29.573-28.53 22.174-14.785 39.463-9.785 50.062-2.989 13.24 8.491 17.113 25 17.671 27.719 4.016 17.997 1.024 37.921-8.429 56.121-6.246 12.025-15.08 22.721-25.213 30.761 9.495 13.44 13.63 30.594 10.747 46.924-3.798 21.515-19.533 40.204-40.086 47.613-1.344.484-2.718.714-4.069.714z"
                  fill="rgba(0,0,0,1)" id="yU_yomEsw4_05uRgwqpub"/>
            <path d="m1767.438 1173.737c-.29 0-.581-.01-.875-.031-6.61-.476-11.583-6.221-11.107-12.831 2.691-37.388-2.713-117.755-15.411-147.929-2.571-6.108.297-13.145 6.406-15.715 6.109-2.573 13.144.298 15.715 6.406 15.188 36.091 19.785 123.43 17.228 158.96-.455 6.317-5.722 11.139-11.957 11.139z"
                  fill="rgba(0,0,0,1)" id="Q0nTeQAnnmolq9G6pS5U"/>
            <path d="m1216.793 12h491.887c128.503 0 232.831 104.328 232.831 232.831v599.373h-907.58v-649.342c0-100.924 81.938-182.862 182.862-182.862z"
                  fill="rgba(203,203,203,1)" id="DkmQzUDetsnalMOCDPxb"/>
            <path d="m1941.512 856.205h-907.58c-6.627 0-12-5.373-12-12v-649.343c0-107.447 87.414-194.862 194.861-194.862h491.887c65.398 0 126.88 25.467 173.122 71.71 46.243 46.243 71.709 107.725 71.709 173.122v599.374c0 6.627-5.373 12-12 12zm-895.58-24h883.58v-587.374c0-121.767-99.064-220.831-220.831-220.831h-491.887c-94.213 0-170.862 76.648-170.862 170.862z"
                  fill="rgba(203,203,203,1)" id="puI4eY86ORLqIDM6ZrCQ1"/>
            <path d="m1668.465 559.188c-1.593 0-3.21-.318-4.765-.992-6.081-2.635-8.875-9.701-6.24-15.782 15.963-36.842 51.88-64.849 91.501-71.351 35.025-5.747 72.675 5.354 99.521 28.594l23.168-28.815c4.154-5.165 11.707-5.985 16.871-1.833 5.165 4.153 5.986 11.707 1.833 16.871l-31.443 39.107c-2.203 2.74-5.496 4.376-9.01 4.476-3.526.099-6.895-1.345-9.25-3.956-21.569-23.9-56.033-35.977-87.803-30.762-31.769 5.213-60.567 27.669-73.367 57.209-1.961 4.526-6.379 7.232-11.017 7.232z"
                  fill="rgba(0,0,0,1)" id="fwx6vXBp8KGyUkXgLpUTs"/>
            <ellipse cx="1752.946" cy="521.838" rx="31.92" ry="43.478" fill="rgba(0,0,0,1)" id="o2KHAUv8_0GhJzZqVSkje"
            />
            <path d="m1560.706 559.188c-4.638 0-9.055-2.705-11.017-7.232-12.799-29.541-41.598-51.997-73.367-57.209-31.77-5.213-66.233 6.861-87.802 30.762-2.355 2.61-5.733 4.054-9.25 3.956-3.514-.1-6.808-1.736-9.01-4.476l-31.443-39.107c-4.153-5.165-3.332-12.718 1.833-16.871s12.718-3.333 16.871 1.833l23.168 28.815c26.846-23.244 64.491-34.342 99.521-28.594 39.622 6.502 75.539 34.509 91.501 71.351 2.635 6.081-.159 13.147-6.24 15.782-1.554.673-3.173.992-4.765.992z"
                  fill="rgba(0,0,0,1)" id="E8nS2cegeKqla0nr83D0q"/>
            <path d="m1489.321 521.838c0 24.012-14.291 43.478-31.92 43.478s-31.92-19.466-31.92-43.478 14.291-43.478 31.92-43.478 31.92 19.466 31.92 43.478z"
                  fill="rgba(0,0,0,1)" id="pztnXjBKy-FrL3FolAuUD"/>
            <path d="m1515.774 670.773c21.014 31.827 57.807 44.695 95.91 46.334s76.549-15.954 100.217-45.86l-196.127-.473z"
                  fill="rgba(255,255,255,1)" id="RNbo1Y26X4UDLjD0hrbev"/>
            <path d="m1616.576 729.212c-1.803 0-3.604-.039-5.407-.116-47.985-2.063-84.435-19.944-105.408-51.71-2.436-3.689-2.646-8.419-.546-12.311 2.095-3.882 6.151-6.301 10.561-6.301h.029l196.127.474c4.597.011 8.783 2.646 10.779 6.787 1.997 4.14 1.454 9.056-1.398 12.661-24.911 31.476-64.636 50.518-104.735 50.518zm-73.571-46.373c20.882 16.425 47.886 21.363 69.194 22.279 25.029 1.075 50.185-7.034 70.25-21.942l-139.445-.336z"
                  fill="rgba(0,0,0,1)" id="lhsvaONw2ah31Nig3GcFi"/>
            <path d="m1399.968 424.828c-4.48 0-8.779-2.521-10.838-6.833-2.855-5.981-.321-13.144 5.66-15.999 39.461-18.836 85.904-21.766 127.42-8.039 6.292 2.081 9.707 8.869 7.626 15.161-2.081 6.293-8.87 9.708-15.161 7.626-35.693-11.802-75.622-9.283-109.547 6.912-1.668.796-3.428 1.173-5.161 1.173z"
                  fill="rgba(0,0,0,1)" id="MZSLC2NrGj6aX4e15sO"/>
            <path d="m1817.915 426.943c-1.651 0-3.328-.342-4.931-1.066-34.262-15.466-74.236-17.134-109.669-4.575-6.246 2.213-13.106-1.055-15.32-7.301-2.214-6.247 1.055-13.105 7.301-15.32 41.215-14.609 87.709-12.668 127.563 5.321 6.04 2.727 8.727 9.834 6 15.875-2.004 4.438-6.372 7.065-10.944 7.065z"
                  fill="rgba(0,0,0,1)" id="OIMlfSLkfRC8Uu-suT2qd"/>
            <path d="m1334.839 12s-99.489 0-109.13.503c-60.311 3.145-224.381-6.563-342.239 171.477-90.681 136.986-85.101 389.932-85.101 389.932s-1.915 720.249 0 960.322c2.008 251.774-6.969 778.305-273.747 969.211-154.999 110.916-266.049 132.52-322.432 134.708l892.7 53.749s55.7.953 101.843-24.888c56.529-31.657 108.566-100.777 147.802-227.205 44.055-141.955 31.735-474.793 31.735-474.793l4.512-1472.964s-2.901-187.978 56.472-300.633c86.704-164.513 216.832-179.419 277.363-179.419z"
                  fill="rgba(255,255,255,1)" id="aqZPTcrQebqIJliiS3UwF"/>
            <path d="m1095.842 2703.909c-.608 0-1-.005-1.157-.008-.172-.003-.344-.01-.516-.02l-892.7-53.749c-6.385-.385-11.346-5.71-11.278-12.106.069-6.396 5.142-11.615 11.534-11.863 51.647-2.004 161.365-21.881 315.915-132.477 274.812-196.655 270.235-770.714 268.73-959.355-1.885-236.304-.037-946.703 0-960.306-.088-4.29-1.152-66.051 8.636-145.182 13.421-108.503 39.818-193.115 78.458-251.487 48.201-72.814 109.95-123.545 183.532-150.783 61.096-22.617 115.989-24.331 152.314-25.465 5.994-.187 11.171-.349 15.774-.589 9.84-.513 105.68-.519 109.755-.519h379.778c6.627 0 12 5.373 12 12s-5.373 12-12 12c-114.854 0-207.094 59.828-266.747 173.016-57.229 108.589-55.117 293.004-55.089 294.854.001.073.001.147.001.221l-4.511 1472.731c.183 5.136 2.992 87.193.649 184.646-3.248 135.086-14.324 233.968-32.924 293.898-36.941 119.034-88.552 197.803-153.399 234.118-45.246 25.339-98.071 26.424-106.754 26.424zm-.533-24.003c3.715.057 54.318-.264 95.561-23.36 59.303-33.211 107.147-107.327 142.205-220.292 42.942-138.368 31.327-467.484 31.205-470.793-.006-.159-.009-.32-.008-.48l4.511-1472.859c-.046-3.231-.558-49.246 6.042-109.446 9.052-82.56 26.484-148.789 51.813-196.849 41.318-78.399 97.399-132.96 165.369-161.826h-257.167c-27.585 0-100.853.087-108.505.487-4.853.253-10.401.426-16.275.609-68.615 2.143-211.391 6.602-316.583 165.508-36.016 54.408-61.815 137.688-74.609 240.835-9.753 78.634-8.514 141.583-8.5 142.21.002.098.003.197.003.295-.019 7.202-1.893 722.931 0 960.195 1.132 141.963-1.969 328.196-36.287 509.755-19.606 103.724-47.542 193.944-83.031 268.156-41.997 87.818-95.641 155.496-159.444 201.153-69.416 49.674-137.08 86.568-201.11 109.657-9.767 3.522-19.144 6.606-28.109 9.304l792.922 47.741z"
                  fill="rgba(229,229,229,1)" id="VxzC37ySjJBb4GpBwAzm8"/>
            <path d="m903.024 388.977c-5.662 0-10.554-3.958-11.735-9.495l-.659-3.085c-.328-1.536-.352-3.122-.068-4.667 14.735-80.48 37.767-145.209 68.456-192.39.65-1 1.446-1.897 2.361-2.663l1.696-1.418c2.159-1.805 4.883-2.794 7.698-2.794h110.473c3.519 0 6.861 1.545 9.141 4.226s3.268 6.227 2.703 9.7l-.163 1.003c-.262 1.614-.852 3.157-1.732 4.535-28.69 44.901-49.979 107.829-63.275 187.034-.97 5.78-5.974 10.013-11.834 10.013h-113.061zm73.534-192.512c-26.295 41.979-46.55 98.601-60.287 168.512h89.718c12.242-68.27 30.579-124.806 54.633-168.512z"
                  fill="rgba(229,229,229,1)" id="Qb4Cr73kzJZr0YixR7ou_"/>
            <path d="m884.814 774.001h-.023c-6.627-.012-11.99-5.395-11.978-12.022.216-115.992.349-191.156.345-196.16-.002-3.198 1.272-6.265 3.541-8.52 2.249-2.235 5.291-3.489 8.459-3.489h.082l116.689.798c3.386.023 6.604 1.475 8.861 3.999s3.344 5.883 2.991 9.25l-.099.946-.01 3.476c-.074 27.25-.262 96.244-.476 189.749-.015 6.618-5.385 11.972-12 11.973h-.028c-6.627-.015-11.988-5.4-11.973-12.027.199-86.981.375-152.755.459-183.448l-92.514-.633c-.04 26.17-.159 92.385-.33 184.131-.012 6.62-5.383 11.978-12 11.978z"
                  fill="rgba(229,229,229,1)" id="xPv3WLjZMw6SyK5jmRJuD"/>
            <path d="m1001.198 774.001h-116.384c-6.627 0-12-5.373-12-12s5.373-12 12-12h116.384c6.627 0 12 5.373 12 12s-5.373 12-12 12z"
                  fill="rgba(229,229,229,1)" id="YMov6uV8UZ4o9-eDORIu"/>
            <path d="m1000.482 1159.024h-116.105c-3.184 0-6.237-1.265-8.487-3.517-2.251-2.251-3.514-5.305-3.513-8.489 0 0 .064-124.282.136-188.319-.485-1.303-.75-2.714-.75-4.187 0-6.627 5.373-12 12-12h117.032c3.187 0 6.242 1.268 8.493 3.522 2.251 2.255 3.513 5.313 3.507 8.5-.118 62.502-.227 127.869-.312 192.505-.009 6.621-5.379 11.984-12 11.984zm-104.098-24h92.115c.077-56.584.172-113.554.274-168.512h-92.268c-.055 52.883-.104 137.394-.121 168.512z"
                  fill="rgba(229,229,229,1)" id="NgVAJyUwQzyhSebiIPImH"/>
            <path d="m885.475 1544.371c-6.589 0-11.949-5.315-11.999-11.908-.366-48.062-.983-191.433-.99-192.875-.014-3.192 1.245-6.257 3.497-8.519 2.252-2.261 5.312-3.533 8.503-3.533h115.823c3.184 0 6.236 1.265 8.487 3.516 2.25 2.251 3.514 5.305 3.513 8.488-.029 78.217.012 142.978.122 192.483.015 6.624-5.342 12.006-11.966 12.024l-114.955.323h-.034zm11.064-192.835c.144 32.575.552 122.958.853 168.802l91.014-.256c-.086-45.149-.12-101.72-.101-168.546z"
                  fill="rgba(229,229,229,1)" id="V7OXzgHuDm-N20nDu6Y02"/>
            <path d="m989.914 1929.071h-121.886c-3.427 0-6.69-1.465-8.968-4.026-2.277-2.561-3.351-5.973-2.95-9.377 7.765-65.964 14.55-190.506 14.618-191.757.344-6.366 5.607-11.352 11.982-11.352h117.598c3.223 0 6.311 1.297 8.568 3.599 2.257 2.301 3.493 5.414 3.43 8.637-1.334 68.105-4.848 133.17-10.444 193.387-.574 6.171-5.751 10.89-11.949 10.89zm-108.483-24h97.518c4.651-52.925 7.706-109.495 9.098-168.512h-93.995c-1.734 29.984-6.777 112.777-12.621 168.512z"
                  fill="rgba(229,229,229,1)" id="jral6IaDUjieO4ST2yOU4"/>
            <path d="m904.858 2314.119h-.002l-135.524-.024c-4.013 0-7.76-2.008-9.985-5.348s-2.632-7.571-1.087-11.274c.508-1.217 50.933-122.442 64.642-190.268 1.131-5.598 6.051-9.622 11.762-9.622h127.449c3.609 0 7.027 1.625 9.306 4.424s3.177 6.476 2.444 10.01l-.57 2.79c-14.909 71.979-34.209 136.557-57.365 191.941-1.867 4.465-6.232 7.371-11.071 7.371zm-117.67-24.021 109.634.021c19.991-49.281 36.953-105.886 50.505-168.535h-102.993c-12.829 55.436-43.435 134.387-57.146 168.515z"
                  fill="rgba(229,229,229,1)" id="WBE87-RDAxe_yqzuqBvJG"/>
            <path d="m140.365 2398.378c-71.469 3.721-128.365 67.964-128.365 146.675s56.896 142.954 128.365 146.675l954.526.175s-134.7 14.327-134.7-133.828c0-125.121 134.7-159.872 134.7-159.872z"
                  fill="rgba(255,255,255,1)" id="fiXgi5nU5VEWLD-igKYe"/>
            <path d="m1085.25 2704.296c-3.189 0-6.973-.102-11.213-.396l-933.674-.171c-.207 0-.415-.006-.622-.017-78.36-4.079-139.741-73.771-139.741-158.659s61.381-154.579 139.741-158.658c.207-.012.414-.017.622-.017l954.526-.175c6.043 0 11.145 4.492 11.906 10.488.762 5.995-3.055 11.621-8.907 13.131-.305.08-32.456 8.641-63.926 31.562-40.989 29.855-61.772 69.116-61.772 116.69 0 42.347 11.599 74.297 34.475 94.962 22.256 20.105 50.945 25.573 69.159 26.862l19.068.004c6.38 0 11.644 4.994 11.981 11.365s-4.37 11.893-10.714 12.567c-.612.065-4.603.46-10.909.46zm-944.566-24.567 861.259.158c-3.81-2.661-7.55-5.608-11.175-8.867-28.253-25.407-42.578-63.407-42.578-112.944 0-55.173 25.009-102.402 72.323-136.584 5.801-4.19 11.592-7.938 17.227-11.277l-897.056.164c-65.457 3.58-116.684 62.673-116.684 134.675s51.226 131.096 116.684 134.676z"
                  fill="rgba(229,229,229,1)" id="dW6x6gFy9PfLX7WTomkxp"/>
            <path d="m1229.808 2545.053c0 55.366-43.197 82.9-117.71 82.9s-152.125-1.796-152.125-82.9 60.405-146.85 134.918-146.85 134.918 65.747 134.918 146.85z"
                  fill="rgba(203,203,203,1)" id="ykM4p-8JVLmGSCXlbPPI0"/>
            <path d="m1128.811 2641.036c-6.988 0-14.431-.546-22.362-1.75-32.46-4.928-60.241-29.875-67.559-60.667-3.7-15.571-1.459-33.074 6.148-48.022 7.999-15.717 20.881-27.173 36.276-32.258 12.687-4.189 25.945-3.909 37.333.796 6.125 2.53 9.04 9.547 6.509 15.672-2.53 6.126-9.547 9.039-15.672 6.51-5.989-2.472-13.513-2.542-20.643-.188-19.236 6.354-31.667 30.626-26.602 51.942 5.033 21.178 25.141 39.046 47.811 42.487 32.17 4.887 59.133-2.69 77.972-21.902 23.429-23.892 29.521-60.157 25.165-85.499-1.123-6.532 3.262-12.737 9.794-13.859 6.531-1.12 12.737 3.262 13.859 9.793 6.58 38.28-5.856 80.033-31.682 106.369-14.39 14.674-38.684 30.576-76.348 30.577z"
                  fill="rgba(229,229,229,1)" id="Wn_UDhbTRJLPUnUHtLNGe"/>
            <path d="m1105.918 2519.94h-141.597c-6.627 0-12-5.373-12-12s5.373-12 12-12h141.597c6.627 0 12 5.373 12 12s-5.373 12-12 12z"
                  fill="rgba(229,229,229,1)" id="L5rdG00uClGS3qoq8CsZ0"/>
            <path d="m1108.25 2627.422c-26.993-4.097-51.373-25.015-57.685-51.577s8.589-57.549 34.513-66.111c3.165-1.045 6.457-1.758 9.781-2.099l-130.537.305c-4.712 64.388 17.083 101.256 51.433 121.085 28.464 16.431 162.526 31.235 200.108-55.317-16.103 35.085-50.907 62.322-107.612 53.715z"
                  fill="rgba(203,203,203,1)" id="tquju33ikz2JUFYvVAYfn"/>
            <path d="m1085.358 2653.673c-33.913 0-63.174-7.081-75.603-14.256-42.711-24.655-62.024-69.186-57.401-132.354.458-6.26 5.663-11.109 11.94-11.124l130.537-.305h.028c6.382 0 11.649 4.997 11.983 11.373.334 6.386-4.398 11.912-10.759 12.564-2.438.25-4.873.773-7.24 1.555-19.238 6.354-31.669 30.627-26.604 51.943 5.033 21.176 25.142 39.044 47.811 42.487 59.703 9.06 85.088-25.468 94.905-46.856 2.744-5.979 9.792-8.636 15.799-5.951 6.008 2.683 8.735 9.702 6.115 15.736-13.356 30.76-39.5 53.318-75.606 65.235-21.808 7.198-44.761 9.95-65.905 9.951zm-109.621-133.76c-1.211 47.824 13.9 80.179 46.017 98.719 7.899 4.56 29.878 9.897 56.415 10.772-19.392-11.019-34.221-29.507-39.278-50.785-3.7-15.571-1.459-33.074 6.148-48.022 1.981-3.894 4.261-7.523 6.805-10.861l-76.107.178z"
                  fill="rgba(229,229,229,1)" id="ZqqT7cNf1riLqjLT36U4u"/>
            <path d="m1215.855 2585.71c-1.636 0-3.297-.336-4.886-1.046-6.007-2.683-8.734-9.702-6.114-15.736 7.418-17.084 10.177-37.882 8.199-61.816-.529-6.401 4.076-12.083 10.448-12.893 6.374-.816 12.251 3.542 13.338 9.871 4.187 24.357.515 51.556-10.072 74.623-2.019 4.397-6.365 6.997-10.913 6.997z"
                  fill="rgba(229,229,229,1)" id="nXKRDhPGMu8OBO0YM6QhY"/>
            <path d="m1094.89 2703.903c-55.948 0-94.814-15.647-118.818-47.838-19.171-25.709-28.1-60.984-28.1-111.013 0-87.59 65.907-158.85 146.918-158.85 44.084 0 82.489 15.11 108.14 42.547 25.639 27.425 37.566 66.036 34.491 111.661-2.731 40.53-36.118 100.245-99.124 100.246-.216 0-.431 0-.647-.002-6.627-.043-11.965-5.45-11.922-12.078.042-6.601 5.407-11.922 11.998-11.922.188 0 .388.003.578.002 52.31 0 73.523-53.402 75.172-77.859 2.616-38.825-7.093-71.211-28.078-93.657-21.062-22.53-53.241-34.938-90.608-34.938-67.777 0-122.918 60.493-122.918 134.85 0 44.596 7.417 75.312 23.34 96.666 19.16 25.694 51.732 38.185 99.578 38.185 36.186 0 126.303-10.908 181.438-111.944 3.175-5.817 10.466-7.962 16.282-4.785 5.818 3.174 7.96 10.464 4.786 16.281-61.293 112.322-162.037 124.448-202.505 124.448z"
                  fill="rgba(229,229,229,1)" id="CxsxHaZBS_QUtqjnn5w2"/>
            <path d="m1941.512 856.205c-6.627 0-12-5.373-12-12v-605.31c0-118.494-96.401-214.895-214.895-214.895h-153.917c-6.627 0-12-5.373-12-12s5.373-12 12-12h153.917c63.811 0 123.802 24.85 168.924 69.971 45.121 45.122 69.971 105.113 69.971 168.924v605.31c0 6.627-5.373 12-12 12z"
                  fill="rgba(229,229,229,1)" id="AkuUOJDuawdxgRxcTN1u"/>
            <g fill="rgba(203,203,203,1)" id="oclobO0A3Kf5jUXlBV2d">
                <path d="m1250.395 2267.361h-265.398c-6.627 0-12-5.373-12-12s5.373-12 12-12h265.398c6.627 0 12 5.373 12 12s-5.373 12-12 12z"
                      fill="rgba(203,203,203,1)" id="lNrcp52DMTB74hdsF_Jf8"/>
                <path d="m1348.168 224.502h-220.875c-6.627 0-12-5.373-12-12s5.373-12 12-12h220.875c6.627 0 12 5.373 12 12s-5.373 12-12 12z"
                      fill="rgba(203,203,203,1)" id="SBcRFh5pnfES2DZVSRJLB"/>
                <path d="m1299.68 2180.374h-289.433c-6.627 0-12-5.373-12-12s5.373-12 12-12h289.433c6.627 0 12 5.373 12 12s-5.373 12-12 12z"
                      fill="rgba(203,203,203,1)" id="zBA_lTOIexshdtMrnnwv"/>
                <path d="m1288.262 1808.359h-239.142c-6.627 0-12-5.373-12-12s5.373-12 12-12h239.142c6.627 0 12 5.373 12 12s-5.373 12-12 12z"
                      fill="rgba(203,203,203,1)" id="foKCwPiCyA3C0X088yCrb"/>
                <path d="m1288.262 1519.925h-226.393c-6.627 0-12-5.373-12-12s5.373-12 12-12h226.393c6.627 0 12 5.373 12 12s-5.373 12-12 12z"
                      fill="rgba(203,203,203,1)" id="spQY7bbcJzLi5ULfB5ow0"/>
                <path d="m1278.346 1412.396h-222.199c-6.627 0-12-5.373-12-12s5.373-12 12-12h222.199c6.627 0 12 5.373 12 12s-5.373 12-12 12z"
                      fill="rgba(203,203,203,1)" id="a2Ji1DHw--BWfAV5VcSkj"/>
                <path d="m1300.06 1032.705h-242.358c-6.627 0-12-5.373-12-12s5.373-12 12-12h242.358c6.627 0 12 5.373 12 12s-5.373 12-12 12z"
                      fill="rgba(203,203,203,1)" id="rVctcHhW5U3gjQlKN4YM8"/>
                <path d="m1273.698 729.212h-207.804c-6.627 0-12-5.373-12-12s5.373-12 12-12h207.804c6.627 0 12 5.373 12 12s-5.373 12-12 12z"
                      fill="rgba(203,203,203,1)" id="rFsRb7A6a_BzG3zbBIoLY"/>
                <path d="m1229.527 620.467h-163.581c-6.627 0-12-5.373-12-12s5.373-12 12-12h163.581c6.627 0 12 5.373 12 12s-5.373 12-12 12z"
                      fill="rgba(203,203,203,1)" id="AnyYnMBwCVERvvTojA3d"/>
                <path d="m1258.639 324.947h-172.936c-6.627 0-12-5.373-12-12s5.373-12 12-12h172.936c6.627 0 12 5.373 12 12s-5.373 12-12 12z"
                      fill="rgba(203,203,203,1)" id="gh4CiHw4xFDxA8p7TCm1z"/>
            </g>
            <path d="m938.671 337.867c-.343 0-.688-.015-1.034-.044-4.499-.388-8.399-3.269-10.092-7.454-11.972-29.586-17.178-62.057-15.054-93.901.441-6.613 6.159-11.61 12.772-11.175 6.613.441 11.616 6.16 11.175 12.772-1.352 20.277.646 40.841 5.808 60.538 35.137-50.59 79.909-95.134 130.634-129.788 5.472-3.738 12.939-2.333 16.677 3.139 3.739 5.472 2.333 12.939-3.139 16.678-54.881 37.493-102.448 87.141-137.56 143.575-2.202 3.539-6.066 5.661-10.187 5.661z"
                  fill="rgba(167,152,248,1)" id="B7ztP2pb98xEbQXQIQSh7"/>
            <path d="m917.011 706.329c-.343 0-.688-.015-1.034-.044-4.499-.388-8.399-3.269-10.092-7.454-11.972-29.585-17.177-62.055-15.054-93.901.441-6.613 6.157-11.61 12.772-11.175 6.613.441 11.616 6.16 11.175 12.772-1.353 20.278.645 40.841 5.807 60.539 35.137-50.59 79.91-95.135 130.633-129.788 5.473-3.738 12.939-2.333 16.678 3.139s2.333 12.939-3.139 16.677c-54.88 37.494-102.448 87.141-137.561 143.575-2.202 3.539-6.066 5.661-10.187 5.661z"
                  fill="rgba(167,152,248,1)" id="Ms48j7gU9BOs98kjtohbw"/>
        </g>
    </g>
    <g transform="translate(2339 229) rotate(0 212 1079.5) scale(1 1)" opacity="1">
        <g clip-path="url(#assetClipPath_s7Y1tHXw)" transform="scale(1.001452578622294 1.001452578622294)"
        >
            <defs/>
            <path d="m411.254 310.347.131-1.243-42.416-173.493-39.603-34.504-45.92 25.5-77.618 160.856-.131 1.242 111.311 69.367z"
                  fill="rgba(255,255,255,1)" id="tHLBJ77ulreWmU4ncxqP"/>
            <path d="m317.009 370.072c-2.208 0-4.411-.609-6.347-1.816l-111.311-69.366c-3.899-2.43-6.068-6.873-5.587-11.441l.131-1.243c.145-1.375.526-2.713 1.126-3.958l77.618-160.856c1.076-2.231 2.816-4.074 4.982-5.276l45.92-25.5c4.419-2.453 9.9-1.875 13.708 1.443l39.603 34.504c1.868 1.627 3.186 3.792 3.774 6.198l42.417 173.493c.328 1.343.422 2.732.277 4.107l-.131 1.243c-.427 4.051-2.879 7.609-6.513 9.449l-94.247 47.725c-1.708.865-3.567 1.294-5.42 1.294zm-96.183-86.078 96.792 60.318 80.104-40.563-39.506-161.59-30.384-26.473-35.232 19.564-71.773 148.744zm190.428 26.353h.01z"
                  fill="rgba(0,0,0,1)" id="CicLns5qP48gqmHXGdrXG"/>
            <path d="m368.342 133.05-29.594-121.05-54.156 112.233z" fill="rgba(0,0,0,1)" id="crSPzFE1ZGY70GL91Whop"
            />
            <path d="m368.343 145.05c-.417 0-.837-.021-1.257-.066l-83.75-8.818c-3.885-.409-7.327-2.683-9.228-6.095-1.9-3.412-2.021-7.536-.324-11.054l54.156-112.232c2.201-4.561 7.03-7.25 12.064-6.719 5.037.53 9.198 4.165 10.4 9.084l29.595 121.05c.928 3.794-.049 7.803-2.619 10.744-2.291 2.624-5.594 4.106-9.037 4.106zm-65.531-30.965 49.822 5.246-17.605-72.011-32.216 66.766z"
                  fill="rgba(0,0,0,1)" id="Hu4gBuwKW5kA2KpsHRqA"/>
            <path d="m205.437 291.173-177.828 1689.047 96.679 68.75 108.878-47.109 177.829-1689.046z"
                  fill="rgba(255,210,0,1)" id="HAHrS307Iy_KmUOtONGaY"/>
            <path d="m124.29 2060.97c-2.455 0-4.891-.753-6.956-2.221l-96.68-68.75c-3.53-2.51-5.433-6.728-4.979-11.036l177.828-1689.046c.694-6.591 6.605-11.368 13.19-10.678l205.557 21.642c3.165.333 6.068 1.91 8.071 4.384 2.002 2.474 2.94 5.642 2.607 8.807l-177.829 1689.047c-.454 4.308-3.193 8.036-7.169 9.757l-108.877 47.108c-1.528.661-3.15.986-4.764.986zm-84.013-86.466 85.453 60.767 96.236-41.639 175.838-1670.139-181.689-19.129z"
                  fill="rgba(0,0,0,1)" id="S1CbwDN0y80DsYappyB7Z"/>
            <path d="m45.104 1958.553h155.647v206.693h-155.647z" fill="rgba(249,115,147,1)"
                  transform="matrix(.10470204 -.99450364 .99450364 .10470204 -1940.51 1968.26)"
                  id="HxZwzeeS_yy059LtZtGIN"/>
            <path d="m217.558 2162.116c-.418 0-.837-.021-1.257-.066l-205.557-21.643c-6.591-.693-11.372-6.599-10.678-13.19l16.297-154.791c.694-6.59 6.601-11.379 13.19-10.677l205.557 21.642c6.591.693 11.372 6.599 10.678 13.19l-16.297 154.792c-.333 3.165-1.91 6.067-4.384 8.07-2.146 1.737-4.814 2.673-7.55 2.673zm-192.368-44.32 181.689 19.13 13.784-130.924-181.689-19.129z"
                  fill="rgba(0,0,0,1)" id="Taj-HvtGHsmH-XDpBzjSx"/>
        </g>
    </g>
    <g transform="translate(1905 926) rotate(0 318.5 645) scale(1 1)" opacity="1">
        <g clip-path="url(#assetClipPath_0xSqcAjg)" transform="scale(1.002841647053267 1.002841647053267)"
        >
            <defs/>
            <g id="Upload">
                <g id="dOIBHdrkSSK49ip1dFRt-">
                    <path id="Upload-2"
                          d="M467.136,146.911c26.323-31.308,47.879-66.442,74.865-97.181,10.567-12.036,39.118-51.103,67.292-33.036,9.706,6.225,12.411,20.116,12.411,20.116,7.358,32.665-13.53,68.224-40.207,82.061,13.46,11.232,20.28,29.896,17.233,47.161-3.048,17.264-15.846,32.465-32.338,38.41"
                          fill="rgba(255,255,255,1)"/>
                    <path d="M566.391,216.445c-4.916,0-9.526-3.043-11.29-7.934-2.247-6.235.985-13.111,7.22-15.358,12.414-4.475,22.296-16.212,24.59-29.207s-2.972-27.407-13.104-35.861c-3.084-2.573-4.676-6.52-4.241-10.513.435-3.993,2.839-7.504,6.405-9.353,21.412-11.105,40.193-41.39,34.025-68.771-.026-.114-.05-.229-.072-.344-.475-2.264-2.835-9.566-7.11-12.307-14.713-9.437-31.917,7.292-48.318,26.771-1.306,1.55-2.47,2.932-3.478,4.08-14.031,15.982-26.931,33.698-39.407,50.83-11.178,15.351-22.737,31.225-35.291,46.157-4.266,5.073-11.835,5.727-16.908,1.462-5.072-4.265-5.727-11.835-1.462-16.908,12.016-14.291,23.324-29.82,34.26-44.839,12.792-17.567,26.02-35.732,40.773-52.537.914-1.042,1.969-2.296,3.153-3.703,6.735-8,16.913-20.089,29.572-28.529,22.175-14.784,39.462-9.785,50.062-2.988,13.242,8.492,17.114,25.004,17.671,27.72,4.015,17.996,1.023,37.92-8.429,56.119-6.246,12.025-15.08,22.721-25.213,30.761,9.495,13.441,13.63,30.594,10.748,46.924-3.798,21.516-19.533,40.205-40.086,47.613-1.344.484-2.718.714-4.069.714Z"
                          fill="rgba(0,0,0,1)" id="rsJPoLnL_LWj6SaIyCUW"/>
                </g>
                <g id="Upload-3">
                    <g id="NLsZg2LPWGaiCwONWGLCB">
                        <path id="Upload-4"
                              d="M468.166,1044.821l-173.49-375.572c-25.626-55.476-90.914-79.885-145.824-54.52h0c-54.91,25.365-78.65,90.899-53.023,146.375l177.471,384.189-.28.144,63.458,136.624,83.142-37.291-25.068-59.072,228.643,2.923-155.028-143.8Z"
                              fill="rgba(0,0,0,1)"/>
                        <path d="M336.484,1294.064c-4.529,0-8.86-2.577-10.89-6.948l-63.458-136.623c-.4-.862-.69-1.748-.874-2.642l-176.328-381.715c-28.36-61.394-1.944-134.202,58.885-162.302,60.828-28.098,133.39-1.011,161.75,60.382l172.496,373.419,153.29,142.188c3.639,3.376,4.825,8.644,2.982,13.252-1.843,4.609-6.359,7.604-11.296,7.545l-210.263-2.688,17.887,42.149c2.552,6.013-.175,12.963-6.136,15.637l-83.142,37.291c-1.594.715-3.262,1.054-4.904,1.054ZM285.051,1142.856l57.321,123.409,61.607-27.632-20.475-48.247c-1.583-3.73-1.176-8.01,1.083-11.375,2.259-3.366,6.078-5.365,10.117-5.312l197.479,2.524-132.178-122.604c-1.148-1.064-2.077-2.344-2.733-3.766l-173.49-375.573c-22.811-49.379-81.082-71.208-129.898-48.659-48.815,22.55-69.972,81.069-47.162,130.449l177.471,384.189c.391.848.675,1.717.858,2.595Z"
                              fill="rgba(0,0,0,1)" id="KWzdOBGqnLdecu4GJ0uu"
                        />
                    </g>
                    <path d="M172.444,1011.44c-5.887,0-11.025-4.335-11.868-10.332l-16.236-115.523c-15.915-83.49-50.56-100.604-97.676-100.604-10.552,0-20.926,1.691-30.833,5.028-6.28,2.116-13.087-1.261-15.203-7.542-2.115-6.28,1.262-13.087,7.542-15.202,12.38-4.17,25.331-6.284,38.493-6.284,34.365,0,60.567,9.323,80.106,28.503,19.649,19.288,33.126,49.351,41.203,91.906.036.188.067.377.094.567l16.277,115.812c.922,6.562-3.65,12.631-10.213,13.553-.566.08-1.129.119-1.685.119Z"
                          fill="rgba(255,255,255,1)" id="Gb3LIoK47wLQH-VMmBXYI"/>
                </g>
            </g>
        </g>
    </g>
</svg>