<svg xmlns:xlink="http://www.w3.org/1999/xlink" width="32" height="32" viewBox="0 0 32 32" fill="none"
     xmlns="http://www.w3.org/2000/svg">
    <path fill-rule="evenodd" clip-rule="evenodd"
          d="M31.9469 9.9402C31.9469 9.56811 31.9469 9.19601 31.9469 8.77076C31.9469 8.45183 31.9469 8.13289 31.9469 7.81395C31.9469 7.12292 31.8939 6.43189 31.7877 5.74086C31.6816 5.04983 31.4693 4.3588 31.1509 3.72093C30.8325 3.08306 30.408 2.49834 29.9304 2.01993C29.4527 1.54153 28.869 1.11628 28.2322 0.797342C27.5954 0.478405 26.9585 0.265781 26.2156 0.159468C25.5257 0.053156 24.8358 0 24.1459 0C23.8275 0 23.5091 0 23.1907 0C22.8192 0 22.4478 0 22.0232 0H17.6186H14.3284H9.97678C9.60531 0 9.23383 0 8.80929 0C8.49088 0 8.17247 0 7.85406 0C7.16418 0 6.42123 0.053156 5.73134 0.159468C5.04146 0.265781 4.35158 0.478405 3.71476 0.797342C3.07794 1.11628 2.4942 1.54153 2.01658 2.01993C1.53897 2.49834 1.11443 3.08306 0.79602 3.72093C0.477612 4.3588 0.26534 4.99668 0.159204 5.74086C0.0530678 6.43189 0 7.12292 0 7.81395C0 8.13289 0 8.45183 0 8.77076C0 9.14286 0 9.62126 0 9.99336V14.299V17.6478V22.0066C0 22.3787 0 22.7508 0 23.1761C0 23.495 0 23.814 0 24.1329C0 24.8239 0.0530678 25.5149 0.159204 26.2591C0.26534 26.9502 0.477612 27.6412 0.79602 28.2791C1.11443 28.9169 1.53897 29.5017 2.01658 29.9801C2.4942 30.4585 3.07794 30.8837 3.71476 31.2027C4.35158 31.5216 4.98839 31.7342 5.73134 31.8405C6.42123 31.9468 7.11111 32 7.85406 32C8.17247 32 8.49088 32 8.80929 32C9.18076 32 9.55224 32 9.97678 32H22.0763C22.4478 32 22.8192 32 23.2438 32C23.5622 32 23.8806 32 24.199 32C24.8889 32 25.5788 31.9468 26.2687 31.8405C26.9585 31.7342 27.6484 31.5216 28.2852 31.2027C28.9221 30.8837 29.5058 30.4585 29.9834 29.9801C30.461 29.5017 30.8856 28.9169 31.204 28.2791C31.5224 27.6412 31.7347 27.0033 31.8408 26.2591C31.9469 25.5681 32 24.8771 32 24.1329C32 23.814 32 23.495 32 23.1761C32 22.804 32 22.4319 32 22.0066C32 22.0066 32 17.701 32 17.6478V14.299V9.9402H31.9469Z"
          fill="#6232FF"/>
    <mask id="mask0_52_256" style="mask-type:alpha" maskUnits="userSpaceOnUse" x="0" y="0" width="32" height="32">
        <path d="M5.34375 7.25H26.6427V24.75H5.34375V7.25Z" fill="url(#pattern0_52_256)"/>
    </mask>
    <g mask="url(#mask0_52_256)">
        <rect width="32" height="32" fill="white"/>
    </g>
    <defs>
        <pattern id="pattern0_52_256" patternContentUnits="objectBoundingBox" width="1" height="1">
            <use xlink:href="#image0_52_256" transform="matrix(0.00291545 0 0 0.00354834 0 -0.000316461)"/>
        </pattern>
    </defs>
</svg>
