<svg height="2501" viewBox="0 0 1524 2500.802" width="1524" xmlns="http://www.w3.org/2000/svg">
    <path d="m1215.003 1818.931-118.947-706.991s-224.479-1.695-299.218-5.069c-111.337-5.026-219.45-51.588-305.445-122.483s-149.281-168.922-178.493-276.476c-32.932-121.255-12.754-372.471-12.754-372.471.76-17.17-1.936-29.228-15.87-30.665-36.227-3.735-50.394 51.786-50.394 51.786s4.978-39.439-22.676-39.105c-32.33.391-42.066 58.38-42.409 60.484.283-1.755 6.606-43.107-26.048-39.375-26.804 3.063-40.961 74.572-40.961 74.572s-1.923-33.948-25.665-32.835c-24.506 1.149-38.685 66.53-45.382 94.969-39.328 188.307-16.292 389.1 64.661 563.608s219.378 321.773 388.547 413.36c-4.361 136.103-9.991 269.091-14.352 405.193l745.404-38.503z"
          fill="#fff"/>
    <path d="m469.599 1869.435c-3.134 0-6.152-1.227-8.401-3.432-2.397-2.351-3.7-5.598-3.593-8.952 2.182-68.082 4.722-136.496 7.178-202.658 2.367-63.742 4.812-129.578 6.937-195.163-168.736-93.182-306.07-240.408-387.201-415.299-82.175-177.14-105.445-379.965-65.522-571.112.021-.1.042-.199.065-.297l.911-3.889c11.683-49.989 25.598-98.911 55.589-100.317 10.339-.481 18.094 3.189 23.837 8.815.51-1.447 1.04-2.904 1.593-4.367 11.012-29.187 24.226-44.273 40.396-46.121 14.793-1.691 23.827 3.76 28.897 8.844 8.274-15.632 21.17-29.792 40.775-30.029 9.971-.121 18.492 3.453 24.635 10.335.838.938 1.611 1.919 2.325 2.931 10.017-14.789 25.358-28.172 47.486-25.885 10.967 1.131 18.996 6.867 23.22 16.587 2.876 6.618 3.927 14.805 3.407 26.545-.006.144-.016.287-.026.43-.2 2.492-19.63 250.533 12.372 368.365 28.539 105.081 90.527 201.097 174.547 270.362 87.954 72.51 193.911 115.04 298.353 119.755 73.661 3.325 296.524 5.04 298.768 5.057 5.824.044 10.776 4.265 11.743 10.009l118.946 706.99c.567 3.375-.333 6.832-2.475 9.502-2.143 2.669-5.322 4.297-8.74 4.474l-745.404 38.504c-.207.011-.414.016-.619.016zm-427.138-1391.574c-38.833 186.085-16.167 383.526 63.828 555.969 80.015 172.485 216.166 317.332 383.374 407.858 3.995 2.163 6.427 6.396 6.281 10.938-2.182 68.081-4.722 136.495-7.179 202.657-2.298 61.905-4.67 125.786-6.751 189.494l718.92-37.136-115.042-683.784c-44.574-.379-224.553-2.062-289.595-4.999-109.603-4.948-220.598-49.416-312.538-125.212-87.818-72.398-152.61-172.757-182.439-282.59-32.895-121.115-14.202-363.195-13.153-376.356.318-7.478-.17-12.762-1.451-15.709-.539-1.241-.864-1.989-3.67-2.279-.698-.072-1.39-.107-2.069-.107-23.67 0-35.357 42.502-35.472 42.945-1.586 6.127-7.659 9.98-13.88 8.787-6.216-1.192-10.44-6.997-9.647-13.277.639-5.337.458-18.115-4.204-23.305-1.044-1.162-2.575-2.33-6.422-2.299-18.397.223-28.589 37.406-30.709 50.415-1.065 6.537-7.228 10.968-13.762 9.916-6.537-1.059-10.981-7.213-9.93-13.751 1.098-6.825.726-19.014-3.561-23.501-.663-.692-2.669-2.801-9.277-2.046-.97.111-9.788 1.915-20.667 30.749-6.464 17.131-9.852 34.062-9.885 34.231-1.174 5.928-6.592 10.055-12.604 9.641-6.03-.419-10.807-5.258-11.148-11.292-.012-.174-1.522-21.537-12.704-21.537-.139 0-.277.003-.42.01-2.57.121-9.591 5.92-17.757 27.005-7.004 18.082-12.168 40.178-15.585 54.799l-.883 3.767z"/>
    <path d="m202.466 2487.985 177.954-110.574s81.54-462.248 91.73-595.731l720.974-67.798 136.047 671.883s84.763 49.187 130.08 102.22c-153.658 1.84-426.043 0-426.043 0s39.382-473.367-238.68-454.272c-163.333 11.216-173.255 449.764-173.255 449.764l-418.809 4.509z"/>
    <path d="m1280.923 2500.797c-125.342 0-245.982-.801-247.794-.812-3.341-.022-6.522-1.438-8.776-3.904s-3.378-5.761-3.102-9.091c.058-.697 5.698-70.961-2.979-154.622-7.896-76.133-29.562-179.312-87.925-238.504-35.205-35.703-80.623-51.907-134.994-48.18-76.859 5.278-116.896 122.3-136.947 219.54-22.418 108.716-25.108 217.438-25.133 218.523-.146 6.47-5.396 11.658-11.868 11.728l-418.809 4.509c-.043 0-.087 0-.13 0-5.33 0-10.027-3.518-11.521-8.645-1.505-5.169.616-10.707 5.188-13.548l173.396-107.741c9.059-51.685 81.211-465.571 90.655-589.284.444-5.828 5.022-10.487 10.842-11.034l720.974-67.798c6.112-.583 11.667 3.552 12.886 9.565l134.99 666.665c18.753 11.3 88.031 54.667 128.499 102.023 3.025 3.541 3.729 8.512 1.805 12.753s-6.127 6.986-10.784 7.042c-50.937.61-115.308.813-178.474.813zm-234.926-24.733c51.894.309 251.157 1.36 385.558.203-44.922-43.059-107.684-79.704-108.405-80.123-2.969-1.723-5.058-4.634-5.739-7.997l-133.905-661.308-700.235 65.848c-13 143.632-87.777 568.365-91.031 586.81-.593 3.359-2.587 6.308-5.484 8.107l-141.495 87.92 364.44-3.924c1.354-31.33 6.658-121.302 25.201-211.223 13.543-65.677 31.436-118.674 53.182-157.52 28.535-50.972 64.072-78.264 105.626-81.117 61.681-4.232 113.411 14.369 153.754 55.299 28.182 28.591 50.821 68.285 67.29 117.979 12.981 39.168 22.212 84.691 27.436 135.306 6.738 65.275 5.091 121.349 3.81 145.74z"/>
    <path d="m1139.204 1419.841c67.879 0 154.358 9.299 154.356 100.424-.002 92.058-133.012 149.573-162.583 160.579-7.151 2.378-36.253 11.948-31.02 39.859 6.042 32.223 45.613 22.465 61.68 22.148-14.343 5.303-53.177 25.067-45.345 50.129 10.082 32.262 72.053 17.23 72.053 17.23s-44.53 21.034-29.537 53.033c16.564 35.353 76.873-7.165 76.873-7.165s-28.129 20.886-30.513 37.238c-1.934 13.264 5.987 27.344 18.327 32.577 12.34 5.234 26.163-2.68 38.89-10.092 54.274-36.634 320.74-185.467 231.484-504.239-52.41-187.179-215.776-270.143-341.714-294.122-42.047-8.006-110.678-8.114-153.791-6.476"
          fill="#fff"/>
    <path d="m1231.916 1939.574c-4.335 0-8.729-.776-13.106-2.634-17.251-7.315-28.221-26.814-25.516-45.356.174-1.195.432-2.393.764-3.589-7.887 1.559-15.846 1.847-23.14-.087-10.313-2.735-18.259-9.503-22.977-19.572-7.712-16.461-4.12-31.075 3.806-42.787-31.681-1.696-43.02-16.544-46.909-28.989-3.194-10.223-3.08-25.501 14.212-41.81-.257-.06-.512-.121-.768-.185-16.593-4.109-27.008-15.055-30.12-31.651-2.989-15.946 2.316-30.474 14.941-40.903 9.108-7.525 19.729-11.104 23.88-12.484 8.652-3.244 154.574-59.352 154.576-149.262 0-35.73-14.619-59.761-44.697-73.464-29.104-13.26-67.479-14.96-97.658-14.96-6.627 0-12-5.373-12-12s5.373-12 12-12c32.605 0 74.303 1.946 107.608 17.12 38.983 17.76 58.748 49.825 58.747 95.304-.002 105.361-152.956 165.335-170.397 171.826-.133.05-.266.097-.4.142-23.577 7.835-24.421 18.737-23.01 26.259 2.614 13.95 14.87 15.326 39.655 13.063 3.614-.33 7.029-.643 9.992-.701.08 0 .16-.002.24-.002 5.754 0 10.714 4.094 11.788 9.77 1.089 5.755-2.137 11.455-7.63 13.486-15.342 5.672-42.254 21.848-38.052 35.294 5.555 17.781 46.99 11.734 57.783 9.145 5.975-1.438 12.085 1.88 14.128 7.682 2.042 5.802-.626 12.207-6.188 14.834-.067.032-9.742 4.716-17.37 12.495-10.887 11.103-8.881 19.354-6.426 24.597 1.722 3.674 3.93 5.635 7.384 6.554 13.452 3.585 38.857-9.412 51.718-18.443 5.372-3.773 12.785-2.53 16.629 2.792 3.844 5.323 2.701 12.743-2.569 16.657-10.115 7.536-24.713 21.929-25.793 29.335-1.142 7.828 3.855 16.709 11.139 19.798 6.862 2.916 17.961-3.472 27.824-9.214 3.243-2.183 7.134-4.701 11.614-7.603 73.281-47.449 296.282-191.843 214.694-483.23-61.002-217.865-269.848-273.658-332.402-285.569-38.782-7.384-103.48-8.079-151.091-6.272-.155.006-.311.009-.464.009-6.418 0-11.737-5.077-11.983-11.544-.252-6.623 4.913-12.195 11.535-12.447 48.928-1.861 115.733-1.082 156.491 6.679 73.967 14.083 146.189 45.347 203.364 88.033 73.457 54.842 123.138 127.058 147.661 214.641 36.786 131.38 19.029 250.195-52.777 353.146-57.67 82.683-134.879 132.676-171.983 156.701-4.532 2.935-8.446 5.469-11.565 7.574-.221.148-.445.29-.676.424-10.096 5.879-23.016 13.401-36.507 13.401zm-100.939-258.729h.01z"/>
    <path d="m1069.993 41.209-22.863 335.294c-5.553 81.443-76.078 142.964-157.522 137.411-81.443-5.554-142.964-76.079-137.411-157.522l22.665-332.391c-157.055 49.897-275.442 191.619-287.332 365.996-10.573 155.057 65.787 295.961 187.476 375.027l-48.17 323.061c-8.416 56.444 74.962 108.689 168.448 120.054 82.909 10.079 244.361-28.139 245.986-84.699l9.201-320.214c144.269-56.499 250.673-192.148 261.913-356.984 12.086-177.25-89.427-336.001-242.39-405.032z"
          fill="#737af9"/>
    <path d="m824.857 1233.761c-11.587 0-22.513-.588-32.47-1.799-34.874-4.24-69.022-13.825-98.754-27.72-31.053-14.512-55.758-33.07-71.444-53.666-15.832-20.787-22.434-43.62-19.092-66.032l45.94-308.104c-58.407-40.981-106.182-95.847-138.736-159.508-35.963-70.325-52.117-149.363-46.716-228.57 6.09-89.308 38.741-173.345 94.425-243.027 54.387-68.06 126.86-117.927 209.585-144.208 7.567-2.405 15.84-.91 22.088 3.997 6.248 4.905 9.663 12.584 9.123 20.509l-22.665 332.391c-2.25 32.994 8.483 64.889 30.223 89.81s51.883 39.885 84.877 42.135c32.992 2.249 64.889-8.483 89.811-30.223 24.921-21.739 39.884-51.882 42.134-84.876l22.863-335.294c.534-7.841 4.874-14.923 11.617-18.96 6.745-4.036 15.036-4.516 22.199-1.283 40.078 18.087 77.142 42.111 110.16 71.406 32.69 29.003 60.799 62.616 83.546 99.906 47.249 77.458 68.949 166.407 62.757 257.229-5.748 84.3-35.415 164.475-85.793 231.856-45.844 61.317-106.633 109.38-176.521 139.736l-8.754 304.663c-.511 17.774-9.413 34.223-26.459 48.891-43.939 37.809-141.641 60.74-213.943 60.742zm-76.457-1174.475c-135.146 56.793-226.791 183.72-236.926 332.343-9.606 140.882 58.065 276.247 176.607 353.27 7.881 5.121 12.048 14.369 10.661 23.665l-48.171 323.061c-1.406 9.433 1.892 19.482 9.803 29.869 23.128 30.366 78.508 55.611 137.806 62.82 59.437 7.23 169.91-13.772 209.312-47.678 6.117-5.264 9.684-10.325 9.786-13.886l9.201-320.214c.276-9.622 6.275-18.148 15.238-21.658 139.678-54.7 236.521-186.693 246.721-336.269 10.216-149.822-67.914-292.534-196.967-365.615l-20.398 299.142c-3.122 45.785-23.887 87.614-58.47 117.782s-78.847 45.064-124.629 41.94c-45.785-3.122-87.614-23.887-117.782-58.47s-45.062-78.844-41.94-124.629l20.147-295.473z"
          fill="#737af9"/>
    <circle cx="782.363" cy="907.988" r="24.332"
            transform="matrix(.99505037 -.09937185 .09937185 .99505037 -86.353 82.236)"/>
    <circle cx="865.268" cy="915.482" r="24.332"
            transform="matrix(.99505037 -.09937185 .09937185 .99505037 -86.688 90.512)"/>
    <path d="m820.931 1074.506c-24.719 0-49.516-8.193-68.553-23.941-14.136-11.693-25.081-27.417-31.652-45.472-1.89-5.19.786-10.928 5.977-12.817 5.187-1.888 10.927.787 12.816 5.977 5.356 14.714 14.211 27.475 25.607 36.902 25.808 21.35 64.659 25.604 94.477 10.339 16.025-8.203 29.491-22.149 37.918-39.269 2.438-4.956 8.431-6.997 13.388-4.556 4.955 2.439 6.995 8.433 4.556 13.388-10.314 20.956-26.916 38.088-46.748 48.239-14.724 7.537-31.237 11.21-47.785 11.21z"/>
    <path d="m862.698 595.882c-.44 0-.881-.012-1.325-.036-51.976-2.827-99.251-25.47-133.117-63.758-34.522-39.031-52.362-90.176-48.942-140.321l22.665-332.392c.901-13.225 12.339-23.22 25.577-22.312 13.224.901 23.213 12.353 22.312 25.577l-22.665 332.392c-2.514 36.865 11.321 76.213 37.008 105.254 17.89 20.226 49.722 44.908 99.771 47.63 13.235.72 23.381 12.033 22.661 25.268-.696 12.791-11.287 22.697-23.943 22.697z"
          fill="#a798f8"/>
</svg>