<svg xmlns="http://www.w3.org/2000/svg" viewBox="0 0 3000 3000" width="3000" height="3000"><g transform="translate(1912.0 849.0) rotate(0.0 512.0 796.5) scale(0.6917946666954914 0.6920406205688548)"><svg width="1480.208" height="2301.888" viewBox="0 0 1480.208 2301.888"><path d="M1444.312 610.337c-26.655-7.353-37.249 25.788-37.249 25.788s20.057-65.186-14.528-76.953c-20.29-6.903-35.42 19.017-37.764 23.228 1.894-11.104 10.745-58.023-23.639-68.051-27.204-7.935-41.962 27.236-45.734 48.397 2.557-17.115 1.97-40.125-3.342-56.445-6.153-18.905-22.371-28.779-42.136-26.624-30.639 3.34-36.137 61.078-36.404 76.492-1.597 92.079-24.945 331.535-188.622 376.987-128.931 35.803-262.973-144.834-314.218-182.692-193.776-143.152-423.475-44.936-423.475-44.936s19.184 492.568 33.645 692.395l628.255-55.5-77.448-169.359c144.384 33.979 306.303-1.642 417.11-100.248 150.512-133.94 189.55-309.185 189.445-390.157-.054-41.39-3.122-66.592-23.896-72.322z" fill="#fff"/><path d="M310.846 1409.924a11.995 11.995 0 0 1-11.968-11.133c-14.309-197.739-33.475-687.866-33.667-692.794a12.003 12.003 0 0 1 7.273-11.501c2.418-1.034 60.171-25.399 142.813-32.141 48.613-3.965 95.743-.941 140.084 8.987 55.591 12.447 106.874 35.821 152.425 69.472 12.065 8.913 27.313 24.138 46.618 43.414 32.886 32.836 73.813 73.702 119.334 103.495 52.097 34.098 97.216 45.179 137.926 33.872 66.601-18.495 116.043-73.453 146.954-163.348 27.918-81.189 32.295-168.51 32.881-202.285.059-3.399 1.964-83.293 47.102-88.213 25.522-2.783 47.053 10.892 54.848 34.84 1.093 3.36 1.994 6.872 2.725 10.462 2.381-2.323 4.994-4.423 7.861-6.202 9.249-5.739 19.776-7.128 30.438-4.019 13.218 3.855 29.814 14.366 33.821 42.547.242 1.704.428 3.406.564 5.093 8.221-4.466 17.557-6.048 27.521-2.657 13.309 4.528 28.813 17.156 28.442 51.425 6.501-2.319 14.047-2.844 22.661-.468 30.153 8.318 32.651 42.907 32.704 83.875.109 84.203-40.514 263.024-193.467 399.136-55.263 49.178-124.836 84.644-201.199 102.562-66.87 15.69-136.59 17.465-203.104 5.316l67.577 147.774a12 12 0 0 1-9.857 16.944l-628.255 55.5c-.353.031-.705.046-1.056.046zm-21.317-696.313c2.572 64.996 19.306 482.007 32.425 671.285l599.169-52.931-70.384-153.91a12 12 0 0 1 13.662-16.672c144.773 34.072 300.493-3.301 406.384-97.532 146.592-130.452 185.526-300.98 185.422-381.177-.054-41.81-4.002-57.712-15.087-60.77-4.146-1.144-9.688-1.525-15.794 5.746-4.603 5.48-6.829 12.117-6.852 12.183-2.011 6.289-8.717 9.743-15.013 7.769-6.299-1.976-9.811-8.697-7.869-15.007 4.282-14.023 12.209-55.554-6.924-62.063-11.274-3.84-22.924 16.823-23.413 17.704a11.995 11.995 0 0 1-14.47 5.483 12 12 0 0 1-7.845-13.337l.131-.764c5.36-31.141.212-49.224-15.301-53.749-4.164-1.215-7.577-.792-11.064 1.372-9.882 6.131-17.032 23.794-19.495 37.611-1.151 6.46-7.27 10.797-13.753 9.737-6.475-1.06-10.898-7.125-9.929-13.615 2.577-17.26 1.418-37.739-2.885-50.959-4.318-13.266-15.039-19.975-29.424-18.409-17.405 1.897-25.331 43.122-25.707 64.771-.605 34.916-5.149 125.242-34.182 209.672-15.13 44.001-34.953 80.895-58.921 109.658-28.808 34.572-63.901 57.791-104.307 69.011-25.603 7.108-53.052 6.763-81.591-1.03-23.994-6.553-49.531-18.626-75.9-35.886-47.587-31.146-89.483-72.979-123.148-106.593-17.862-17.836-33.29-33.24-43.92-41.093-97.105-71.737-203.845-79.751-276.298-73.841-61.977 5.055-109.843 20.751-127.719 27.335z"/><path d="M1306.51 733.739c-.649 0-1.308-.053-1.97-.162-6.539-1.08-10.965-7.256-9.885-13.795 8.428-51.035-.394-70.537-6.402-77.619-4.21-4.962-9.847-7.374-17.231-7.374-2.837 0-9.482 0-15.452 15.237-4.62 11.793-6.783 27.714-8.522 40.506-1.058 7.781-1.971 14.5-3.292 19.785-1.607 6.429-8.119 10.339-14.552 8.731-6.43-1.607-10.339-8.123-8.731-14.552 1.001-4.004 1.872-10.412 2.794-17.196 1.911-14.061 4.29-31.561 9.958-46.029 9.87-25.194 26.003-30.482 37.798-30.482 14.449 0 26.736 5.48 35.532 15.847 15.446 18.206 19.41 50.861 11.781 97.056-.971 5.877-6.059 10.046-11.825 10.047zm-433.797 475.496a12 12 0 0 1-10.821-6.798c-.943-1.96-94.916-196.765-142.664-261.529-3.933-5.334-2.796-12.847 2.538-16.78 5.336-3.933 12.846-2.797 16.78 2.538 49.076 66.567 141.078 257.275 144.971 265.361 2.874 5.972.364 13.143-5.607 16.018a11.949 11.949 0 0 1-5.196 1.19zm28.523 50.389-595.97 46.187-3.367 984.077 372.04-8.99-127.952-147.02s5.29-352.449 18.389-409.299 41.735-112.221 89.249-146.073c51.453-36.658 122.691-43.477 180.164-17.245s96.908 84.752 105.011 147.407c14.344 110.907-227.063 294.541-227.063 294.541l237.28 229.027 2.701-191.793s190.698-62.291 217.59-282.86c31.433-257.821-160.957-443.252-268.073-497.959z"/><path d="M301.899 2301.888a12.002 12.002 0 0 1-12-12.041l3.367-984.077a12 12 0 0 1 11.073-11.923l595.969-46.188a12 12 0 0 1 6.386 1.277c52.601 26.865 130.265 87.417 190.485 176.793 31.962 47.435 55.554 97.812 70.12 149.73 16.792 59.847 21.476 121.61 13.921 183.575-6.334 51.955-22.116 99.688-46.909 141.877-19.851 33.78-45.466 64.053-76.135 89.979-40.295 34.064-78.353 51.456-94.574 57.93l-2.585 183.584a11.999 11.999 0 0 1-20.333 8.465l-237.28-229.027a12.002 12.002 0 0 1 1.068-18.184c.598-.455 60.507-46.216 117.787-104.715 73.827-75.399 110.012-137.205 104.64-178.736-7.786-60.205-46.29-114.385-98.093-138.03-53.919-24.609-119.946-18.291-168.218 16.102-40.498 28.853-70.514 78.216-84.519 138.994-11.87 51.518-17.327 360.643-18.01 402.196l124.931 143.55a12 12 0 0 1-8.761 19.875l-372.04 8.99-.291.003zm15.33-984.968-3.287 960.673 334.187-8.076-111.191-127.763a12.001 12.001 0 0 1-2.947-8.058c.217-14.443 5.461-354.382 18.694-411.812 15.323-66.501 48.699-120.891 93.979-153.152 55.127-39.275 130.534-46.493 192.108-18.388 29.753 13.58 55.985 35.735 75.861 64.071 19.312 27.533 31.785 59.593 36.069 92.714 6.444 49.828-31.063 116.713-111.481 198.797-43.753 44.659-88.973 82.022-109.24 98.212l207.43 200.214 2.311-164.079a12 12 0 0 1 8.273-11.238c.447-.147 46.724-15.688 95.438-57.109 64.892-55.176 103.234-127.78 113.965-215.796 16.901-138.631-34.24-248.898-80.12-316.99-56.533-83.904-128.667-141.048-178.525-167.289l-581.522 45.068z"/><path d="M340.106 936.488c-51.274 45.485-102.754 112.791-93.253 213.406 10.912 115.554 139.563 203.511 212.381 222.666 12.012 3.16 53.392 7.538 53.376 42.449-.006 13.507-13.163 23.981-26.196 27.527s-40.217-.31-40.217-.31 66.413 10.271 61.078 48.784c-4.138 29.87-75.599 11.143-75.599 11.143s57.19 22.82 53.765 52.198c-3.841 32.942-69.211 21.74-69.211 21.74s20.736 7.145 28.768 14.359c8.031 7.213 12.996 18.981 9.092 29.046-6.377 16.44-29.22 17.268-46.487 13.692-60.817-12.596-398.803-154.44-395.579-535.749C15.082 735.78 354.006 683.21 354.006 683.21" fill="#fff"/><path d="M423.774 1646.958c-5.814 0-12.046-.662-18.605-2.02-28.099-5.819-130.207-42.661-227.514-132.543-52.998-48.955-94.904-105.129-124.556-166.964C17.123 1270.404-.734 1186.933.023 1097.337c.716-84.59 19.668-159.684 56.332-223.196 29.396-50.921 70.112-94.437 121.021-129.337 86.37-59.212 171.221-72.899 174.79-73.453 6.547-1.018 12.682 3.469 13.698 10.019 1.016 6.549-3.47 12.682-10.02 13.698-.818.128-83.742 13.63-165.658 70.054C81.158 840.22 25.252 952.062 24.022 1097.541c-1.665 197.049 91.482 324.775 169.918 397.225 86.37 79.781 182.887 119.793 216.096 126.672 13.565 2.808 29.637 2.042 32.866-6.282 1.715-4.422-.831-11.205-5.923-15.778-4.291-3.854-17.003-9.303-24.658-11.941a12 12 0 0 1 5.935-23.173c14.242 2.411 40.783 3.294 51.331-4.617 2.424-1.817 3.6-3.816 3.935-6.685 1.603-13.748-26.682-31.797-46.303-39.667-5.881-2.359-8.919-8.885-6.933-14.901a11.992 11.992 0 0 1 14.432-7.848c18.326 4.78 48.65 8.503 58.67 1.809 1.47-.982 1.838-1.809 2.001-2.991 3.555-25.66-50.479-35.193-51.025-35.278-6.521-1.008-11.004-7.092-10.036-13.619.967-6.526 7.018-11.053 13.556-10.122 9.576 1.351 27.653 2.713 35.381.612 8.524-2.319 17.344-8.92 17.347-15.953.008-17.669-14.814-24.401-38.731-29.535-2.178-.468-4.06-.872-5.697-1.303-42.401-11.154-93.913-41.01-134.434-77.917-36.028-32.816-80.341-86.385-86.842-155.227-8.047-85.218 23.76-158.329 97.236-223.511 4.959-4.396 12.543-3.945 16.94 1.014 4.398 4.958 3.944 12.542-1.014 16.94-67.345 59.742-96.546 126.242-89.269 203.3 5.779 61.206 46.209 109.774 79.108 139.739 37.26 33.938 86.081 62.376 124.378 72.451 1.107.291 2.739.642 4.629 1.047 8.183 1.757 21.878 4.696 33.664 11.744 15.729 9.406 24.038 23.676 24.03 41.268-.007 16.387-11.825 28.79-25.25 35.384 19.868 14.8 21.2 32.158 19.802 42.259-1.134 8.183-5.441 14.982-12.458 19.664-6.221 4.151-14.439 6.601-24.85 7.376 9.973 9.92 17.132 22.091 15.505 36.044-1.094 9.388-5.729 17.385-13.402 23.129-6.85 5.126-15.658 8.029-24.706 9.567 7.054 9.638 10.933 22.746 6.026 35.397-5.787 14.918-21.039 23.123-41.504 23.124z"/><path d="M857.967 653.43c-3.675-14.772-7.841-31.516-10.106-57.529-3.247-37.278-3.967-56.31-4.663-74.715-.707-18.695-1.438-38.026-4.735-75.89-3.302-37.903-6.046-57.079-8.7-75.623-2.608-18.221-5.306-37.063-8.549-74.305-2.542-29.187-.855-47.442.633-63.548 2.284-24.723 4.257-46.075-10.253-91.309-4.407-13.74-12.73-18.536-18.936-20.139-20.45-5.284-44.261 17.104-65.27 36.86l-1.075 1.011a11.993 11.993 0 0 0-3.396 5.731c-10.469 40.355-47.055 58.569-84.097 58.568a114.53 114.53 0 0 1-22.993-2.339 11.968 11.968 0 0 0-3.728-.174c-23.837-5.601-44.273-17.483-57.841-33.696-14.761-17.64-20.106-38.912-15.46-61.515a11.997 11.997 0 0 0-2.938-10.557c-7.021-7.604-13.301-14.519-18.842-20.619C474.315 46.616 380.278 0 380.278 0s-30.56 0-47.906 8.701c-13.189 6.616-24.838 8.346-31.815 26.459-18.545 48.147-3.728 77.602.281 103.716 3.212 20.919 6.266 40.808-1.773 73.483-5.94-7.501-19.924-24.117-19.924-24.117s-48.536 1.274-91.244 22.731c-30.056 15.1-57.805 42.97-61.199 75.381-3.86 36.864-1.101 68.099 12.731 93.407 13.84 25.322 37.355 36.831 67.453 45.315 17.312 4.881 31.972 8.444 42.889 6.401 5.607-1.049 19.77-2.253 19.77-2.253s1.129 13.405.97 20.029c-.425 17.693-6.525 31.226-8.206 47.146-2.153 20.393-.432 42.229-6.312 55.321-12.31 27.406-5.574 76.665 6.312 89.755 13.639 15.019 45.302 33.976 73.889 32.701 15.7-.701 36.02 8.005 57.813 13.812 32.614 8.691 49.335 7.476 65.549 11.072 15.972 3.542 28.994 10.926 61.12 19.487 32.732 8.723 49.752 8.328 66.111 11.612 15.999 3.212 28.989 13.517 61 22.048 26.271 7.001 45.501 2.779 58.528 9.181 19.222 9.444 37.495 12.486 76.839 23.583 22.169 6.253 39.841-1.057 45.297-2.81 13.29-4.271 33.65-42.855 33.65-42.855s2.702-58.408-4.133-85.877z" fill="#f60080"/><path d="M938.13 184.828c-4.211-27.79-84.295-68.256-143.266-63.261-5.096.405-11.492 21.35-12.775 26.3-11.172 43.196-60.995 76.514-95.991 69.351-69.521-14.23-90.166-76.422-73.543-128.445 2.598-25.165-67.421-31.923-72.479-32.785-21.236-1.194-38.945-19.374-54.226-24.227C435.713 15.837 411.712 1.117 375.032 0c-10.755 1.009-22.728 5.344-28.695 19.266-8.675 20.242-9.771 67.426-4.627 110.011 3.087 25.551 17.273 41.214 8.629 71.461-55.046-36.077-136.055-3.17-152.606 58.824-15.899 59.551 13.28 128.807 72.885 144.462 19.771 6.391 35.563 1.527 50.797 5.049 15.891 31.707 2.988 60.52-1.305 87.582-7.327 46.192-15.127 85.783 3.054 115.104 25.29 40.787 67.453 31.754 123.706 49.447 64.252 17.12 71.883 11 136.918 28.325 64.253 17.124 63.214 21.798 128.255 39.123 41.984 9.397 130.859 31.993 144.797 17.946 15.865-15.988 6.727-43.436 11.25-74.338 4.615-31.527 16.156-106.223 21.711-132.55 5.993-31.859 18.509-63.918 23.167-96.597 5.295-37.146 2.642-75.074 8.21-114.076 8.582-64.397 22.976-101.062 16.953-144.213z" fill="#f97393"/><path d="M608.839 435.077a9.989 9.989 0 0 1-8.248-4.334c-11.912-17.319-29.526-30.291-49.6-36.526-20.072-6.235-41.937-5.527-61.564 1.995-5.157 1.976-10.94-.602-12.916-5.759-1.977-5.157.603-10.94 5.76-12.916 23.799-9.121 50.312-9.981 74.654-2.42 24.341 7.561 45.7 23.291 60.145 44.292 3.13 4.55 1.979 10.776-2.572 13.906a9.96 9.96 0 0 1-5.658 1.762z"/><ellipse cx="538.663" cy="406.712" rx="22.692" ry="31.42"/><path d="M794.869 484.612a9.98 9.98 0 0 1-7.66-3.566c-13.523-16.09-32.306-27.304-52.887-31.576s-42.275-1.46-61.086 7.918c-4.941 2.464-10.946.455-13.411-4.488s-.455-10.947 4.487-13.411c22.811-11.372 49.12-14.782 74.074-9.602 24.957 5.18 47.733 18.779 64.133 38.291 3.554 4.228 3.007 10.536-1.221 14.089a9.964 9.964 0 0 1-6.43 2.345z"/><ellipse cx="731.819" cy="463.552" rx="31.42" ry="22.692" transform="matrix(.14287078 -.98974135 .98974135 .14287078 168.467 1121.636)"/><path d="M595.05 336.754a9.969 9.969 0 0 1-7.155-3.013c-18.331-18.771-49.206-25.051-73.41-14.935-5.096 2.13-10.954-.274-13.083-5.371-2.13-5.096.274-10.953 5.37-13.083 31.976-13.364 71.219-5.38 95.432 19.415 3.858 3.951 3.784 10.282-.168 14.141a9.972 9.972 0 0 1-6.985 2.846zm203.577 74.7a9.986 9.986 0 0 1-8.105-4.133c-15.395-21.244-45.025-31.964-70.444-25.488-5.354 1.364-10.797-1.871-12.159-7.222-1.363-5.352 1.87-10.796 7.222-12.159 33.586-8.554 71.241 5.071 91.577 33.134 3.24 4.472 2.242 10.725-2.229 13.965a9.954 9.954 0 0 1-5.86 1.903zm-151.495 159.7c-14.85 0-29.686-1.966-43.956-5.949-38.647-10.788-73.179-36.382-94.742-70.219-2.968-4.657-1.598-10.839 3.06-13.807 4.657-2.969 10.838-1.597 13.808 3.059 18.947 29.734 49.292 52.224 83.252 61.704 33.96 9.479 71.565 5.956 103.175-9.666 4.953-2.448 10.949-.417 13.396 4.534s.417 10.948-4.534 13.396c-22.688 11.213-48.092 16.949-73.457 16.949z"/><path d="M732.684 569.998a9.974 9.974 0 0 1-7.45-3.326 80.205 80.205 0 0 1-18.869-37.6c-1.095-5.413 2.406-10.689 7.819-11.784 5.415-1.094 10.689 2.405 11.784 7.819a60.184 60.184 0 0 0 14.16 28.216c3.686 4.113 3.34 10.435-.773 14.121a9.96 9.96 0 0 1-6.671 2.553z"/></svg></g><g transform="translate(59.0 767.0) rotate(0.0 712.5 843.0) scale(0.6924386669413745 0.692167098826354)"><svg width="2057.944" height="2435.828" viewBox="0 0 2057.944 2435.828"><path d="M1939.551 448.687c73.976 98.846 187.311 386.918 18.625 616.336-197.42 268.498-537.428 225.668-638.322 180.599l12.915 346.205-669.751 40.591 11.07-386.796c-147.811 32.547-249.081 244.727-41.076 440.594l-187.71 149.156c-195.663-164.177-215.75-359.537-168.777-534.732 100.51-374.874 467.029-424.742 617.662-435.534s275.33 15.352 421.976 51.435c80.689 19.855 256.398 44.281 337.325 8.683 163.262-71.817 125.049-266.938 94.353-311.27l-36.157-135.683c-27.269-44.92-16.915-37.928-39.663-83.066-20.769-41.212-20.103-68.103-2.697-79.509 18.666-12.232 41.064.985 57.071 27.576 14.929 24.799 30.874 49.583 30.874 49.583s-11.959-51.664-25.057-90.959c-8.448-25.344-.517-39.118 14.763-45.799 17.621-7.705 37.326 2.429 44.65 14.947 24.097 41.183 17.484 93.049 17.484 93.049s31.658 25.651 49.421 35.738c25.261 14.346 55.759 34.51 81.02 48.856z" fill="#fff"/><path d="M445.304 1847.372a11.98 11.98 0 0 1-7.714-2.807c-92.876-77.93-153.194-168.577-179.282-269.422-22.093-85.407-19.863-178.809 6.628-277.611 44.245-165.021 143.94-286.799 296.317-361.952 93.621-46.174 202.244-73.142 332.077-82.443 154.247-11.055 284.055 16.898 425.7 51.752 73.415 18.065 250.584 44.121 329.626 9.351 54.503-23.975 90.084-64.25 105.754-119.708 21.013-74.365-.715-151.042-16.436-173.747a12.015 12.015 0 0 1-1.729-3.741L1700.53 483.02c-15.439-25.56-18.873-34.683-23.199-46.177-3.094-8.219-6.6-17.534-16.025-36.238-30.986-61.484-12.397-85.878 1.441-94.947 9.238-6.054 19.769-7.965 30.455-5.526 11.545 2.635 22.862 10.298 32.854 22.054a629.28 629.28 0 0 0-5.229-16.496c-12.975-38.926 7.801-54.669 21.34-60.589 23.702-10.362 49.5 2.252 59.814 19.881 20.776 35.508 20.641 77.433 19.634 93.733 9.44 7.455 30.188 23.495 42.84 30.68 12.826 7.284 27.095 16.115 40.895 24.656 13.613 8.426 27.69 17.138 40.126 24.2a11.993 11.993 0 0 1 3.682 3.245c36.651 48.973 85.508 147.673 102.577 264.661 9.224 63.214 8.171 124.444-3.128 181.99-13.179 67.122-40.352 129.023-80.764 183.985-46.929 63.825-105.068 114.723-172.805 151.28-57.47 31.017-121.58 51.669-190.549 61.381-56.019 7.89-115.354 8.334-171.589 1.289-37.332-4.678-72.772-12.678-100.37-22.513l12.229 327.811c.243 6.514-4.759 12.031-11.266 12.425l-669.751 40.591a11.992 11.992 0 0 1-9.074-3.358 11.995 11.995 0 0 1-3.646-8.963l10.609-370.704c-60.319 19.094-109.326 70.57-127.094 134.943-25.156 91.143 13.734 193.624 106.701 281.166a12 12 0 0 1-.76 18.132l-187.71 149.156a11.987 11.987 0 0 1-7.465 2.605zM961.48 874.697c-21.713 0-43.807.757-66.435 2.378-328.526 23.537-538.399 171.078-606.928 426.673-54.934 204.882-1.958 378.469 157.447 516.09l169.265-134.5c-47.44-46.983-80.287-97.079-97.711-149.063-16.542-49.354-18.519-99.959-5.715-146.347 10.738-38.906 31.57-74.106 60.244-101.798 28.289-27.32 62.82-46.072 99.859-54.228a12.001 12.001 0 0 1 14.576 12.063l-10.695 373.681 644.952-39.088-12.479-334.489a12.002 12.002 0 0 1 16.886-11.404c99.249 44.334 431.446 84.802 623.76-176.751 160.711-218.573 58.677-496.991-17.095-600.056-12.246-7.031-25.679-15.344-38.693-23.399-13.609-8.424-27.684-17.134-40.115-24.194-18.412-10.456-49.726-35.776-51.05-36.849a12.003 12.003 0 0 1-4.349-10.841c.057-.462 5.723-48.451-15.938-85.471-4.455-7.615-17.826-15.109-29.484-10.012-5.247 2.294-16.167 7.069-8.187 31.01 13.126 39.379 24.87 89.915 25.364 92.047a12.001 12.001 0 0 1-21.783 9.199c-.16-.249-16.214-25.22-31.063-49.887-8.512-14.141-19.074-23.834-28.253-25.929-4.353-.993-8.151-.293-11.96 2.202-12.16 7.968-9.669 31.322 6.836 64.072 10.003 19.849 13.913 30.237 17.056 38.584 4.124 10.957 7.104 18.873 22.148 43.656a12.03 12.03 0 0 1 1.338 3.137l35.644 133.755c21.685 33.381 39.835 116.909 18.583 192.122-8.153 28.854-21.432 54.525-39.467 76.299-20.564 24.828-47.386 44.628-79.719 58.852-31.423 13.822-76.433 19.101-125.034 19.102-77.693.001-164.588-13.484-219.99-27.117-118.678-29.202-228.86-53.496-351.816-53.496z"/><path d="m1767.714 2347.241-106.332-39.843c77.646-132.477 86.399-302.976 22.638-442.666-112.751-247.02-349.124-273.089-349.124-273.089l-4.173-54.697-663.613 28.147-11.764 64.274-455.965 550.38-187.379 8.873 272.816 235.207s490.305-441.615 586.819-511.938c169.581-123.561 351.37-84.249 438.032-36.968 86.922 47.423 141.568 145.501 144.252 244.481 2.684 98.981-118.876 261.838-118.876 261.838l432.671-34z"/><path d="M284.815 2435.827c-2.79 0-5.581-.968-7.835-2.912L4.164 2197.709a12.001 12.001 0 0 1 7.268-21.075l182.086-8.622 450.586-543.886 11.2-61.192a12 12 0 0 1 11.295-9.829l663.613-28.147c6.473-.283 11.981 4.625 12.474 11.077l3.445 45.161c20.223 3.496 68.966 14.275 126.503 43.674 43.572 22.263 83.157 50.66 117.657 84.402 43.103 42.157 78.31 92.785 104.645 150.478 32.077 70.277 46.869 149.684 42.775 229.635-3.842 75.036-24.179 147.91-58.977 211.702l93.188 34.918a12 12 0 0 1-3.27 23.201l-432.67 34a12.022 12.022 0 0 1-11.447-6.167 12 12 0 0 1 .89-12.973c1.19-1.596 119.037-160.676 116.498-254.336-2.659-98.026-56.829-189.984-138.005-234.272-79.778-43.525-259.111-84.896-425.218 36.133-94.913 69.156-580.956 506.744-585.854 511.156a11.977 11.977 0 0 1-8.032 3.083zM42.63 2199.183l242.015 208.653c65.526-58.947 489.56-439.804 579.924-505.646 40.969-29.851 85.16-52.167 131.347-66.327 40.105-12.296 81.897-18.527 124.242-18.527.545 0 1.089 0 1.633.003 97.603.369 167.921 33.024 193.623 47.047 88.54 48.306 147.615 148.278 150.501 254.69 2.207 81.396-73.137 200.132-106.21 248.188l353.183-27.753-55.716-20.877a12.001 12.001 0 0 1-6.143-17.305c75.971-129.62 84.43-295.005 22.074-431.615-56.62-124.046-145.721-189.746-210.496-223.018-70.528-36.227-128.463-43.063-129.039-43.128-5.727-.644-10.199-5.268-10.639-11.013l-3.29-43.128-642.451 27.25-10.039 54.851a12 12 0 0 1-2.563 5.496l-455.965 550.379a12.002 12.002 0 0 1-8.674 4.331l-157.316 7.449z"/><path d="M648.901 1682.175c8.141 9.679 15.916 20.442 17.797 32.948 1.281 8.514-.423 17.579-5.348 24.641s-13.177 11.888-21.786 11.994c-10.81.133-20.375-6.689-28.555-13.757a236.57 236.57 0 0 1-38.651-42.661c-5.105-7.243-18.196-28.259 1.103-43.939 15.763-12.806 36.089-7.284 45.049-.441 11.299 8.629 21.278 20.381 30.39 31.214z" fill="#fff"/><path d="M639.254 1763.76c-14.864 0-27.083-8.896-36.09-16.678a248.49 248.49 0 0 1-40.614-44.829c-16.122-22.874-14.872-45.366 3.344-60.166 21.451-17.427 48.127-9.657 59.9-.665 12.616 9.635 23.524 22.605 32.289 33.027 8.811 10.474 18.134 23.284 20.481 38.887 1.787 11.876-.899 24.01-7.371 33.291-7.264 10.417-19.327 16.98-31.482 17.129a34.81 34.81 0 0 1-.457.003zm-43.748-108.067c-4.783 0-9.909 1.311-14.479 5.022-3.198 2.599-11.695 9.502 1.14 27.712a224.44 224.44 0 0 0 36.688 40.495c5.85 5.053 13.443 10.838 20.409 10.838h.153c4.478-.055 9.224-2.747 12.091-6.859 2.995-4.295 4.207-10.124 3.324-15.991-1.456-9.677-8.125-18.7-15.114-27.009-8.008-9.521-17.973-21.37-28.489-29.401-2.835-2.166-8.934-4.805-15.722-4.805z"/><path d="M596.979 1722.641c8.141 9.679 15.916 20.442 17.797 32.948 1.281 8.514-.423 17.579-5.348 24.641s-13.177 11.888-21.786 11.994c-10.81.133-20.375-6.689-28.555-13.757-14.556-12.576-34.818-34.734-45.901-50.457-5.105-7.243-18.196-28.259 1.103-43.939 15.763-12.806 36.089-7.284 45.049-.441 11.299 8.629 28.529 28.177 37.641 39.01z" fill="#fff"/><path d="M587.332 1804.226c-14.864 0-27.083-8.896-36.09-16.678-15.45-13.349-36.474-36.464-47.864-52.625-16.124-22.872-14.874-45.364 3.344-60.165 21.452-17.428 48.124-9.657 59.9-.664 13.136 10.031 32.026 31.889 39.539 40.822 8.811 10.474 18.134 23.284 20.481 38.887 1.787 11.876-.899 24.01-7.371 33.291-7.264 10.417-19.327 16.98-31.482 17.129a34.81 34.81 0 0 1-.457.003zm-50.998-115.863c-4.784 0-9.909 1.311-14.479 5.022-3.198 2.599-11.696 9.503 1.139 27.711 10.266 14.565 29.976 36.228 43.938 48.292 5.85 5.053 13.443 10.838 20.409 10.838h.153c4.478-.055 9.224-2.747 12.091-6.859 2.995-4.295 4.207-10.124 3.324-15.991-1.456-9.677-8.125-18.7-15.114-27.009-11.257-13.384-26.557-30.184-35.74-37.197-2.835-2.165-8.934-4.805-15.721-4.805z"/><path d="M534.519 1851.468c3.139 12.272-1.722 22.058-6.647 29.12s-14.065 13.073-27.717 10.588c-14.821-2.698-44.801-30.929-55.883-46.652-5.105-7.243-15.807-27.023 1.103-43.939 14.358-14.363 36.089-7.284 45.049-.441 11.299 8.629 39.023 31.493 44.095 51.324z" fill="#fff"/><path d="M506.085 1903.724a45.11 45.11 0 0 1-8.08-.742c-20.197-3.677-52.57-35.979-63.543-51.544-11.372-16.137-16.707-40.198 2.426-59.336 18.744-18.753 46.85-12.163 60.819-1.494 15.608 11.92 42.657 35.292 48.438 57.886 3.383 13.229.626 25.972-8.431 38.958-7.313 10.489-18.775 16.272-31.629 16.272zm-39.799-99.51c-4.386 0-8.838 1.265-12.426 4.854-9.646 9.648-5.205 20.847.219 28.542 11.465 16.265 38.958 40.072 48.225 41.759 6.938 1.264 12.23-.636 15.725-5.646 5.023-7.205 6.479-12.971 4.864-19.283-2.824-11.04-18.057-28.191-39.753-44.76-2.8-2.139-9.74-5.467-16.854-5.467z"/><path d="M551.28 1772.777c8.141 9.679 15.916 20.442 17.797 32.948 1.281 8.514-.423 17.579-5.348 24.641s-13.177 11.888-21.786 11.994c-10.81.133-20.375-6.689-28.555-13.757a236.57 236.57 0 0 1-38.651-42.661c-5.105-7.243-18.196-28.259 1.103-43.939 15.763-12.806 36.089-7.284 45.049-.441 11.299 8.629 21.278 20.381 30.39 31.214z" fill="#fff"/><path d="M541.635 1854.362c-14.868 0-27.086-8.897-36.092-16.678a248.44 248.44 0 0 1-40.614-44.829c-16.123-22.873-14.873-45.365 3.344-60.166 21.45-17.427 48.126-9.657 59.9-.665 12.616 9.635 23.525 22.606 32.29 33.028 8.81 10.474 18.133 23.285 20.48 38.886 1.787 11.876-.899 24.011-7.371 33.291-7.263 10.416-19.326 16.979-31.481 17.129-.151.002-.305.003-.456.003zm-43.75-108.068c-4.783 0-9.909 1.311-14.479 5.022-3.198 2.599-11.696 9.503 1.139 27.711a224.466 224.466 0 0 0 36.688 40.495c5.849 5.054 13.443 10.838 20.41 10.839h.153c4.477-.055 9.223-2.748 12.09-6.859 2.995-4.296 4.207-10.125 3.324-15.992-1.456-9.676-8.125-18.699-15.115-27.009-8.008-9.521-17.973-21.371-28.489-29.402-2.835-2.166-8.934-4.805-15.722-4.805z"/><path d="M1938.95 421.363c-1.471 12.562-3.982 25.599-11.801 35.54-5.323 6.767-13.093 11.738-21.611 12.99-8.518 1.253-17.688-1.451-23.664-7.648-7.504-7.782-9.09-19.423-9.548-30.224a236.562 236.562 0 0 1 4.586-57.383c1.777-8.681 8.112-32.617 32.757-29.305 20.128 2.705 30.035 21.292 31.191 32.508 1.458 14.142-.263 29.463-1.909 43.523z" fill="#fff"/><path d="M1901.472 482.189c-10.656 0-21.097-4.209-28.237-11.614-10.463-10.85-12.389-26.031-12.898-38.045a248.5 248.5 0 0 1 4.819-60.298c5.61-27.416 22.856-41.918 46.109-38.792 27.393 3.68 40.011 28.433 41.53 43.17 1.628 15.789-.343 32.624-1.927 46.149-1.592 13.594-4.534 29.163-14.288 41.563-7.426 9.44-18.104 15.798-29.298 17.444a39.961 39.961 0 0 1-5.811.423zm3.574-125.209c-5.009 0-12.773 2.447-16.378 20.063a224.441 224.441 0 0 0-4.354 54.469c.33 7.781 1.332 17.358 6.196 22.403 3.108 3.223 8.319 4.834 13.281 4.106 5.181-.762 10.256-3.874 13.925-8.537 6.049-7.69 8.051-18.73 9.313-29.516 1.447-12.357 3.248-27.736 1.892-40.897-.624-6.05-6.74-19.949-20.853-21.845-.788-.106-1.827-.245-3.023-.245z"/><path d="M1873.898 411.277c-1.471 12.562-3.982 25.599-11.801 35.54-5.323 6.767-13.093 11.738-21.611 12.99-8.518 1.253-17.688-1.451-23.664-7.648-7.504-7.782-9.09-19.423-9.548-30.224-.815-19.219 1.438-49.16 5.295-68.006 1.777-8.681 8.112-32.617 32.757-29.305 20.128 2.705 30.035 21.292 31.191 32.508 1.458 14.142-.973 40.086-2.619 54.146z" fill="#fff"/><path d="M1836.42 472.102c-10.656 0-21.097-4.209-28.236-11.615-10.463-10.851-12.39-26.032-12.899-38.044-.865-20.394 1.563-51.546 5.529-70.921 5.61-27.416 22.857-41.917 46.11-38.792 27.392 3.68 40.01 28.433 41.529 43.17 1.694 16.433-1.279 45.176-2.636 56.771-1.592 13.594-4.534 29.162-14.289 41.564-7.426 9.44-18.104 15.798-29.296 17.444a39.985 39.985 0 0 1-5.812.423zm4.285-135.831c-5.01 0-12.774 2.447-16.379 20.063-3.574 17.46-5.846 46.66-5.063 65.091.33 7.78 1.332 17.357 6.198 22.403 3.108 3.224 8.32 4.834 13.28 4.106 5.18-.762 10.255-3.874 13.924-8.537 6.05-7.691 8.052-18.731 9.314-29.516 2.034-17.374 3.784-40.033 2.601-51.52-.624-6.05-6.74-19.949-20.852-21.845-.788-.106-1.827-.245-3.023-.245zm33.194 75.006h.01z"/><path d="M1766.35 659.77s-16.327-60.915-70.449-99.56c-20.776-14.835-52.222-34.402-53.012-70.873-.633-29.229 41.625-105.769 86.663-87.345 19.769 8.088 29.527 43.97 6.141 68.202 65.509-7.543 100.246 81.775 106.586 104.404" fill="#fff"/><path d="M1766.342 671.772c-5.294 0-10.139-3.529-11.579-8.883-.263-.95-16.238-57.5-65.836-92.914a902.164 902.164 0 0 0-4.284-3.033c-21.06-14.846-52.884-37.281-53.752-77.347-.265-12.233 5.095-29.822 14.337-47.052 10.177-18.972 23.429-34.675 37.315-44.218 17.026-11.7 34.851-14.275 51.552-7.442 12.885 5.271 22.603 18.043 25.996 34.164 2.409 11.449 1.255 23.222-3.05 33.915 23.448 4.242 45.197 19.507 63.827 45.044 18.062 24.76 29.22 53.985 32.965 67.351 1.788 6.382-1.936 13.004-8.316 14.793-6.38 1.786-13.006-1.935-14.793-8.317-3.312-11.816-13.196-37.683-29.245-59.682-19.404-26.601-41.085-38.723-64.413-36.039a12 12 0 0 1-10.008-20.254c12.044-12.48 10.689-26.444 9.547-31.868-1.699-8.076-6.252-14.707-11.598-16.894-9.103-3.724-18.547-2.085-28.872 5.009-23.271 15.992-41.609 54.384-41.25 70.969.605 27.951 24.438 44.751 43.586 58.251a923.6 923.6 0 0 1 4.403 3.116c56.97 40.679 74.354 103.562 75.066 106.219 1.716 6.401-2.083 12.982-8.484 14.698-1.04.279-2.086.412-3.114.412z"/><path d="M1709.517 514.226c-6.627 0-12-5.373-12-12 0-18.865 17.464-38.997 38.136-43.961 6.446-1.548 12.923 2.421 14.471 8.866 1.548 6.444-2.422 12.923-8.865 14.47-11.265 2.705-19.741 14.377-19.741 20.625 0 6.627-5.373 12-12 12z"/><path d="m1421.617 913.271-41.535-258.291a11.998 11.998 0 0 0-13.784-9.937l-17.852 2.919c-55.86 9.133-108.724-28.874-117.857-84.727-6.367-38.93 9.652-77.339 41.807-100.239 4.596-3.273 7.826-5.723 9.877-7.49.153-.132.303-.264.449-.396l52.011-12.948a11.999 11.999 0 0 0 8.949-13.55l-48.146-299.403a12 12 0 0 0-10.973-10.063l-52.233-3.817c-1.281-.095-19.859.113-21.107.431l-204.902 56.234-9.693-67.885c-4.75-33.267-22.764-62.146-50.724-81.317C918.77 4.187 885.241-3.406 851.496 1.413c-.104.015-.209.031-.313.049l-51.751 8.792a11.995 11.995 0 0 0-7.789 4.904c-2.159 3.054-52.797 75.374-45.747 124.755l13.52 94.678-195.282 49.508a12.002 12.002 0 0 0-8.935 13.302l37.989 270.394a11.994 11.994 0 0 0 13.486 10.223c55.626-7.497 107.361 31.616 115.297 87.192 7.972 55.828-30.94 107.89-86.742 116.055-6.531.956-11.064 7.007-10.146 13.543l32.686 232.654a12 12 0 0 0 13.657 10.198l689.573-83.253c3.171-.474 56.564-29.558 58.457-32.146a11.996 11.996 0 0 0 2.162-8.989z" fill="#5c64f9"/><path d="M1370.417 852.456c-9.635-14.616-20.554-31.181-23.734-54.516-3.02-22.157-4.036-36.44-4.934-49.042-1.483-20.826 4.067-24.908-4.9-56.693-1.233-4.373-3.531-20.734-10.282-25.234-6.921-4.614-27.159-1.139-27.631-.587-52.763 8.119-104.817-29.78-116.938-84.032.809-2.042-13.349-37.439 18.237-78.12 15.295-19.699 39.236-32.853 66.966-37.388l1.706-.274c5.083-.807 10.34-1.642 15.071-4.148 7.468-3.955 11.376-10.902 11.003-19.561-2.034-47.184-8.388-67.11-15.744-90.183-5.243-16.446-11.187-35.087-16.496-68.103-4.594-28.57-5.919-52.306-1.344-71.539 7.472-31.403-5.498-77.496-24.792-92.404-14.149-10.933-53.593-2.118-87.021 8.832-18.207 5.964-52.207 8.746-77.951 15.272-26.506 6.72-47.707 22.425-83.207 24.407-11.116.621-50.421 14.031-50.856 12.5-1.299-4.568.096-12.522 1.571-20.942 2.066-11.793 4.639-26.47 2.294-42.892-4.778-33.457-21.656-64.918-46.309-86.318-26.288-22.82-57.743-29.337-101.465-21.143-29.254 6.62-54.849 23.441-72.853 48.093-19.856 27.19-28.153 60.647-23.361 94.207 3.173 22.217 12.677 38.924 20.314 52.348 12.206 21.455 7.463 21.655-10.244 36.281-15.497 12.801-24.431 8.907-37.463 12.138-17.325 4.296-67.167 26.099-83.572 24.172-31.523-3.703-66.76 11.952-82.996 30.547-13.58 15.553-11.698 57.256 2.739 82.325 8.374 14.54 5.469 34.683 8.788 58.307 3.43 24.414 14.179 36.93 12.726 51.206-2.544 24.998-4.553 44.743 20.467 83.754a12 12 0 0 0 11.703 5.414c52.75-7.104 107.85 12.877 122.051 73.439 18.475 78.79-40.745 124.42-94.363 132.266a12 12 0 0 0-9.526 7.733c-15.059 40.969-10.311 57.918-3.74 81.376 3.057 10.912 6.521 23.28 9.048 41.266 2.654 18.888 15.642 42.2 13.662 55.984-3.877 26.983 6.748 60.732 28.281 72.773 18.243 10.201 68.127.511 83.246-8.53 15.577-9.315 35.597-9.276 62.695-13.326 36.851-5.507 53.294-18.408 71.481-20.637 18.342-2.247 37.309-4.571 74.469-10.125 36.263-5.419 54.21-5.837 73.212-6.28 18.904-.44 38.452-.896 76.2-6.537 36.561-5.464 54.52-6.784 73.534-8.181 18.619-1.368 37.533 5.189 74.985-.408 24.868-3.716 44.388-9.559 61.31-7.681 31.912 3.541 78.241-5.03 96.214-28.92 14.143-18.799 13.269-67.355-2.251-90.9z" fill="#737af9"/><path d="M727.368 595.651a9.949 9.949 0 0 1-5.187-1.458c-4.719-2.87-6.218-9.022-3.348-13.74 12.502-20.553 34.098-35.383 57.771-39.67 23.67-4.285 49.098 2.03 68.013 16.897 4.342 3.413 5.096 9.7 1.683 14.042-3.412 4.342-9.7 5.096-14.042 1.683-14.485-11.386-33.959-16.224-52.091-12.941-18.131 3.283-34.672 14.641-44.246 30.383a9.997 9.997 0 0 1-8.554 4.805z"/><path d="M876.74 688.323c-109.435 7.437-5.843 115.74 129.587 53.037 32.048-12.305 66.923-32.914 74.837-68.757 3.701-17.268-.961-36.779-14.122-48.556-32.692-29.256-61.038 9.339-85.849 26.462-30.807 21.263-67.125 34.618-104.454 37.813z" fill="#fff"/><path d="M922.527 770.811a174.73 174.73 0 0 1-16.843-.805c-28.37-2.745-53.719-12.534-69.546-26.856-13.032-11.792-18.068-25.584-13.818-37.838 3.774-10.884 16.148-24.391 53.654-26.96 35.331-3.039 69.749-15.512 99.539-36.073 4.7-3.243 9.692-7.454 14.979-11.911 10.712-9.033 22.854-19.271 36.211-24.073 16.804-6.041 32.619-2.576 47.01 10.3 15.13 13.54 21.894 36.347 17.23 58.104-7.174 32.488-34.328 57.997-80.719 75.877-28.938 13.349-58.928 20.235-87.697 20.235zm119.84-147.436c-10.907 0-22.538 8.416-38.981 22.282-5.666 4.778-11.018 9.29-16.511 13.082-32.673 22.549-70.461 36.224-109.281 39.547a9.581 9.581 0 0 1-.175.013c-23.784 1.616-34.296 8.067-36.203 13.565-1.45 4.182 1.746 10.487 8.342 16.455 12.522 11.332 34.225 19.473 58.053 21.779 21.149 2.046 54.71.616 94.517-17.814.202-.094.408-.181.616-.261 39.92-15.328 63.02-36.045 68.657-61.577 3.172-14.8-1.15-30.112-11.025-38.949-6.234-5.579-12.013-8.124-18.008-8.124zm-165.626 64.948h.01zm58.893-133.406a9.974 9.974 0 0 1-3.561-.659c-5.16-1.968-7.749-7.746-5.781-12.906 8.57-22.479 27.122-40.976 49.627-49.48 22.503-8.504 48.653-6.899 69.948 4.294 4.889 2.57 6.769 8.616 4.199 13.504-2.568 4.889-8.615 6.769-13.504 4.199-16.312-8.573-36.338-9.803-53.573-3.289-17.236 6.513-31.445 20.68-38.01 37.896a10.004 10.004 0 0 1-9.346 6.44z"/></svg></g><g transform="translate(1252.0 964.0) rotate(0.0 378.5 754.0) scale(0.6913658722808863 0.6922505579778204)"><svg width="1094.934" height="2178.402" viewBox="0 0 1094.934 2178.402"><path d="M938.001 1523.223c0 22.04-240.771 27.053-457.499 27.053S87.075 1518.59 87.075 1496.55s184.089-101.469 400.817-101.469 450.109 106.102 450.109 128.142z"/><path d="M480.502 1562.276c-99.784 0-199.141-6.652-279.765-18.731-35.545-5.325-65.339-11.488-86.159-17.822-20.518-6.242-39.503-14.096-39.503-29.173 0-7.949 4.597-18.423 38.691-35.839 22.813-11.654 54.385-23.95 88.898-34.625 51.931-16.061 158.041-43.005 285.227-43.005s248.699 35.37 310.219 56.454c40.086 13.738 77.569 29.26 105.544 43.705 13.116 6.773 23.55 12.992 31.011 18.486 7.583 5.584 15.336 12.505 15.336 21.497 0 15.347-18.836 20.939-51.372 25.414-24.827 3.414-61.014 6.228-107.554 8.365-76.21 3.5-180.701 5.274-310.573 5.274zm-378.032-66.697c11.222 5.668 43.262 16.182 114.852 26.109 77.137 10.697 170.603 16.588 263.181 16.588 120.616 0 219.445-1.537 293.741-4.568 44.608-1.82 80.47-4.198 106.588-7.067 20.146-2.213 31.931-4.465 38.743-6.212-6.093-4.391-17.053-11.18-36.425-20.623-28.402-13.845-65.083-28.439-103.284-41.093-58.21-19.283-173.546-51.632-291.974-51.632-88.016 0-183.242 13.819-268.138 38.911-41.885 12.379-70.131 24.161-86.451 31.865-17.515 8.267-26.43 14.195-30.833 17.722zm824.329 31.091h.01z"/><path d="M276.555 1392.609c-23.964 167.952-77.45 532.504-77.45 532.504L12 2166.402l302.257-120.265-3.258 77.746s43.332 10.952 65.361 9.112c22.029-1.841 61.953-12.499 61.953-12.499s.849-49.485 1.154-65.1l13.57-696.375-176.481 33.589z"/><path d="M12.003 2178.403a12.002 12.002 0 0 1-9.488-19.354l185.174-238.797c5.279-36.002 54.473-371.557 76.985-529.337a12.001 12.001 0 0 1 9.637-10.094l176.481-33.589c3.552-.674 7.222.287 9.984 2.619s4.327 5.788 4.257 9.403l-13.57 696.375c-.301 15.423-1.145 64.578-1.153 65.073a12 12 0 0 1-8.902 11.388c-1.673.447-41.219 10.956-64.05 12.864-23.754 1.978-67.452-8.969-69.301-9.436a12 12 0 0 1-9.049-12.137l2.483-59.249-285.057 113.42a11.984 11.984 0 0 1-4.433.851zm275.219-775.609c-24.246 169.597-75.719 520.476-76.244 524.061a11.993 11.993 0 0 1-2.39 5.611l-160.145 206.52 261.377-103.999a12 12 0 0 1 16.426 11.653l-2.843 67.821c15.014 3.295 38.898 7.667 51.957 6.575 14.675-1.226 38.382-6.748 51.111-9.904.261-15.088.775-44.625.996-55.972l13.282-681.587-153.528 29.22zm-88.117 522.319h.01zm549.416-532.504c23.964 167.952 77.45 532.504 77.45 532.504l187.105 241.289-302.257-120.265 3.258 77.746s-43.332 10.952-65.361 9.112c-22.029-1.841-61.953-12.499-61.953-12.499s-.849-49.485-1.154-65.1l-13.57-696.375 176.481 33.589z"/><path d="M1013.073 2178.403c-1.485 0-2.988-.276-4.433-.851l-285.057-113.42 2.483 59.249a12 12 0 0 1-9.049 12.137c-1.849.467-45.534 11.42-69.301 9.436-22.831-1.908-62.376-12.417-64.049-12.864a11.998 11.998 0 0 1-8.902-11.388c-.009-.495-.854-49.65-1.154-65.072l-13.569-696.375a11.998 11.998 0 0 1 14.241-12.022l176.481 33.589a12 12 0 0 1 9.636 10.093c22.514 157.78 71.706 493.334 76.985 529.337l185.174 238.797a12.001 12.001 0 0 1-9.488 19.354zM710.82 2034.138c1.498 0 3.003.28 4.436.85l261.377 103.999-160.144-206.52a11.988 11.988 0 0 1-2.391-5.611c-.525-3.585-51.998-354.464-76.244-524.061l-153.527-29.22 13.281 681.587c.221 11.345.735 40.882.996 55.971 12.735 3.157 36.453 8.68 51.111 9.905 13.06 1.096 36.941-3.279 51.957-6.575l-2.843-67.821a11.999 11.999 0 0 1 11.99-12.503z"/><path d="M850.605 988.067 288.38 956.929c-94.076 219.826-141.029 319.617-201.305 541.777 191.748-102.105 687.937-77.23 850.926 24.517-20.579-237.359-39.573-308.266-87.396-535.156z" fill="#fff"/><path d="M938.002 1535.223a11.98 11.98 0 0 1-6.354-1.821c-75.479-47.119-232.108-80.413-408.764-86.89-182.927-6.708-343.741 16.764-430.168 62.786a11.998 11.998 0 0 1-17.221-13.734c54.306-200.16 96.926-299.263 174.298-479.172 8.732-20.304 17.896-41.611 27.556-64.184 1.985-4.638 6.683-7.533 11.695-7.261l562.226 31.139a12 12 0 0 1 11.078 9.506c5.491 26.053 10.519 49.656 15.381 72.483 37.043 173.909 53.949 253.282 72.229 464.112a12 12 0 0 1-11.956 13.037zm-474.918-113.812c20.053 0 40.314.371 60.68 1.118 85.742 3.144 169.398 12.768 241.926 27.832 64.771 13.454 118.894 30.998 158.351 51.224-17.413-192.64-34.314-271.98-69.785-438.509-4.299-20.183-8.728-40.975-13.493-63.535l-544.656-30.165a42045.787 42045.787 0 0 1-24.265 56.498c-73.596 171.13-115.571 268.731-166.222 450.64 44.509-19.263 101.788-33.781 170.756-43.249 57.128-7.842 120.758-11.854 186.709-11.854z"/><path d="M177.502 742.036C117.391 777.722 71.717 822.423 62 895.306c-8.614 64.602 22.159 139.234 78.198 172.51 58.071 34.483 157.228 32.925 222.08 14.07 74.752-21.732 185.157-91.384 185.157-91.384s112.753 142.024 330.271 135.939c68.293-1.911 147.35-42.475 179.336-97.273 25.238-43.238 20.577-111.705-13.522-168.733C999.85 787.4 826 659.888 567.158 649.79c-186.233-7.266-333.613 58.976-389.656 92.246z" fill="#fff"/><path d="M864.256 1138.629c-46.064 0-90.871-6.503-133.397-19.376a439.49 439.49 0 0 1-106.235-48.334c-41.202-25.851-67.735-52.01-79.538-64.854-27.868 17.016-115.403 68.723-179.458 87.345-34.714 10.091-77.503 14.987-117.4 13.435-32.129-1.251-78.015-7.248-114.157-28.709-28.767-17.082-52.986-45.488-68.196-79.984-14.702-33.344-20.303-70.432-15.769-104.43 4.899-36.75 18.456-68.34 41.442-96.574 19.124-23.491 45.236-44.893 79.828-65.428 28.87-17.138 183.664-102.21 396.25-93.918 146.736 5.725 257.151 48.332 323.939 83.066 38.553 20.051 74.254 43.599 103.245 68.1 26.393 22.306 46.798 44.89 59.009 65.312 36.078 60.339 41.539 133.053 13.586 180.941-33.126 56.75-114.535 101.125-189.363 103.218-4.605.129-9.204.193-13.785.193zm-316.83-160.128c3.554 0 7.053 1.575 9.406 4.539.266.333 28.106 34.829 81.412 68.09 48.985 30.566 130.248 66.37 239.125 63.314 66.126-1.85 140.495-41.965 169.309-91.326 23.307-39.929 17.772-104.295-13.458-156.526-18.881-31.576-68.918-80.848-152.729-124.436-64.612-33.604-171.503-74.825-313.801-80.377-205.825-8.027-355.198 74.033-383.062 90.574-67.94 40.333-101.783 84.91-109.733 144.537-8.283 62.123 22.854 131.168 72.43 160.607 54.834 32.561 150.466 30.931 212.604 12.865 72.246-21.004 181.014-89.323 182.104-90.011a11.956 11.956 0 0 1 6.395-1.851z"/><path d="M895.244 912.112a11.973 11.973 0 0 1-9.139-4.216c-69.878-81.98-166.099-134.741-285.989-156.818-65.438-12.049-142.76-9.14-206.835 7.785-68.816 18.176-116.462 49.984-134.161 89.563-2.704 6.05-9.803 8.762-15.853 6.056s-8.762-9.803-6.057-15.853c20.721-46.336 73.97-82.905 149.94-102.971 68.333-18.049 147.538-21.031 217.311-8.184 64.262 11.833 123.039 32.672 174.702 61.939 48.099 27.248 90.225 61.874 125.207 102.914 4.299 5.043 3.695 12.618-1.349 16.917a11.95 11.95 0 0 1-7.778 2.868z"/><path d="M218.233 851.818c36.021.353 167.821-59.495 200.348-74.976 114.463-54.481 226.517-54.481 291.415-33.463 40.088 12.983 76.597 39.687 96.847 76.64-73.936 48.03-213.086 137.275-304.259 197.075" fill="#fff"/><path d="M502.595 1029.095a11.99 11.99 0 0 1-10.045-5.42c-3.635-5.542-2.089-12.981 3.453-16.616 57.966-38.02 134.982-87.721 202.933-131.571 33.829-21.831 66.001-42.592 91.621-59.206-18.584-27.87-48.714-49.976-84.258-61.488-58.605-18.98-167.769-21.757-282.561 32.882-1.604.764-160.49 76.143-205.242 76.143-.129 0-.255 0-.381-.002-6.628-.065-11.947-5.49-11.882-12.117.064-6.586 5.425-11.882 11.996-11.882l.38.002c30.01 0 144.099-49.675 194.814-73.814 53.589-25.507 111.842-41.472 168.459-46.167 48.452-4.019 95.262.287 131.811 12.123 45.26 14.658 83.047 44.651 103.673 82.289a12 12 0 0 1-3.986 15.83c-26.974 17.523-63.141 40.863-101.432 65.572-67.915 43.828-144.892 93.503-202.783 131.474a11.939 11.939 0 0 1-6.57 1.967z"/><path d="M1081.504 286.385c-14.962-21.867-82.578-48.665-82.578-48.665s-15.201 33.746-29.233 40.397c-5.914 2.803-15.814 7.491-18.351 6.75-.021-.013-2.174-1.538-4.288-9.849-13.544-53.231-1.938-75.485 12.755-103.661 12.756-24.459 27.557-52.171 28.934-102.781 1.281-47.103-58.078-57.63-58.078-57.63s-37.35 29.667-60.853 35.63c-13.933 3.535-43.235-26.948-68.777-24.828-34.959 2.903-52.679 5.005-69.815 7.039-16.93 2.009-34.436 4.086-68.973 6.954-34.228 2.842-50.974 2.772-68.706 2.699-17.468-.074-35.524-.147-70.794 2.781-23.414 1.944-39.61-.287-53.898-2.256-27.008-3.721-48.342-6.66-87.861 23.899-55.254 42.728-58.043 64.16-64.152 111.119-1.532 11.777-3.27 25.125-6.121 41.2-4.853 27.35 3.98 35.779 18.794 47.266 3.562 2.763 7.602 5.895 12.06 9.941 11.515 10.452 22.972 2.294 26.737-.386 1.032-.735 2.558-1.821 3.282-2.1 40.659 6.678 71.238 52.522 64.19 96.316a11.93 11.93 0 0 0-.152 1.906c0 .274.021 1.109.243 2.223-3.986 18.138-14.884 33.88-31.009 44.647-16.982 11.338-38.441 15.956-58.866 12.668-2.475-.398-5.397-1.876-8.224-3.305-4.044-2.045-8.226-4.159-13.196-4.469-3.562-.221-12.417.397-17.902 10.91-49.313 94.509-50.02 98.487-68.097 200.387l-22.515-3.857s18.272 33.472 23.542 45.142c6.758 14.964 21.941 20.448 32.775 23.271 45.421 11.834 65.014 8.819 89.815 5.002 14.807-2.279 31.588-4.861 58.21-4.861 36.188 0 54.585-.582 72.376-1.145 17.605-.557 35.81-1.132 71.618-1.132 35.534 0 52.795 1.344 71.068 2.766 17.928 1.396 36.466 2.838 72.932 2.838 23.058 0 39.02 2.885 53.104 5.43 10.444 1.888 19.837 3.586 29.642 3.585 17.317 0 35.91-5.301 63.789-24.218 36.654-24.872 35.646-45.491 34.477-69.366-.592-12.078-1.262-25.768 2.357-43.96 4.984-25.058 1.357-43.584-1.557-58.471-3.977-20.309-6.167-31.496 13.821-50.982 13.309-12.977 18.935-10.334 35.633-2.486 11.096 5.214 24.903 11.704 43.708 13.085 26.834 1.969 52.57-6.518 72.449-23.903 17.019-14.884 28.264-34.976 32.328-57.419 3.688-12.433 16.306-70.58-6.644-104.123z" fill="#00c9fc"/><path d="M1064.843 329.146c2.469-67.145-76.626-115.85-138.199-94.844-6.792 1.587-19.437 4.542-21.982 2.856-.239-.234-1.001-1.653-1.358-4.99-11.665-99.732 73.3-174.225 42.723-212.762-14.733-18.568-45.406-2.577-90.411-2.004-41.125.523-105.124-5.931-136.047-3.88-72.37 5.415-142.654-3.102-220.434-4.279-65.367 2.636-138.786-23.274-158.99 1.738-16.492 20.417-15.796 36.774-21.569 52.362-18.39 49.662-1.514 86.233-8.096 152.567-1.302 17.116 10.128 21.138 25.729 20.208 41.126 6.035 72.157 39.135 70.183 80.706-1.899 39.989-57.022 66.916-92.954 60.799-13.878-4.366-29.802-8.314-36.382 10.096-23.826 60.741-18.137 68.726-28.064 122.204-7.075 53.649-70.51 81.92-18.447 136.984 53.319 55.869 94.263 3.168 156.678 3.77 72.569.058 72.789-11.247 143.994-11.286 71.141.057 71.376 12.795 144.001 12.72 24.232 0 41.043 3.829 55.875 7.208 47.549 19.927 141.556-23.84 126.328-88.936-.937-12.75-1.999-27.203 1.691-45.755 4.854-24.399 2.065-41.857-.175-55.885-3.162-19.8-4.749-29.739 15.756-49.73 12.086-11.784 15.553-9.767 30.142-1.276 60.249 45.222 163.103-13.976 160.008-88.59z" fill="#79defb"/><path d="M557.776 290.572a10.003 10.003 0 0 1-9.181-6.027c-7.029-16.224-22.846-28.557-40.293-31.42-17.451-2.862-36.377 3.769-48.222 16.895a9.934 9.934 0 0 1-7.709 3.296 9.997 9.997 0 0 1-7.508-3.73l-18.252-22.7c-3.461-4.304-2.777-10.599 1.526-14.059 4.304-3.46 10.598-2.778 14.06 1.527l11.522 14.33c16.051-12.689 37.659-18.604 57.82-15.295 23.992 3.937 45.74 20.896 55.406 43.205 2.195 5.068-.133 10.956-5.2 13.151a9.97 9.97 0 0 1-3.971.827z"/><ellipse cx="507.776" cy="265.857" rx="18.528" ry="25.237"/><path d="M620.324 290.572a9.953 9.953 0 0 1-3.971-.827c-5.067-2.196-7.396-8.084-5.2-13.151 9.666-22.309 31.414-39.268 55.406-43.205 20.164-3.309 41.771 2.606 57.82 15.295l11.522-14.33c3.461-4.304 9.754-4.988 14.06-1.527 4.304 3.461 4.987 9.755 1.526 14.059l-18.252 22.7a10 10 0 0 1-7.508 3.73 9.946 9.946 0 0 1-7.709-3.296c-11.844-13.126-30.775-19.758-48.222-16.895s-33.264 15.197-40.293 31.42a10.004 10.004 0 0 1-9.181 6.027z"/><ellipse cx="682.012" cy="265.857" rx="18.528" ry="25.237"/><path d="M586.05 430.68c-6.722 0-13.446-.456-20.133-1.386-5.47-.761-9.287-5.813-8.525-11.283s5.815-9.289 11.283-8.526c41.914 5.833 85.83-9.835 114.584-40.899 3.752-4.054 10.079-4.297 14.132-.545s4.297 10.079.546 14.132c-28.544 30.834-70.052 48.508-111.887 48.508z"/></svg></g></svg>