<svg xmlns="http://www.w3.org/2000/svg" fill="none" viewBox="0 0 3000 2500" width="3000" height="2500"><defs><clipPath id="assetClipPath_A5JSHoG8"><path d="m0 0 h 1959.875 a 0,0 0 0 1 0,0 v 2679.099 a 0,0 0 0 1 -0,0 h -1959.875 a 0,0 0 0 1 -0,-0 v -2679.099 a 0,0 0 0 1 0,-0 z" id="path_o_ZS3Awp" fill="#ffffff" /></clipPath><clipPath id="assetClipPath_ACqkYYcg"><path d="m0 0 h 1519.364 a 0,0 0 0 1 0,0 v 2215.723 a 0,0 0 0 1 -0,0 h -1519.364 a 0,0 0 0 1 -0,-0 v -2215.723 a 0,0 0 0 1 0,-0 z" id="path_WcLulBtU" fill="#ffffff" /></clipPath><clipPath id="assetClipPath_BiARinf-"><path d="m0 0 h 492.555 a 0,0 0 0 1 0,0 v 1877.487 a 0,0 0 0 1 -0,0 h -492.555 a 0,0 0 0 1 -0,-0 v -1877.487 a 0,0 0 0 1 0,-0 z" id="path_fAKw9vjG" fill="#ffffff" /></clipPath><clipPath id="assetClipPath_1CMgVSLV"><path d="m0 0 h 339.854 a 0,0 0 0 1 0,0 v 150.75 a 0,0 0 0 1 -0,0 h -339.854 a 0,0 0 0 1 -0,-0 v -150.75 a 0,0 0 0 1 0,-0 z" id="path_uX18LHpF" fill="#ffffff" /></clipPath></defs><g transform="translate(246 158) rotate(0 798 1091.5) scale(1 1)" opacity="1" data-asset-index="0"><g clip-path="url(#assetClipPath_A5JSHoG8)" transform="scale(0.814337649084763 0.814337649084763)" data-asset-index="0"><defs data-selector="defs[1]" /><path d="m1348.321 988.503c-217.303-39.318-402.505-18.271-589.766-54.165-126.906-24.326-375.079-125.556-501.986-149.881-40.974-7.854-82.541-15.745-124.135-12.506-41.594 3.24-83.94 19.027-110.551 51.158-9.736 13.631-11.363 20.316-8.803 32.007 3.461 15.803 20.866 25.336 37.043 25.335 16.177 0 45.924-14.28 45.924-14.28s-22.497 13.285-30.913 23.095c-8.416 9.809-13.507 23.433-9.925 35.851 4.457 15.456 21.183 24.754 37.241 25.688 10.087.587 25.958-3.61 36.37-6.813-7.099 2.512-16.131 6.06-21.404 9.491-9.632 6.266-17.677 15.939-19.242 27.323-1.875 13.642 6.192 27.422 17.817 34.802 11.625 7.381 26.14 9.082 39.812 7.442s28.68-6.081 28.68-6.081-12.799 6.105-25.353 10.228-28.778 15.934-21.072 35.433c14.806 37.465 71.565 12.729 94.032 14.089 83.167 5.034 204.426 66.368 325.75 112.174 137.629 51.962 265.752 62.435 302.101 125.016 41.745 71.874-54.203 323.462-57.067 337.688l777.637-45.017c10.729-72.189 18.281-196.31 23.334-310.546 6.613-149.507-98.264-280.887-245.525-307.532z" fill="rgba(255,255,255,1)" id="liz8ANaFvuhntPCeq2s" data-selector="path[2]" /><path d="m792.875 1663.597c-3.466 0-6.775-1.499-9.062-4.133-2.438-2.809-3.437-6.59-2.702-10.235.539-2.682 2.188-7.632 6.873-21.552 10.415-30.944 32.089-95.334 46.375-158.495 21.287-94.111 14.581-133.106 5.206-149.246-21.86-37.638-84.684-55.485-164.221-78.081-40.137-11.402-85.629-24.326-131.741-41.736-33.804-12.762-67.665-26.75-100.411-40.276-84.192-34.778-163.716-67.629-221.825-71.146-4.585-.284-12.616 1.148-21.117 2.659-13.798 2.451-29.436 5.229-44.058 3.679-24.354-2.586-34.811-16.65-39.294-27.993-3.877-9.812-3.769-19.597.312-28.297.802-1.709 1.716-3.305 2.717-4.792-6.798-1.462-13.765-4.021-20.368-8.214-16.324-10.363-25.678-29.077-23.274-46.566.841-6.109 3.067-12.068 6.482-17.59-18.906-3.994-34.369-16.778-39.089-33.141-3.322-11.52-1.514-24.342 4.781-36.018-20.033-.628-42.237-12.533-47.102-34.741-3.36-15.345-.746-25.44 10.761-41.549.166-.233.341-.46.522-.68 26.382-31.853 68.594-51.552 118.861-55.468 43.486-3.381 86.109 4.783 127.326 12.685 64.242 12.313 159.969 44.357 252.543 75.347 91.826 30.737 186.778 62.522 249.442 74.534 91.034 17.449 181.124 21.295 276.504 25.366 99.149 4.231 201.674 8.607 313.14 28.775 74.078 13.404 140.74 53.185 187.707 112.015 46.964 58.827 70.996 132.646 67.67 207.856-6.434 145.463-14.325 250.36-23.454 311.779-.835 5.623-5.501 9.888-11.176 10.216l-777.637 45.018c-.231.013-.463.02-.693.02zm-572.708-598.934c.904 0 1.786.024 2.649.076 62.115 3.761 143.439 37.354 229.539 72.92 32.578 13.458 66.267 27.374 99.725 40.006 45.167 17.053 90.143 29.83 129.823 41.103 84.747 24.076 151.687 43.093 178.416 89.113 34.405 59.238-11.823 215.253-49.59 327.452-.371 1.104-.739 2.198-1.101 3.273l750.387-43.438c8.43-61.718 15.772-162.432 21.843-299.664 6.317-142.835-95.001-269.74-235.674-295.193-109.854-19.876-211.546-24.217-309.89-28.415-96.286-4.109-187.231-7.991-279.998-25.773-64.242-12.313-159.969-44.357-252.543-75.347-91.826-30.737-186.778-62.522-249.442-74.534-39.659-7.603-80.664-15.463-120.945-12.327-42.919 3.344-80.054 20.293-101.969 46.521-8.402 11.836-8.115 15.168-6.595 22.112 2.151 9.822 14.818 15.902 25.321 15.902 9.76 0 30.165-8.036 40.734-13.101 5.799-2.775 12.751-.496 15.774 5.172 3.025 5.669 1.05 12.714-4.482 15.981-8.045 4.756-22.737 14.55-27.908 20.576-5.293 6.169-10.044 15.901-7.503 24.712 2.984 10.348 15.544 16.401 26.408 17.034 6.236.365 17.948-1.934 32.145-6.303 6.239-1.92 12.872 1.503 14.922 7.703s-1.234 12.901-7.391 15.079c-11.83 4.187-16.897 6.958-18.864 8.237-7.77 5.055-12.965 12.12-13.897 18.898-1.13 8.226 3.953 17.698 12.361 23.036 8.107 5.147 19.451 7.158 31.952 5.658 12.461-1.495 26.567-5.633 26.708-5.675 6.006-1.771 12.363 1.368 14.604 7.213 2.24 5.846-.387 12.431-6.037 15.126-.551.263-13.644 6.485-26.775 10.799-6.524 2.143-11.995 6.2-13.936 10.338-.789 1.684-1.62 4.478.279 9.284 6.723 17.007 27.796 14.667 56.832 9.506 9.169-1.63 17.234-3.062 24.116-3.062z" fill="rgba(0,0,0,1)" id="EPIBslIHlXn7joNYCrbCT" data-selector="path[3]" /><path d="m1201.244 2660.266c206.238 5.255 540.905 6.832 540.905 6.832l-224.244-174.225s91.148-641.982 52.606-886.294l-761.299-4.69c-20.54 38.384-199.91 889.003-199.91 889.003l-250.622 172.79 507.788-13.51s89.61-657.771 276.336-694.449c158.82-31.197 86.835 527.906 58.439 704.543z" fill="rgba(0,0,0,1)" id="VSOKp9jNDBzzWjoplgCHC" data-selector="path[4]" /><path d="m1742.15 2679.099h-.057c-3.348-.016-337.151-1.638-541.154-6.836-3.461-.088-6.715-1.667-8.927-4.33-2.212-2.664-3.165-6.152-2.615-9.57 7.459-46.4 32.329-210.095 39.17-368.37 9.2-212.837-19.214-286.826-44.669-311.417-10.82-10.452-23.501-14.077-38.78-11.076-38.81 7.623-77.021 47.206-113.57 117.65-30.264 58.327-58.96 137.219-85.293 234.48-45.038 166.359-67.671 330.523-67.895 332.162-.794 5.826-5.692 10.219-11.57 10.376l-507.788 13.511c-5.355.144-10.083-3.227-11.729-8.277-1.646-5.051.225-10.583 4.598-13.599l246.681-170.072c6.862-32.487 48.258-228.172 91.28-425.501 95.176-436.538 105.432-455.703 108.802-462.001 2.101-3.926 6.161-6.383 10.654-6.339l761.299 4.69c5.877.036 10.863 4.324 11.779 10.13 16.14 102.311 12.185 283.238-11.756 537.758-15.709 167.012-35.329 312.368-39.86 345.188l218.763 169.966c4.058 3.153 5.658 8.538 3.979 13.395-1.671 4.839-6.227 8.082-11.342 8.082zm-526.915-30.489c164.382 3.955 402.593 5.733 491.651 6.288l-196.343-152.547c-3.399-2.642-5.124-6.901-4.519-11.163.228-1.604 22.963-162.484 40.699-351.066 22.637-240.698 27.242-420.562 13.414-521.604l-742.79-4.577c-7.891 24.055-32.019 118.934-104.1 449.545-46.848 214.874-91.757 427.759-92.204 429.884-.635 3.009-2.399 5.659-4.931 7.404l-217.333 149.839 457.254-12.166c5.686-38.481 28.011-180.82 66.997-324.878 61.999-229.096 135.163-353.453 217.46-369.618 23.216-4.564 43.432 1.281 60.08 17.364 23.684 22.879 39.15 65.658 47.286 130.781 6.549 52.424 8.126 119.354 4.686 198.934-6.34 146.685-28.015 297.833-37.309 357.581z" fill="rgba(0,0,0,1)" id="JCXZM6_yp-AZq_LOyqCYT" data-selector="path[5]" /><path d="m1539.318 1286.75c50.715.757 154.27 29.568 154.27 115.905 0 51.074-33.924 91.86-73.414 120.421-41.074 29.707-88.959 49.708-136.989 65.139-16.903 5.431-34.002 10.269-51.25 14.479-21.741 5.306-77.832 19.045-73.237 44.981 6.405 36.156 75.782 17.568 75.782 17.568s-61.222 16.471-53.047 44.436c13.09 44.78 81.196 12.638 81.196 12.638s-60.817 16.052-50.539 46.266c11.367 33.413 81.982-1.033 81.982-1.033s-24.565 8.38-33.032 17.202-13.052 22.571-7.713 33.572c4.619 9.518 20.422 24.663 53.667 11.988 78.192-29.812 461.632-178.713 440.001-497.428-8.283-122.043-110.25-221.245-222.773-269.22-112.523-47.974-339.547-66.203-467.26-88.664" fill="rgba(255,255,255,1)" id="ui4BMK7f1gJonPCGkpFJE" data-selector="path[6]" /><path d="m1483.57 1847.173c-6.597 0-12.778-1.118-18.511-3.357-14.143-5.524-20.467-16.006-22.528-20.256-4.585-9.445-4.348-19.526-1.36-28.55-7.977.378-15.681-.441-22.261-3.183-8.831-3.677-15.118-10.379-18.181-19.381-3.003-8.827-2.247-17.86 2.187-26.125.368-.687.761-1.364 1.175-2.029-3.682-.73-7.271-1.825-10.692-3.364-11.55-5.195-19.671-14.838-23.484-27.884-2.331-7.977-1.332-16.166 2.89-23.683 1.833-3.263 4.244-6.298 7.041-9.105-6.139-1.288-11.955-3.375-16.966-6.564-8.671-5.52-14.203-13.792-15.998-23.925-6.564-37.066 55.645-52.248 82.209-58.731 16.794-4.099 33.76-8.892 50.424-14.246 56.362-18.107 98.823-38.266 133.628-63.438 31.225-22.583 68.446-60.12 68.446-110.697 0-76.902-95.972-103.213-142.448-103.906-6.627-.1-11.919-5.552-11.82-12.178.099-6.565 5.452-11.821 11.995-11.821h.183c26.343.394 66.932 7.797 101.848 27.395 42.028 23.591 64.243 58.347 64.243 100.51 0 60.711-42.624 104.282-78.382 130.145-36.913 26.697-81.511 47.937-140.351 66.84-17.207 5.528-34.728 10.479-52.075 14.712-10.197 2.489-29.177 7.121-44.379 14.023-13.094 5.945-20.715 12.539-19.888 17.207.623 3.52 2.239 5.942 5.239 7.855 12.088 7.709 40.503 4.229 55.6.221.003 0 .006-.002.01-.003.007-.002.015-.004.022-.006 6.395-1.704 12.971 2.099 14.682 8.494 1.711 6.396-2.076 12.968-8.47 14.688-14.806 4.011-38.215 14.202-43.873 24.295-1.322 2.358-1.153 3.886-.773 5.186 1.857 6.354 5.121 10.395 10.271 12.719 9.459 4.271 23.4 2.407 35.198-.765 10.332-4.585 19.169-7.03 21.146-7.552 5.998-1.584 12.213 1.666 14.337 7.493 2.124 5.828-.543 12.314-6.152 14.962-1.922.906-10.263 4.707-21.422 7.85-9.679 4.484-18.897 10.359-22.27 16.662-1.287 2.403-1.469 4.508-.608 7.036.846 2.486 2.203 3.922 4.685 4.955 9.569 3.984 28.098-.414 43.229-5.74 8.379-4.07 16.359-6.896 18.835-7.741 5.996-2.044 12.551.924 14.967 6.78 2.417 5.857-.137 12.584-5.831 15.362-1.879.916-9.014 4.306-18.672 7.8-4.799 2.377-8.98 4.859-10.964 6.926-4.924 5.131-8.552 13.893-5.575 20.024.868 1.791 9.336 17.175 38.595 6.015 169.373-64.574 450.758-213.502 432.305-485.402-8.621-127.021-121.48-218.905-215.507-258.994-79.343-33.827-216.435-52.556-337.389-69.079-46.819-6.396-91.041-12.438-127.243-18.805-6.527-1.147-10.889-7.369-9.74-13.896 1.147-6.526 7.359-10.894 13.896-9.74 35.75 6.287 79.751 12.298 126.336 18.662 122.452 16.729 261.242 35.688 343.552 70.781 59.785 25.49 114.751 64.533 154.772 109.938 45.194 51.272 71.221 109.888 75.268 169.508 5.142 75.769-11.749 148.034-50.204 214.791-31.422 54.549-77.491 105.862-136.927 152.514-70.365 55.23-158.033 103.057-260.568 142.148-9.878 3.766-19.137 5.65-27.698 5.65z" fill="rgba(0,0,0,1)" id="yUe6rTr8krjWzMw4_Nh3R" data-selector="path[7]" /><path d="m327.854 801.988c-26.317-7.465-50.436-13.536-71.284-17.532-40.974-7.854-82.541-15.745-124.135-12.506-41.594 3.24-83.94 19.027-110.551 51.158-9.736 13.631-11.363 20.316-8.803 32.007 3.461 15.803 20.866 25.336 37.043 25.335 16.177 0 76.438-21.435 76.438-21.435 20.012 19.918 46.479 33.247 74.397 37.466s57.141-.692 82.146-13.807" fill="rgba(255,255,255,1)" id="maYxcfXkeJd3wPIhpN3Yb" data-selector="path[8]" /><path d="m220.695 909.955c-7.201 0-14.4-.532-21.529-1.609-27.937-4.222-54.476-16.773-75.522-35.593-17.974 6.216-58.667 19.696-73.519 19.697-20.45 0-43.768-11.942-48.767-34.768-3.36-15.344-.746-25.44 10.761-41.549.166-.232.341-.46.522-.68 26.382-31.853 68.594-51.552 118.861-55.468 43.487-3.39 86.11 4.783 127.326 12.685 20.008 3.835 43.657 9.648 72.299 17.772 6.376 1.809 10.079 8.443 8.271 14.819s-8.439 10.079-14.819 8.271c-27.966-7.933-50.951-13.589-70.268-17.292-39.661-7.602-80.666-15.466-120.945-12.327-42.919 3.344-80.055 20.293-101.969 46.522-8.403 11.836-8.115 15.167-6.595 22.111 2.151 9.822 14.818 15.902 25.321 15.902 9.722 0 48.199-12.13 72.416-20.742 4.355-1.55 9.211-.458 12.487 2.802 18.234 18.149 42.286 30.262 67.725 34.105 25.438 3.846 51.995-.619 74.779-12.568 5.867-3.076 13.122-.816 16.2 5.054 3.078 5.869.815 13.122-5.054 16.2-20.888 10.955-44.428 16.654-67.982 16.654z" fill="rgba(0,0,0,1)" id="fzOl0Ha6LMkebwuDY5_iS" data-selector="path[9]" /><ellipse cx="980.047" cy="496.622" fill="rgba(167,152,248,1)" rx="233.413" ry="147.712" transform="matrix(.03620767 -.99934429 .99934429 .03620767 448.271 1458.048)" id="aHb15Bh09YPJt5BaloudZ" data-selector="ellipse[10]" /><path d="m975.102 741.946c-1.313 0-2.622-.023-3.939-.071-43.688-1.583-83.404-29.301-111.836-78.048-27.415-47.004-41.225-108.438-38.887-172.986 2.338-64.547 20.557-124.821 51.301-169.719 31.885-46.562 73.501-71.318 117.19-69.752 43.688 1.583 83.405 29.301 111.836 78.049 27.415 47.004 41.226 108.438 38.888 172.985-2.339 64.547-20.558 124.821-51.302 169.719-30.923 45.159-71.009 69.823-113.251 69.823zm9.946-466.647c-34.112 0-67.209 20.979-93.505 59.382-28.21 41.196-44.943 96.964-47.119 157.028s10.479 116.896 35.634 160.025c24.139 41.387 56.802 64.881 91.974 66.155 35.186 1.271 69.449-19.796 96.519-59.327 28.21-41.196 44.944-96.964 47.12-157.028s-10.479-116.896-35.635-160.025c-24.138-41.387-56.802-64.881-91.974-66.155-1.005-.036-2.01-.055-3.014-.055zm142.614 226.67h.01z" fill="rgba(167,152,248,1)" id="sWR_CERtL5mt-XyuBfyv3" data-selector="path[11]" /><path d="m1372.224 7.876c-186.996 19.556-337.792 198.896-345.898 422.661l-91.557-3.317c8.759-241.82 184.16-431.746 391.793-424.225 15.491.561 30.742 2.214 45.662 4.881z" fill="rgba(115,122,249,1)" id="Y4Pu1kQwhPBVT5rdR6Yhe" data-selector="path[12]" /><ellipse cx="1016.254" cy="497.934" rx="233.413" ry="147.712" transform="matrix(.03620767 -.99934429 .99934429 .03620767 481.857 1495.495)" fill="rgba(0,0,0,1)" id="NuqsNYrnq7ZvktAhBMCN" data-selector="ellipse[13]" /><path d="m1011.309 743.257c-1.313 0-2.622-.023-3.939-.071-43.688-1.583-83.404-29.301-111.836-78.048-27.415-47.004-41.225-108.438-38.887-172.986 2.339-64.548 20.558-124.821 51.302-169.719 31.885-46.563 73.53-71.335 117.19-69.751 43.688 1.583 83.404 29.301 111.836 78.048 27.415 47.005 41.225 108.438 38.887 172.986-2.339 64.547-20.558 124.821-51.302 169.718-30.922 45.159-71.009 69.823-113.251 69.823zm9.946-466.645c-34.112 0-67.208 20.979-93.504 59.381-28.21 41.196-44.944 96.964-47.12 157.028s10.479 116.896 35.634 160.025c24.139 41.387 56.802 64.881 91.974 66.155 35.178 1.24 69.449-19.796 96.52-59.327 28.209-41.196 44.943-96.963 47.119-157.027l11.992.435-11.992-.435c2.176-60.064-10.479-116.896-35.634-160.025-24.139-41.387-56.802-64.881-91.974-66.155-1.005-.036-2.011-.055-3.015-.055z" fill="rgba(0,0,0,1)" id="NGEI7CyYE83fELXslVZNP" data-selector="path[14]" /><path d="m943.28 493.348c-34.786 119.783-24.351 254.169-87.483 361.744-14.192 24.182-31.871 46.459-42.954 72.214-11.082 25.756-14.686 56.883-.4 81.01 14.286 24.126 50.688 35.257 71.742 16.74-19.768 59.434 7.968 131.011 62.623 161.605s130.171 16.816 170.499-31.109c19.339 48.707 69.079 83.758 121.453 85.586 52.374 1.827 104.436-29.672 127.123-76.912 29.722 45.263 92.238 65.74 142.979 46.831 50.741-18.908 84.612-75.302 77.465-128.978 24.617 28.663 56.973 52.8 94.346 58.352s79.574-11.645 94.8-46.224c10.052-22.829 7.433-48.98 4.625-73.765-10.045-88.641-20.09-177.282-30.135-265.924-12.373-109.189 24.391-218.518-1.616-325.283-62.698-257.392-305.241-295.341-433.186-277.638-294.1 40.693-337.283 222.613-371.882 341.752z" fill="rgba(174,248,118,1)" id="QW9RfS3UzDcJutnOVQBOd" data-selector="path[15]" /><path d="m1243.189 1253.214c-1.616 0-3.229-.028-4.846-.085-28.035-.978-55.563-10.451-79.609-27.396-18.869-13.297-34.128-30.162-44.825-49.405-20.11 18.252-45.92 30.846-74.323 36.028-34.744 6.341-69.773.934-98.638-15.225-28.863-16.156-51.787-43.191-64.549-76.122-9.546-24.635-12.666-50.661-9.263-75.351-5.833.921-11.992.899-18.317-.104-19.247-3.055-37.142-14.981-46.7-31.124-14.659-24.755-14.768-58.239-.299-91.867 7.64-17.755 18.136-33.778 28.286-49.274 5.189-7.922 10.555-16.112 15.342-24.271 37.979-64.714 48.383-138.67 59.397-216.969 6.624-47.086 13.476-95.783 26.911-142.048 1.089-3.746 2.185-7.555 3.298-11.419 17.271-59.993 38.766-134.656 92.636-199.365 29.312-35.211 65.986-64.404 109.003-86.77 49.169-25.563 108.661-43.307 176.825-52.738 25.328-3.504 66.002-6.403 115.943-.309 47.301 5.772 91.657 18.214 131.84 36.98 47.337 22.107 87.727 52.598 120.047 90.623 37.05 43.589 63.515 97.215 78.659 159.39 15.03 61.703 9.721 124.481 4.585 185.193-3.939 46.571-8.013 94.729-2.703 141.578l30.135 265.924c2.702 23.851 6.066 53.534-5.566 79.952-8.333 18.926-24.327 34.629-45.036 44.216-19.328 8.948-41.53 12.16-62.509 9.043-32.721-4.861-59.934-22.169-80.543-40.7-2.242 18.698-8.609 37.253-18.778 54.184-15.829 26.355-39.459 46.427-66.537 56.518s-58.081 10.376-87.297.808c-22.852-7.485-43.017-20.478-58.309-37.342-11.977 18.201-28.237 33.758-47.78 45.581-23.717 14.35-50.061 21.865-76.479 21.866zm-125.882-109.663c.638 0 1.28.051 1.922.154 4.168.677 7.674 3.493 9.232 7.417 17.58 44.277 63.108 76.361 110.718 78.022 47.622 1.651 95.266-27.171 115.888-70.115 1.873-3.899 5.701-6.49 10.018-6.778 4.309-.279 8.455 1.769 10.83 5.387 26.671 40.615 83.231 59.141 128.758 42.174 45.531-16.967 76.174-67.986 69.762-116.149-.701-5.266 2.143-10.365 6.99-12.536 4.848-2.172 10.547-.896 14.008 3.134 18.582 21.636 48.761 48.619 87.006 54.3 34.664 5.153 69.947-11.696 82.054-39.19 9.021-20.485 6.186-45.504 3.684-67.577l-30.135-265.924c-5.576-49.21-1.401-98.569 2.636-146.304 5.202-61.501 10.116-119.591-3.988-177.491-60.769-249.474-292.522-286.216-419.882-268.591-277.102 38.341-324.258 202.139-358.69 321.739-1.117 3.883-2.219 7.709-3.312 11.473-12.957 44.618-19.686 92.445-26.192 138.697-10.855 77.167-22.08 156.961-62.464 225.774-5.087 8.667-10.616 17.108-15.965 25.272-10.029 15.312-19.502 29.773-26.316 45.61-5.395 12.538-16.302 44.475-1.097 70.152 5.923 10.002 17.625 17.715 29.812 19.648 5.405.858 15.666 1.244 23.681-5.805 4.07-3.58 10.035-3.986 14.554-.992 4.519 2.995 6.469 8.646 4.758 13.79-17.841 53.637 7.773 119.735 57.098 147.347 49.325 27.608 119.062 14.887 155.456-28.365 2.3-2.733 5.673-4.273 9.181-4.273zm-174.028-650.203h.01z" fill="rgba(174,248,118,1)" id="WXyrLBWNfb0z3Mi5wtwRB" data-selector="path[16]" /><path d="m1247.714 624.106c-2.242 0-4.497-.75-6.361-2.289-4.259-3.517-4.86-9.819-1.344-14.078 13.318-16.129 31.937-27.34 52.425-31.569 20.488-4.228 42.023-1.302 60.64 8.237 4.915 2.519 6.857 8.545 4.339 13.46s-8.545 6.856-13.46 4.339c-14.363-7.359-31.669-9.712-47.476-6.448-15.809 3.263-30.77 12.271-41.046 24.716-1.978 2.395-4.836 3.633-7.717 3.633z" fill="rgba(0,0,0,1)" id="jjTmNEvTBqOxLTc5x5Z" data-selector="path[17]" /><path d="m1148.548 625.902c-2.711 0-5.412-1.096-7.386-3.255-10.888-11.916-26.28-20.166-42.23-22.632-15.948-2.468-33.115.746-47.095 8.814-4.784 2.763-10.899 1.122-13.66-3.66-2.762-4.783-1.122-10.899 3.66-13.66 18.117-10.459 39.477-14.457 60.152-11.26 20.671 3.197 39.826 13.463 53.938 28.907 3.725 4.077 3.439 10.402-.638 14.128-1.918 1.752-4.334 2.617-6.742 2.617z" fill="rgba(0,0,0,1)" id="hrbIPXVsW96TPqdYhtdjS" data-selector="path[18]" /><path d="m1241.237 722.94c-13.272 6.777-24.299 20.683-22.364 35.459 1.385 10.575 9.199 19.512 18.59 24.567s20.216 6.743 30.856 7.481c45.524 3.154 92.016-10.253 128.87-37.163 13.756-10.044 27.212-24.231 26.42-41.245-.973-20.895-24.211-34.984-45.1-33.884-22.971 1.21-40.479 15.765-60.722 24.595-24.476 10.676-52.894 8.111-76.549 20.19z" fill="rgba(255,255,255,1)" id="FGUEwV3D6jwI-2xk3Gz" data-selector="path[19]" /><path d="m1281.214 800.891c-4.54 0-9.068-.155-13.587-.469-10.062-.697-23.123-2.311-34.903-8.65-13.182-7.097-22.065-19.087-23.766-32.074-2.672-20.396 12.004-37.632 27.731-45.664 13.824-7.059 28.622-9.532 42.934-11.924 12.188-2.037 23.701-3.962 34.165-8.525 5.802-2.531 11.383-5.575 17.292-8.799 14.112-7.698 28.704-15.658 46.901-16.617 14.974-.78 30.433 4.644 41.353 14.531 8.823 7.989 13.756 17.973 14.264 28.873.821 17.652-9.444 34.402-30.512 49.787-34.855 25.45-78.61 39.529-121.872 39.531zm99.631-112.798c-.606 0-1.209.016-1.811.048-13.66.72-25.666 7.269-38.376 14.202-6.029 3.289-12.264 6.69-18.874 9.573-12.727 5.552-26.015 7.772-38.864 9.92-13.403 2.239-26.062 4.355-37.135 10.01-9.458 4.829-18.333 15.055-16.997 25.254.855 6.529 5.995 13.066 13.415 17.062 8.415 4.528 18.746 5.751 26.807 6.309 42.955 2.985 87.517-9.877 122.281-35.263 10.522-7.684 22.938-19.595 22.328-32.704-.321-6.901-4.369-11.954-7.708-14.978-6.52-5.902-15.979-9.433-25.066-9.433zm-139.608 34.847h.01z" fill="rgba(0,0,0,1)" id="jRh2d5qN1nXmbvSPhmkFM" data-selector="path[20]" /><ellipse cx="1680.257" cy="529.322" rx="233.413" ry="147.712" transform="matrix(.03620767 -.99934429 .99934429 .03620767 1090.455 2189.315)" fill="rgba(0,0,0,1)" id="Rz543bpxKl3qzhx78xXyv" data-selector="ellipse[21]" /><path d="m1675.313 774.645c-1.313 0-2.622-.023-3.939-.071-43.688-1.582-83.405-29.301-111.836-78.048-27.415-47.004-41.226-108.438-38.888-172.986 2.339-64.547 20.558-124.82 51.302-169.719 31.885-46.562 73.517-71.343 117.19-69.751 43.688 1.582 83.405 29.301 111.836 78.048 27.415 47.004 41.226 108.438 38.888 172.986-2.339 64.547-20.558 124.821-51.302 169.719-30.923 45.158-71.009 69.822-113.251 69.822zm9.947-466.646c-34.112 0-67.21 20.979-93.506 59.382-28.21 41.196-44.944 96.963-47.12 157.027s10.479 116.896 35.635 160.025c24.138 41.387 56.802 64.881 91.974 66.155 35.168 1.242 69.449-19.797 96.519-59.326 28.21-41.196 44.944-96.964 47.12-157.028s-10.479-116.896-35.635-160.025c-24.138-41.387-56.802-64.881-91.974-66.155-1.005-.036-2.01-.055-3.013-.055zm142.613 226.67h.01z" fill="rgba(0,0,0,1)" id="M-6gCLlTf4N9dd0FKkY4j" data-selector="path[22]" /><g fill="rgba(167,152,248,1)" id="lanzezadqFGUpVonmnBaw" data-selector="g[23]"><path d="m1778.19 457.773-91.557-3.317c6.985-192.822-90.219-370.216-240.625-424.21-92.948-33.367-176.308-24.359-176.308-24.359s81.993-10.975 144.52-2.956c206.063 26.428 372.731 213.022 363.97 454.842z" fill="rgba(167,152,248,1)" id="qcwcfXzM5CjHXP2D0PNKt" data-selector="g[23]&gt;path[1]" /><path d="m1671.839 319.655c-4.479-.162-8.275-3.594-8.767-8.182-.079-.73-8.549-74.505-55.887-146.851-63.07-96.386-161.867-144.894-293.644-144.16-111.077.616-202.08 45.458-270.483 133.286-27.009 34.68-59.462 105.268-59.462 105.268s-8.695 3.375-13.965 6.428c-6.06 3.51-10.718 5.025-10.718 5.025s28.411-74.804 69.271-127.443c31.486-40.563 68.486-72.972 109.969-96.324 51.892-29.213 110.867-44.207 175.287-44.565 76.098-.411 142.831 15.457 198.359 47.194 44.565 25.47 81.954 61.096 111.129 105.887 49.497 75.992 58.024 151.142 58.363 154.303.539 5.03-3.102 9.546-8.134 10.085-.445.047-.886.063-1.32.047z" fill="rgba(167,152,248,1)" id="y9YgDZk6TcL_-vvDCWd8C" data-selector="g[23]&gt;path[2]" /><ellipse cx="1716.465" cy="530.633" rx="233.413" ry="147.712" transform="matrix(.03620767 -.99934429 .99934429 .03620767 1124.04 2226.763)" fill="rgba(167,152,248,1)" id="RgFz5F-rwzmUx4TKmmTLI" data-selector="g[23]&gt;ellipse[3]" /><path d="m1711.521 775.956c-1.313 0-2.623-.023-3.94-.071-43.688-1.583-83.404-29.301-111.836-78.048-27.415-47.005-41.225-108.438-38.887-172.986 2.339-64.547 20.558-124.82 51.302-169.718 31.885-46.563 73.513-71.328 117.19-69.752 43.688 1.583 83.404 29.301 111.836 78.048 27.415 47.004 41.225 108.438 38.887 172.986-2.339 64.548-20.558 124.821-51.302 169.719-30.923 45.159-71.007 69.822-113.25 69.822zm9.947-466.645c-34.112 0-67.21 20.979-93.506 59.382-28.21 41.196-44.944 96.963-47.12 157.027s10.479 116.896 35.634 160.025c24.139 41.387 56.802 64.881 91.974 66.155 35.157 1.262 69.449-19.793 96.52-59.326 28.209-41.196 44.943-96.963 47.119-157.028 2.176-60.064-10.479-116.896-35.634-160.025-24.139-41.387-56.802-64.881-91.974-66.155-1.005-.036-2.01-.055-3.013-.055z" fill="rgba(167,152,248,1)" id="peCX1_YCINVX9sPYYFebL" data-selector="g[23]&gt;path[4]" /></g></g></g><g transform="translate(1680 539) rotate(0 618.5 900.5) scale(1 1)" opacity="1" data-asset-index="1"><g clip-path="url(#assetClipPath_ACqkYYcg)" transform="scale(0.8141564496723629 0.8141564496723629)" data-asset-index="1"><defs data-selector="defs[1]" /><path d="m1379.162 2147.376-222.175-120.036c38.06-236.051 44.113-566.036 15.357-847.813h-617.347c-50.476 247.812-100.953 495.622-151.429 743.434-11.231 55.138-55.63 158.028-55.63 158.028l-182.102 122.734 523.27-.011s44.043-304.526 83.393-569.191c4.941-33.234 31.618-58.985 64.998-62.821 39.487-4.537 75.547 22.808 81.853 62.051 36.934 229.847 28.502 331.8-.703 562.76z" fill="rgba(0,0,0,1)" id="fH4Bpkh2IvzG6vSXcA1o" data-selector="path[2]" /><path d="m165.836 2215.723c-5.276 0-9.935-3.447-11.477-8.493-1.542-5.047.394-10.509 4.77-13.458l179.162-120.752c7.526-17.755 43.76-104.548 53.518-152.454l151.43-743.434c1.139-5.589 6.055-9.604 11.759-9.604h617.347c6.155 0 11.313 4.658 11.938 10.781 14.149 138.649 20.18 291.66 17.438 442.49-2.675 147.162-13.571 285.233-31.547 400.025l214.693 115.994c4.626 2.499 7.086 7.719 6.069 12.877-1.017 5.159-5.272 9.055-10.5 9.613l-460.515 49.136c-3.65.386-7.272-.912-9.841-3.53-2.568-2.619-3.798-6.269-3.338-9.908 30.165-238.558 36.879-334.574.761-559.351-5.303-32.99-35.464-55.849-68.636-52.033-27.955 3.212-50.366 24.868-54.499 52.663-38.896 261.615-82.946 566.1-83.387 569.145-.854 5.902-5.912 10.282-11.876 10.282l-523.27.011zm398.963-1024.196-149.473 733.829c-11.349 55.715-54.537 156.139-56.37 160.386-.91 2.109-2.406 3.913-4.311 5.197l-149.533 100.782 473.605-.01c8.028-55.429 47.04-324.412 81.912-558.956 5.727-38.518 36.772-68.527 75.497-72.978 45.957-5.276 87.729 26.375 95.071 72.069 18.397 114.487 25.755 199.132 24.602 283.031-1.137 82.674-10.705 167.394-23.351 268.092l406.979-43.423-188.145-101.65c-4.491-2.427-6.955-7.429-6.143-12.468 37.262-231.102 43.577-557.175 16.346-833.902h-596.688z" fill="rgba(0,0,0,1)" id="ROq7xPwCLKwTwIqT2ia33" data-selector="path[3]" /><path d="m789.268 12.226c-5.48 0-214.951-11.371-331.737 127.179-71.404 84.711-76.711 182.961-149.851 198.291 22.257 42.269 75.928 65.034 123.767 78.749 21.592 178.446 173.549 316.721 357.821 316.721 199.082 0 360.47-161.388 360.47-360.47s-161.388-360.47-360.47-360.47z" fill="rgba(255,210,0,1)" id="kaAvqmmGbvYe3HF7dG8UY" data-selector="path[4]" /><path d="m789.268 745.166c-185.553 0-342.67-136.766-368.698-319.421-64.139-19.498-104.581-46.514-123.508-82.458-1.754-3.331-1.843-7.293-.24-10.699 1.604-3.407 4.712-5.864 8.396-6.637 38.187-8.004 56.207-44.135 79.022-89.879 16.227-32.532 34.617-69.405 64.115-104.401 26.864-31.869 60.62-58.568 100.331-79.354 31.978-16.738 67.967-29.741 106.969-38.649 61.155-13.968 113.228-14.066 132.765-13.469.413.013.713.022.896.026 50.262.006 99.024 9.855 144.938 29.275 44.355 18.761 84.188 45.616 118.391 79.819s61.058 74.035 79.818 118.39c19.426 45.929 29.275 94.709 29.275 144.986s-9.85 99.058-29.275 144.985c-18.761 44.355-45.615 84.188-79.818 118.391s-74.035 61.058-118.391 79.818c-45.928 19.426-94.708 29.275-144.985 29.275zm-462.965-400.609c19.354 25.212 55.04 45.04 108.452 60.354 4.636 1.329 8.026 5.306 8.605 10.094 21.119 174.541 169.827 306.162 345.907 306.162 192.146 0 348.47-156.323 348.47-348.47s-156.323-348.471-348.469-348.471c-.238 0-.772-.013-1.588-.038-35.375-1.09-217.086-.295-320.974 122.952-27.65 32.804-45.362 68.314-60.988 99.645-21.829 43.767-41.024 82.256-79.415 97.772zm463.043-344.33h.01z" fill="rgba(255,210,0,1)" id="iOrys8Llzz2oHPeTVNm3" data-selector="path[5]" /><path d="m652.826 168.478c-1.468 0-2.96-.271-4.407-.843-48.809-19.29-103.546-22.209-154.128-8.224-6.391 1.766-12.998-1.981-14.765-8.368-1.766-6.388 1.98-12.998 8.368-14.765 55.58-15.365 115.72-12.158 169.345 9.036 6.164 2.436 9.186 9.407 6.75 15.57-1.864 4.716-6.383 7.593-11.163 7.593z" fill="rgba(245,120,0,1)" id="gL4yhxceujAIv9PzIL8KU" data-selector="path[6]" /><path d="m818.283 146.152c-2.075 0-4.177-.539-6.093-1.671-57.241-33.824-127.634-46.672-193.135-35.247-6.528 1.146-12.744-3.23-13.883-9.76-1.139-6.528 3.23-12.744 9.76-13.883 35.546-6.202 71.92-5.994 108.109.609 36.192 6.605 70.294 19.262 101.357 37.618 5.706 3.371 7.599 10.73 4.227 16.436-2.239 3.79-6.238 5.897-10.343 5.897z" fill="rgba(245,120,0,1)" id="FIdq2mSrD-AaSBXxvoKPK" data-selector="path[7]" /><path d="m840.438 116.639c-3.453 0-6.88-1.482-9.253-4.351-19.952-24.118-46.137-42.268-75.725-52.486-6.265-2.164-9.589-8.996-7.426-15.26 2.164-6.265 9-9.589 15.26-7.426 33.752 11.657 63.623 32.36 86.383 59.873 4.225 5.107 3.51 12.671-1.597 16.896-2.238 1.852-4.949 2.754-7.643 2.754z" fill="rgba(245,120,0,1)" id="HMjYeZcOGsJHcID49hWDm" data-selector="path[8]" /><path d="m656.542 355.832c-3.284 0-6.556-1.34-8.925-3.975-4.433-4.927-4.032-12.514.896-16.946 43.309-38.963 74.835-40.711 121.328-30.113 6.462 1.474 10.506 7.905 9.033 14.367-1.474 6.461-7.905 10.502-14.367 9.033-40.874-9.317-63.795-7.965-99.943 24.555-2.293 2.063-5.162 3.079-8.021 3.079z" fill="rgba(0,0,0,1)" id="s_kpSCAzcrJxi6hDBhv-5" data-selector="path[9]" /><ellipse cx="719.4" cy="358.892" rx="19.716" ry="26.813" fill="rgba(0,0,0,1)" id="M6P-AmeqXLBKpB2SqDmpx" data-selector="ellipse[10]" /><path d="m943.78 334.213c-12.263 0-24.529-1.169-36.604-3.519-6.506-1.267-10.753-7.566-9.487-14.071s7.555-10.757 14.071-9.487c27.505 5.351 56.157 3.703 82.863-4.768 6.315-2.003 13.062 1.492 15.066 7.811 2.004 6.316-1.493 13.062-7.811 15.066-18.797 5.962-38.44 8.968-58.099 8.968z" fill="rgba(0,0,0,1)" id="kG6VjHg2Pt7m1Z587qbnY" data-selector="path[11]" /><ellipse cx="961.463" cy="341.997" rx="19.716" ry="23.992" fill="rgba(0,0,0,1)" id="V_O1bHdD9pIGU4pwjJ16C" data-selector="ellipse[12]" /><path d="m263.997 632.494c-36.754 21.52-73.299 45.979-104.583 74.462-31.378 28.569-42.277 75.026-66.004 110.425-25.711 38.36-51.871 75.173-65.262 119.555-13.443 44.556-14.127 89.52-13.223 135.599.91 46.351-10.643 96.49 6.746 139.76 17.207 42.816 53.852 77.598 86.474 110.439s75.736 49.477 118.143 67.053c42.767 17.725 96.241 30.784 142.829 27.397-25.478 44.486-6.518 69.131 38.413 93.815 13.657 7.503 65.997 24.497 138.69 26.428 41.776 1.11 90.308 3.755 141.094 3.667 45.753-.079 93.451-23.693 140.612-24.382 48.681-.712 96.937 15.545 141.06 14.554 54.743-1.229 103.825 4.045 140.935 3.036 36.896-1.002 144.09-23.938 169.28-54.526 23.463-28.491 35.314-79.873 4.561-100.283 30.874-5.985 79.151-22.379 118.24-65.394 27.679-30.459 41.522-79.757 60.708-125.831 16.383-39.344 41.056-82.61 44.177-131.686 2.685-42.212-6.389-90.009-17.996-138.372-9.791-40.795-44.016-75.82-66.693-120.356-21-41.243-35.595-94.615-70.723-126.347-57.487-51.93-135.03-5.724-117.587-75.851 13.458-54.106 54.386-33.414 69.884-70.252 19.901-47.305 15.964-113.054-49.84-170.667-24.769-21.685-70.845-12.096-111.812-7.678-39.476 4.257-97.924 11.742-150.533 33.846-74.433 31.273-63.1 57.049-140.039 70.154-62.918 10.717-55.756-14.623-124.439-31.202-39.63-9.566-84.234-17.425-124.913-25.98-54.777-11.519-102.558-29.037-125.267-28.553-68.801 1.466-138.505 31.216-184.65 82.269-46.145 51.052-68.388 135.122-32.697 193.958 1.668 2.453 5.973-10.146 4.412-9.057z" fill="rgba(246,0,128,1)" id="qTH95173dUU1OLX9FpB7C" data-selector="path[13]" /><path d="m684.887 1553.096c-34.221 0-67.982-1.225-97.855-2.309-14.43-.523-28.06-1.019-41.129-1.365-71.462-1.898-126.343-18.124-144.149-27.906-21.442-11.779-46.966-28.54-54.07-53.802-3.303-11.746-2.539-24.306 2.364-38.041-39.323-.671-84.957-10.815-128.354-28.8-2.511-1.041-5.024-2.078-7.537-3.115-40.324-16.64-82.021-33.845-114.524-66.566-2.297-2.312-4.613-4.634-6.941-6.967-30.584-30.651-65.249-65.392-82.153-107.455-13.175-32.781-11.062-68.212-9.021-102.477.861-14.443 1.675-28.085 1.41-41.522-.874-44.557-.534-92.016 13.733-139.301 12.884-42.702 37.273-78.928 60.86-113.961 1.973-2.93 3.948-5.864 5.922-8.809 8.622-12.863 15.451-27.268 22.682-42.519 11.868-25.03 24.14-50.913 45.211-70.099 24.356-22.176 53.889-43.847 89.914-65.949-11.769-27.195-14.476-58.915-7.777-92.809 7.268-36.78 24.992-72.216 49.907-99.78 47.379-52.418 119.64-84.649 193.297-86.219 15.056-.327 37.422 5.707 65.729 13.34 18.753 5.056 40.008 10.787 62.263 15.467 14.312 3.01 29.448 5.999 44.086 8.891 27.192 5.371 55.312 10.925 81.173 17.167 28.903 6.977 45.087 15.45 58.091 22.259 17.893 9.37 27.751 14.529 61.519 8.778 41.027-6.988 54.271-17.153 72.6-31.224 14.021-10.763 31.472-24.158 64.806-38.164 51.114-21.476 106.479-29.599 153.895-34.713 5.517-.595 11.282-1.305 16.858-1.99 38.702-4.762 78.725-9.686 104.145 12.571 32.412 28.376 52.887 60.529 60.856 95.565 6.771 29.767 4.054 60.467-7.858 88.783-8.723 20.732-24.503 27.488-37.182 32.916-14.55 6.228-26.041 11.147-32.118 35.579-2.704 10.87-2.84 18.848-.384 22.463 3.536 5.203 16.593 6.955 30.416 8.81 23.625 3.169 55.98 7.509 83.953 32.778 27.224 24.593 42.34 59.729 56.957 93.709 5.505 12.796 10.704 24.882 16.415 36.098 8.468 16.63 18.78 32.147 28.754 47.155 16.672 25.086 32.419 48.78 38.914 75.846 10.684 44.513 21.213 96.187 18.303 141.934-2.597 40.836-19.25 77.712-33.942 110.247-3.971 8.793-7.721 17.098-11.132 25.29-4.5 10.807-8.782 22.004-12.924 32.832-14.076 36.808-27.372 71.575-49.981 96.455-34.231 37.672-75.104 55.659-104.563 64.196 3.575 6.149 5.988 13.191 7.148 20.975 3.753 25.173-6.296 57.348-25.003 80.065-29.876 36.276-144.118 57.966-178.218 58.893-17.498.48-37.685-.414-59.055-1.359-24.737-1.091-52.773-2.328-81.938-1.675-22.861.502-46.848-3.391-70.041-7.166-23.352-3.801-47.504-7.748-71.114-7.387-22.034.322-45.228 6.233-67.657 11.951-23.899 6.091-48.612 12.391-73.109 12.433-.814.002-1.635.002-2.449.002zm-315.768-147.912c4.103 0 7.948 2.103 10.154 5.609 2.362 3.754 2.461 8.506.257 12.354-8.777 15.326-11.638 27.778-8.743 38.068 3.658 13.01 16.772 25.119 42.521 39.265 12.83 7.049 64.19 23.116 133.23 24.949 13.187.351 26.873.848 41.362 1.373 31.855 1.156 64.779 2.396 99.394 2.291 21.507-.037 43.713-5.697 67.222-11.689 23.779-6.062 48.368-12.328 73.235-12.692 25.716-.381 50.942 3.728 75.32 7.696 23.14 3.767 45.004 7.32 65.646 6.86 29.959-.67 58.425.585 83.535 1.692 20.932.925 40.704 1.795 57.345 1.346 40.093-1.09 139.619-24.996 160.343-50.16 14.42-17.511 22.559-42.705 19.792-61.269-1.43-9.59-5.671-16.785-12.604-21.388-4.059-2.693-6.086-7.573-5.132-12.35.955-4.776 4.702-8.502 9.484-9.429 25.2-4.885 73.214-19.394 111.643-61.685 19.569-21.534 32.081-54.251 45.327-88.888 4.203-10.989 8.549-22.354 13.184-33.485 3.548-8.52 7.369-16.981 11.415-25.941 14.525-32.164 29.545-65.423 31.864-101.893 2.707-42.567-7.423-92.035-17.689-134.81-5.502-22.927-20.104-44.899-35.564-68.162-10.352-15.576-21.055-31.683-30.152-49.549-6.063-11.908-11.661-24.92-17.074-37.504-13.601-31.613-27.663-64.304-50.999-85.385-22.451-20.28-48.273-23.744-71.056-26.801-20.128-2.699-37.512-5.031-47.076-19.107-6.712-9.878-7.684-23.143-3.057-41.744 8.957-36.008 29.477-44.792 45.964-51.85 11.346-4.857 19.543-8.366 24.505-20.159 10.733-25.515 27.671-91.887-46.685-156.985-17.341-15.182-51.942-10.924-85.405-6.808-5.664.697-11.521 1.417-17.215 2.031-45.692 4.929-98.908 12.7-147.172 32.979-30.477 12.804-45.89 24.636-59.488 35.075-19.474 14.948-36.292 27.857-83.185 35.846-41.749 7.108-57.167-.958-76.681-11.176-12.451-6.521-26.564-13.909-52.589-20.191-25.374-6.124-53.242-11.629-80.192-16.952-14.709-2.905-29.919-5.909-44.375-8.949-22.913-4.818-44.514-10.643-63.571-15.781-24.889-6.711-46.452-12.524-58.251-12.524-.244 0-.483.002-.719.007-67.177 1.432-132.972 30.709-176.004 78.318-37.261 41.222-61.208 110.291-38.789 164.916 2.854-.421 5.805.176 8.327 1.8 1.634 1.052 6.849 5.124 5.329 13.366-.482 2.616-3.393 15.775-13.377 17.877-2.964.622-5.958.147-8.513-1.229-34.887 21.379-63.352 42.23-86.668 63.46-17.572 15.999-28.312 38.651-39.683 62.635-7.287 15.368-14.821 31.26-24.433 45.599-1.982 2.958-3.967 5.906-5.949 8.85-23.632 35.101-45.954 68.256-57.792 107.49-13.259 43.943-13.551 89.254-12.714 131.897.282 14.387-.598 29.147-1.448 43.422-1.972 33.075-3.834 64.315 7.332 92.099 15.08 37.524 46.493 69.006 76.873 99.452 2.341 2.346 4.67 4.681 6.979 7.005 29.099 29.293 66.769 44.838 106.651 61.295 2.524 1.042 5.05 2.084 7.572 3.129 47.616 19.735 97.682 29.402 137.364 26.514.292-.021.583-.031.872-.031zm-105.122-772.691h.01z" fill="rgba(246,0,128,1)" id="oG1x9w5FQeJsgAQcpzjoX" data-selector="path[14]" /><path d="m680.772 661.544c-1.34 0-2.702-.226-4.036-.702-17.035-6.084-34.75-13.09-51.882-19.866-50.027-19.787-101.759-40.247-149.656-43.703-64.444-4.649-121.399-4.019-217.721 48.637-5.814 3.18-13.106 1.042-16.285-4.773s-1.042-13.106 4.773-16.285c102.062-55.794 162.52-56.452 230.959-51.516 51.572 3.721 105.045 24.87 156.757 45.323 17.728 7.011 34.472 13.634 51.127 19.582 6.241 2.229 9.494 9.096 7.265 15.337-1.752 4.907-6.373 7.967-11.301 7.967z" fill="rgba(0,0,0,1)" id="Wd1jlcBTF6wAGL4hlT8Lt" data-selector="path[15]" /><path d="m1052.926 628.932c-4.593 0-8.975-2.649-10.966-7.114-2.7-6.053.019-13.148 6.07-15.848 51.566-23.001 130.119-29.361 181.055-23.764 6.588.724 11.341 6.651 10.616 13.239-.723 6.587-6.644 11.359-13.239 10.616-47.727-5.242-120.987.564-168.654 21.826-1.588.708-3.249 1.044-4.882 1.044z" fill="rgba(0,0,0,1)" id="pIpSh9qbsapO9rP3pQtPE" data-selector="path[16]" /><path d="m322.287 1081.104c-4.313 0-8.481-2.332-10.63-6.414-3.086-5.865-.832-13.122 5.032-16.208 46.577-24.505 99.533-40.248 153.146-45.526 53.614-5.279 108.623-.166 159.082 14.785 6.354 1.883 9.979 8.561 8.097 14.915-1.884 6.354-8.563 9.979-14.915 8.097-97.233-28.81-204.479-18.253-294.233 28.97-1.783.938-3.694 1.382-5.578 1.382z" fill="rgba(0,0,0,1)" id="E1iPiziMuVoCw512pE1hH" data-selector="path[17]" /><path d="m428.786 1044.057c-2.224 0-4.474-.617-6.483-1.91-5.572-3.588-7.183-11.013-3.596-16.586 28.411-44.138 47.672-94.887 55.699-146.759 1.013-6.551 7.136-11.042 13.693-10.023 6.55 1.013 11.037 7.144 10.023 13.693-8.536 55.167-29.02 109.138-59.234 156.079-2.294 3.563-6.157 5.506-10.103 5.506z" fill="rgba(0,0,0,1)" id="jP7P29Var0fIytxsDg6a9" data-selector="path[18]" /><path d="m1376.558 1062.15c-2.951 0-5.908-1.082-8.226-3.265-49.997-47.093-119.598-73.344-190.996-72.045-6.596.104-12.096-5.15-12.218-11.778-.121-6.626 5.152-12.097 11.778-12.218 1.838-.033 3.681-.051 5.516-.051 75.665 0 149.146 28.483 202.375 78.621 4.824 4.544 5.052 12.139.508 16.963-2.361 2.507-5.546 3.772-8.737 3.772z" fill="rgba(0,0,0,1)" id="aNNGgUBKMhgiqkqDCmMQ6" data-selector="path[19]" /><path d="m1227.785 986.797c-4.048 0-7.999-2.049-10.259-5.758-24.345-39.953-39.854-85.661-44.851-132.182-.708-6.589 4.061-12.505 10.65-13.213 6.584-.704 12.505 4.062 13.213 10.65 4.621 43.027 18.966 85.303 41.481 122.256 3.449 5.66 1.656 13.043-4.003 16.491-1.95 1.188-4.104 1.755-6.232 1.755z" fill="rgba(0,0,0,1)" id="BHS1883PRmNrp_wnjojOv" data-selector="path[20]" /><path d="m496.37 1406.861c-2.618 0-5.254-.853-7.463-2.609-5.187-4.125-6.046-11.675-1.921-16.861 106.437-133.802 148.559-299.145 112.678-442.291-1.611-6.429 2.294-12.946 8.722-14.558 6.43-1.61 12.947 2.293 14.558 8.722 9.891 39.456 14.362 80.693 13.293 122.567-1.022 40.006-7.1 80.8-18.062 121.248-20.965 77.35-59.834 153.165-112.404 219.253-2.369 2.978-5.868 4.529-9.399 4.529z" fill="rgba(0,0,0,1)" id="ITPw7ala_JOOG_IhqIP5" data-selector="path[21]" /><path d="m520.777 1479.369c-4.901 0-9.503-3.025-11.277-7.897l-26.139-71.794c-2.268-6.228.942-13.113 7.17-15.381 6.222-2.271 13.114.941 15.381 7.17l26.141 71.794c2.267 6.228-.943 13.114-7.171 15.382-1.355.493-2.741.727-4.104.727z" fill="rgba(0,0,0,1)" id="d4owIxQk4paorF1bmcfD" data-selector="path[22]" /><path d="m347.375 1437.032c-6.221 0-11.481-4.801-11.954-11.104-.495-6.609 4.462-12.368 11.07-12.863 113.873-8.53 140.894-27.059 141.153-27.244 5.384-3.862 12.883-2.627 16.744 2.76 3.862 5.386 2.626 12.883-2.76 16.744-15.198 10.897-63.463 24.94-153.345 31.674-.305.022-.608.034-.909.034z" fill="rgba(0,0,0,1)" id="gNRqoNhE3gG5ajNp7ZLME" data-selector="path[23]" /><path d="m1227.776 1437.034c-1.259 0-2.539-.199-3.799-.619-6.287-2.098-9.684-8.894-7.587-15.181l22.501-67.458c-.128-11.332-1.332-71.892-12.562-149.01-11.395-78.245-35.733-190.066-86.972-278.438-3.324-5.733-1.372-13.076 4.361-16.4 5.732-3.323 13.076-1.372 16.4 4.361 53.221 91.789 78.326 206.958 90.017 287.411 12.625 86.891 12.771 151.28 12.771 153.979 0 1.29-.208 2.572-.616 3.797l-23.132 69.352c-1.677 5.027-6.358 8.206-11.382 8.206z" fill="rgba(0,0,0,1)" id="naUipWj_31yJrXfo1Eb1P" data-selector="path[24]" /><path d="m1278.845 1391.472c-1.9 0-3.829-.452-5.625-1.407-30.492-16.222-30.879-16.485-31.581-16.964-5.475-3.735-6.885-11.201-3.15-16.676 3.591-5.264 10.631-6.77 16.035-3.559 1.994 1.11 19.327 10.349 29.968 16.009 5.851 3.113 8.071 10.38 4.958 16.23-2.157 4.056-6.311 6.366-10.604 6.366zm-24.26-38.57c.195.118.389.242.579.372-.081-.056-.271-.19-.579-.372z" fill="rgba(0,0,0,1)" id="hTlIngZ7ocUTal_ZP5hUj" data-selector="path[25]" /><g fill="rgba(249,115,147,1)" id="FRyzHaK9xd8sV0byouBho" data-selector="g[26]"><path d="m749.702 543.766c-24.844 75.393-32.424 163.055-23.454 240.245l-48.985 4.594c-10.692-87.211-2.374-176.69 24.068-260.473 3.898-12.35 16.558-19.715 29.251-17.145 14.892 3.015 23.876 18.348 19.12 32.779z" fill="rgba(249,115,147,1)" id="fZF7rf_PcwKlaCUnnrtEv" data-selector="g[26]&gt;path[1]" /><path d="m677.249 800.606c-5.995 0-11.154-4.474-11.898-10.541-10.848-88.489-2.363-180.312 24.536-265.544 5.753-18.227 24.272-29.099 43.075-25.295 10.484 2.123 19.579 8.645 24.953 17.894 5.354 9.215 6.514 20.296 3.183 30.402-23.609 71.648-31.967 157.341-22.931 235.104.372 3.207-.562 6.429-2.595 8.938s-4.99 4.094-8.205 4.395l-48.985 4.594c-.38.036-.759.054-1.133.054zm48.237-278.13c-5.737 0-10.939 3.651-12.712 9.268-24.701 78.268-33.259 162.305-24.904 243.814l25.183-2.362c-7.236-77.791 1.821-162.079 25.252-233.186 1.202-3.649.797-7.497-1.142-10.834-1.958-3.371-5.142-5.653-8.963-6.427-.911-.185-1.819-.273-2.715-.273z" fill="rgba(249,115,147,1)" id="vknwK9vhZdoBVahAOYo8u" data-selector="g[26]&gt;path[2]" /><path d="m968.788 537.572c37.184 70.134 59.416 155.267 63.572 232.866l49.059-3.72c-4.145-87.766-27.41-174.567-67.582-252.701-5.922-11.518-19.641-16.645-31.72-11.975-14.171 5.479-20.445 22.107-13.328 35.53z" fill="rgba(249,115,147,1)" id="HT02wsjcnhsmgrwH2R4un" data-selector="g[26]&gt;path[3]" /><path d="m1032.36 782.438c-2.904 0-5.723-1.055-7.92-2.984-2.426-2.131-3.891-5.149-4.062-8.374-4.187-78.174-26.854-161.235-62.191-227.886-4.984-9.402-5.706-20.521-1.979-30.507 3.739-10.021 11.605-17.98 21.582-21.837 17.894-6.922 37.98.681 46.72 17.68 40.867 79.487 64.691 168.571 68.897 257.622.307 6.487-4.604 12.041-11.079 12.532l-49.06 3.72c-.303.022-.605.034-.907.034zm-41.02-270.122c-1.63 0-3.287.297-4.896.919-3.637 1.406-6.39 4.191-7.753 7.844-1.349 3.615-1.101 7.478.699 10.873 35.068 66.146 58.189 147.705 64.154 225.604l25.222-1.912c-5.489-81.751-28.075-163.147-65.603-236.139-2.333-4.538-6.954-7.188-11.824-7.188z" fill="rgba(249,115,147,1)" id="YUon-9xs6EgWqMmbhLh" data-selector="g[26]&gt;path[4]" /><path d="m897.901 744.692c-43.398 0-78.705 35.308-78.705 78.705v126.545c0 43.398 35.308 78.706 78.705 78.706s78.706-35.308 78.706-78.706v-126.545c0-43.397-35.308-78.705-78.706-78.705z" fill="rgba(249,115,147,1)" id="iOnApQn8HxYTbliD09m7y" data-selector="g[26]&gt;path[5]" /><path d="m981.246 1151.177h-69.169v-64.455c65.651-7.092 116.937-62.829 116.937-130.334 0-7.828-6.347-14.175-14.176-14.175s-14.175 6.347-14.175 14.175c0 56.663-46.102 102.762-102.762 102.762s-102.757-46.099-102.757-102.762c0-7.828-6.347-14.175-14.176-14.175s-14.176 6.347-14.176 14.175c0 67.504 51.286 123.241 116.933 130.334v64.455h-69.169c-7.828 0-14.176 6.347-14.176 14.175s6.347 14.175 14.176 14.175h166.689c7.828 0 14.176-6.347 14.176-14.175s-6.347-14.175-14.176-14.175z" fill="rgba(249,115,147,1)" id="dE31b4duLGbqTgsNt3w5n" data-selector="g[26]&gt;path[6]" /><path d="m695.562 824.573c.767 4.681 1.694 9.688 5.045 13.045.956.957 2.017 1.705 3.159 2.275 9.054 4.521 19.312-3.777 17.404-13.715l-7.24-37.704c-.629-3.276-2.239-6.338-4.787-8.492-7.617-6.438-18.041-2.653-20.1 4.85-2.553 9.304 4.938 30.078 6.52 39.74z" fill="rgba(249,115,147,1)" id="TqE9s0A9-j8aJor7PoE04" data-selector="g[26]&gt;path[7]" /><path d="m1048.763 802.064c-.026 4.743.053 9.835 2.797 13.704.782 1.104 1.704 2.018 2.735 2.77 8.172 5.969 19.672-.5 19.449-10.617l-.844-38.383c-.073-3.335-1.15-6.623-3.302-9.172-6.435-7.619-17.345-5.628-20.628 1.427-4.071 8.747-.153 30.48-.206 40.27z" fill="rgba(249,115,147,1)" id="y8Xu8lsl5WezmUSoBFUp7" data-selector="g[26]&gt;path[8]" /></g></g></g><g transform="translate(198 815) rotate(-9.751935717285619 201.5 766.5) scale(1 1)" opacity="1" data-asset-index="2"><g clip-path="url(#assetClipPath_BiARinf-)" transform="scale(0.8181827410136939 0.8181827410136939)" data-asset-index="2"><defs data-selector="defs[1]" /><rect fill="rgba(121,222,251,1)" height="488.053" rx="233.754" transform="matrix(.00319395 .9999949 -.9999949 .00319395 1184.23 689.47)" width="1877.428" x="-692.437" y="694.717" id="PZRxRyJQ4sApA-E0oZOdF" data-selector="rect[2]" /><g fill="rgba(255,255,255,1)" id="YKIiCcw-eFDjHowHNxXtD" data-selector="g[3]"><path d="m231.364 457.167h27.125v117.034h-27.125z" transform="matrix(.00319395 .9999949 -.9999949 .00319395 759.826 269.112)" fill="rgba(255,255,255,1)" id="UHpBlgar4lubF2cioqS9B" data-selector="g[3]&gt;path[1]" /><path d="m186.452 541.433c-6.609 0-11.978-5.348-11.999-11.962l-.087-27.125c-.01-3.183 1.244-6.238 3.487-8.496s5.292-3.532 8.475-3.542l117.033-.373h.039c6.609 0 11.978 5.348 11.999 11.962l.087 27.125c.01 3.183-1.244 6.238-3.487 8.496s-5.292 3.532-8.475 3.542l-117.033.373zm11.952-27.163.011 3.125 93.033-.297-.011-3.125z" fill="rgba(255,255,255,1)" id="hbP7G59pukuSInrsT2g8X" data-selector="g[3]&gt;path[2]" /><path d="m186.735 617.795 58.273-76.431 58.761 76.058z" fill="rgba(255,255,255,1)" id="qIdsoZb3gx1CnikuuIELd" data-selector="g[3]&gt;path[3]" /><path d="m186.735 629.795c-4.555 0-8.718-2.578-10.746-6.659-2.033-4.091-1.567-8.982 1.203-12.616l58.273-76.432c2.262-2.967 5.774-4.713 9.505-4.725 3.741.021 7.254 1.712 9.534 4.664l58.76 76.057c2.794 3.616 3.291 8.505 1.283 12.609-2.007 4.104-6.172 6.713-10.741 6.728l-117.033.374zm58.336-68.721-34.038 44.644 68.36-.218z" fill="rgba(255,255,255,1)" id="Gu98Z2TvDwMmAKKfSxS1c" data-selector="g[3]&gt;path[4]" /><path d="m234.085 1309.432h27.125v117.034h-27.125z" transform="matrix(-.00319395 -.9999949 .9999949 -.00319395 -1119.504 1619.964)" fill="rgba(255,255,255,1)" id="FWiYABPCz-WAGEh1lwqkp" data-selector="g[3]&gt;path[5]" /><path d="m189.174 1393.699c-3.169 0-6.21-1.253-8.458-3.487-2.258-2.244-3.532-5.292-3.542-8.475l-.086-27.125c-.021-6.627 5.334-12.017 11.962-12.038l117.033-.374h.039c6.609 0 11.978 5.348 11.999 11.962l.087 27.125c.01 3.183-1.244 6.238-3.487 8.496s-5.292 3.532-8.475 3.542l-117.034.374zm11.952-27.163.01 3.125 93.034-.298-.011-3.125z" fill="rgba(255,255,255,1)" id="sMLh8yizt4TufFIdMl0X0" data-selector="g[3]&gt;path[6]" /><path d="m188.806 1266.212 58.76 76.058 58.273-76.432z" fill="rgba(255,255,255,1)" id="YG0Uz1_SXnIFj-vtb89Rj" data-selector="g[3]&gt;path[7]" /><path d="m247.566 1354.27c-3.716 0-7.224-1.722-9.496-4.664l-58.76-76.057c-2.794-3.616-3.291-8.505-1.283-12.609 2.007-4.104 6.172-6.713 10.741-6.728l117.033-.374c4.55-.008 8.75 2.566 10.784 6.659 2.033 4.091 1.567 8.982-1.203 12.616l-58.273 76.432c-2.262 2.967-5.774 4.713-9.505 4.725zm-34.385-76.136 34.322 44.426 34.038-44.644z" fill="rgba(255,255,255,1)" id="acCZlbY0W8QmjjBhlTDhr" data-selector="g[3]&gt;path[8]" /><path d="m246.276 1097.869c-41.189 0-79.943-15.978-109.176-45.023-29.353-29.166-45.591-68.017-45.723-109.396-.272-85.419 68.999-155.135 154.418-155.407h.509c41.189 0 79.943 15.978 109.176 45.024 29.353 29.165 45.591 68.016 45.723 109.395s-15.857 80.332-45.023 109.685c-29.165 29.353-68.016 45.591-109.395 45.723-.169 0-.339 0-.509 0zm.027-285.827c-.146 0-.285 0-.431 0-72.186.23-130.725 59.146-130.494 131.331.111 34.968 13.834 67.8 38.639 92.446 24.702 24.545 57.456 38.047 92.263 38.049h.43c34.968-.111 67.8-13.834 92.446-38.639 24.647-24.806 38.159-57.724 38.048-92.692s-13.834-67.8-38.639-92.446c-24.702-24.545-57.456-38.049-92.262-38.049z" fill="rgba(255,255,255,1)" id="FGUfRDu3BwfGYf8SQWg8f" data-selector="g[3]&gt;path[9]" /><path d="m234.772 834.961h27.125v140.091h-27.125z" transform="matrix(-.00319395 -.9999949 .9999949 -.00319395 -655.874 1156.229)" fill="rgba(255,255,255,1)" id="WKnF1DJeihfwDkTBwqFkh" data-selector="g[3]&gt;path[10]" /><path d="m178.332 930.792c-6.609 0-11.978-5.347-11.999-11.962l-.087-27.125c-.01-3.183 1.244-6.238 3.487-8.496s5.292-3.531 8.475-3.542l140.09-.448h.039c6.609 0 11.978 5.347 11.999 11.962l.087 27.125c.01 3.183-1.244 6.238-3.487 8.496s-5.292 3.532-8.475 3.542l-140.09.448zm11.952-27.163.011 3.125 116.09-.372-.011-3.125z" fill="rgba(255,255,255,1)" id="F_8ygztgJAIJVZTmucdI" data-selector="g[3]&gt;path[11]" /><path d="m235.014 910.598h27.125v140.091h-27.125z" transform="matrix(-.00319395 -.9999949 .9999949 -.00319395 -731.268 1232.349)" fill="rgba(255,255,255,1)" id="KfWYIay-RKtv_k36RPM-y" data-selector="g[3]&gt;path[12]" /><path d="m178.574 1006.429c-3.169 0-6.21-1.254-8.458-3.487-2.258-2.244-3.532-5.292-3.542-8.475l-.086-27.125c-.021-6.627 5.334-12.017 11.962-12.038l140.09-.447h.038c3.169 0 6.21 1.254 8.458 3.487 2.258 2.244 3.532 5.292 3.542 8.475l.086 27.125c.021 6.627-5.334 12.017-11.962 12.038l-140.09.447zm11.952-27.163.01 3.125 116.09-.371-.01-3.125z" fill="rgba(255,255,255,1)" id="DBui9xg0po3k56UAepEDl" data-selector="g[3]&gt;path[13]" /><path d="m287.707 1741.349-42.917-22.204-42.621 22.767 7.854-47.678-34.823-33.499 47.771-7.263 21.099-43.471 21.67 43.189 47.863 6.633-34.378 33.955z" fill="rgba(255,255,255,1)" id="s6kCYkTMkJzjDuI2usCd" data-selector="g[3]&gt;path[14]" /><path d="m202.17 1753.913c-2.462 0-4.912-.756-6.99-2.245-3.713-2.66-5.594-7.198-4.852-11.705l6.828-41.453-30.276-29.126c-3.292-3.167-4.5-7.928-3.117-12.281s5.117-7.544 9.633-8.23l41.535-6.315 18.344-37.795c1.995-4.109 6.149-6.73 10.717-6.761h.079c4.537 0 8.689 2.56 10.726 6.618l18.841 37.551 41.614 5.767c4.524.627 8.301 3.769 9.74 8.104 1.44 4.335.295 9.111-2.955 12.321l-29.891 29.522 7.375 41.359c.802 4.497-1.019 9.059-4.696 11.768s-8.574 3.095-12.631.997l-37.314-19.306-37.056 19.795c-1.773.948-3.717 1.416-5.653 1.416zm-1.129-84.969 17.301 16.643c2.847 2.738 4.163 6.702 3.521 10.599l-3.902 23.687 21.174-11.311c3.483-1.861 7.66-1.889 11.168-.074l21.322 11.031-4.214-23.633c-.693-3.888.571-7.868 3.381-10.645l17.08-16.869-23.779-3.295c-3.912-.542-7.307-2.975-9.078-6.505l-10.766-21.457-10.481 21.596c-1.725 3.554-5.087 6.03-8.992 6.624l-23.734 3.609z" fill="rgba(255,255,255,1)" id="o4ZJ0HDRYiUlSqb6-ybG" data-selector="g[3]&gt;path[15]" /><path d="m283.498 252.995c13.941-4.925 23.647-19.841 22.501-34.582-1.145-14.741-13.038-27.979-27.572-30.691l-.002-.629c14.516-2.805 26.325-16.118 27.376-30.866 1.052-14.748-8.749-29.602-22.721-34.437-9.772-3.382-20.714-2.093-30.311 1.754-9.599 3.847-18.04 10.086-25.989 16.7-16.802 13.979-31.943 29.95-45.006 47.473 13.174 17.439 28.418 33.314 45.309 47.184 7.991 6.563 16.472 12.747 26.095 16.533 9.622 3.786 20.572 5.005 30.322 1.561z" fill="rgba(255,255,255,1)" id="kblO2pXfcgyNkOUAsWHK" data-selector="g[3]&gt;path[16]" /><path d="m271.165 267.016c-7.309 0-14.917-1.479-22.382-4.415-11.639-4.579-21.352-11.885-29.317-18.427-17.621-14.471-33.524-31.032-47.269-49.225-3.216-4.258-3.234-10.128-.046-14.406 13.629-18.28 29.427-34.943 46.953-49.524 7.924-6.594 17.591-13.961 29.199-18.613 13.252-5.312 26.997-6.005 38.701-1.955 18.966 6.563 32.193 26.609 30.766 46.63-.823 11.537-6.463 22.393-14.867 30.249 8.454 7.803 14.163 18.621 15.06 30.153 1.557 20.01-11.542 40.141-30.468 46.826-5.116 1.808-10.632 2.707-16.33 2.707zm-74.192-79.348c11.256 13.878 23.914 26.617 37.725 37.959 6.52 5.354 14.337 11.281 22.873 14.64 7.91 3.112 15.699 3.613 21.931 1.413 8.88-3.138 15.265-12.948 14.534-22.337-.729-9.39-8.553-18.098-17.81-19.824-5.667-1.058-9.781-5.995-9.799-11.76l-.002-.629c-.018-5.764 4.064-10.726 9.724-11.819 9.246-1.786 17.013-10.544 17.683-19.938s-5.776-19.163-14.676-22.243c-6.248-2.161-14.032-1.61-21.923 1.553-8.514 3.412-16.292 9.389-22.778 14.785-13.736 11.428-26.313 24.249-37.481 38.2z" fill="rgba(255,255,255,1)" id="zH5s-FaGqTYe28B26EUZ" data-selector="g[3]&gt;path[17]" /></g></g></g><g transform="translate(247 778) rotate(0 138 61) scale(1 1)" opacity="1" data-asset-index="3"><g clip-path="url(#assetClipPath_1CMgVSLV)" transform="scale(0.8121134369464535 0.8121134369464535)" data-asset-index="3"><defs data-selector="defs[1]" />
  <path id="Upload" d="M327.854,42.783c-26.317-7.465-50.436-13.536-71.284-17.532-40.974-7.854-82.541-15.745-124.135-12.506-41.594,3.24-83.94,19.027-110.551,51.158-9.736,13.631-11.363,20.316-8.803,32.007,3.461,15.803,20.866,25.336,37.043,25.335,16.177,0,76.438-21.435,76.438-21.435,20.012,19.918,46.479,33.247,74.397,37.466,27.918,4.219,57.141-.692,82.146-13.807" fill="rgba(255,255,255,1)" data-selector="path[2]" />
  <path d="M220.695,150.751c-7.201,0-14.4-.532-21.529-1.609-27.936-4.222-54.475-16.773-75.522-35.593-17.973,6.216-58.666,19.696-73.519,19.697-20.45,0-43.768-11.942-48.767-34.768-3.36-15.345-.745-25.44,10.761-41.549.166-.232.341-.46.522-.68C39.023,24.397,81.235,4.698,131.504.782c43.492-3.389,86.109,4.783,127.325,12.685,20.011,3.836,43.66,9.649,72.299,17.772,6.376,1.809,10.079,8.443,8.271,14.819-1.809,6.375-8.444,10.077-14.819,8.271-27.963-7.932-50.947-13.588-70.268-17.292-39.659-7.603-80.664-15.47-120.944-12.327-42.919,3.344-80.056,20.293-101.97,46.521-8.402,11.836-8.115,15.168-6.594,22.112,2.15,9.822,14.817,15.902,25.32,15.902,9.723,0,48.2-12.13,72.416-20.741,4.356-1.553,9.212-.46,12.486,2.801,18.236,18.149,42.288,30.262,67.726,34.105,25.438,3.842,51.994-.619,74.78-12.568,5.866-3.076,13.121-.816,16.2,5.054,3.078,5.869.815,13.122-5.054,16.2-20.888,10.955-44.428,16.654-67.983,16.654Z" fill="rgba(0,0,0,1)" id="aPJmm4jKeAGZ2V-avytyR" data-selector="path[3]" />
</g></g></svg>